<svg width="221" height="89" viewBox="0 0 221 89" fill="none" xmlns="http://www.w3.org/2000/svg">
<g filter="url(#filter0_d_23253_6629)">
<rect x="10" y="13" width="191" height="58" rx="6.73652" fill="#CB1313" fill-opacity="0.01" shape-rendering="crispEdges"/>
<path d="M40.3787 35.6599L36.7942 32.8649C36.7942 32.8649 36.7057 30.0161 35.8327 30.1741C34.9597 30.3322 32.0826 32.5811 33.0404 33.6157C33.9983 34.6504 40.3787 39.2021 40.3787 39.2021V44.7488L40.596 54.9766C32.3802 54.6686 29.1996 50.1416 28.8629 49.6957C23.444 43.1744 24.7702 36.9532 24.7702 36.9532L30.6496 42.191L30.9406 45.3165C30.9406 45.3165 35.2544 47.5905 35.6007 47.3606C35.9471 47.1307 36.5327 44.0663 34.9597 41.3396C33.3867 38.6129 23.6072 37.9885 26.6456 31.0435C29.684 24.0986 40.3787 22.9102 40.3787 22.9102L40.3787 35.6599Z" fill="#1762A8"/>
<path d="M41.1 54.9552C40.9538 54.8055 40.8184 22.9102 40.8184 22.9102C40.8184 22.9102 44.196 22.902 45.6412 23.6516V37.3928L48.1755 34.4093L50.9951 37.956L50.8311 26.4248C54.0248 28.7372 55.937 33.2822 56.1954 33.9031C59.2927 44.7642 51.1824 51.4376 51.045 51.3087L48.1755 42.8608C48.1755 42.8608 46.4917 53.426 46.2756 53.9322C46.0596 54.4384 41.2461 55.1049 41.1 54.9552Z" fill="#BE0E0E"/>
<path d="M72.9244 37.5486L70.9877 38.0967C70.8659 37.7739 70.6863 37.4603 70.4488 37.1558C70.2174 36.8452 69.9007 36.5894 69.4987 36.3885C69.0968 36.1875 68.5822 36.087 67.9549 36.087C67.0962 36.087 66.3807 36.2849 65.8082 36.6808C65.2418 37.0705 64.9587 37.5669 64.9587 38.1698C64.9587 38.7057 65.1535 39.129 65.5433 39.4395C65.9331 39.7501 66.5421 40.009 67.3703 40.216L69.4531 40.7276C70.7076 41.0321 71.6424 41.498 72.2575 42.1252C72.8726 42.7464 73.1801 43.5472 73.1801 44.5277C73.1801 45.3316 72.9487 46.0502 72.4859 46.6836C72.0291 47.3169 71.3897 47.8163 70.5675 48.1817C69.7454 48.5471 68.7893 48.7298 67.6992 48.7298C66.268 48.7298 65.0835 48.4192 64.1456 47.7981C63.2078 47.1769 62.614 46.2695 62.3643 45.0758L64.4106 44.5643C64.6054 45.3194 64.9739 45.8858 65.5159 46.2634C66.064 46.641 66.7796 46.8297 67.6626 46.8297C68.6675 46.8297 69.4652 46.6166 70.056 46.1903C70.6528 45.7579 70.9512 45.2403 70.9512 44.6373C70.9512 44.1501 70.7807 43.7421 70.4396 43.4133C70.0986 43.0783 69.5749 42.8286 68.8684 42.6642L66.5299 42.1161C65.2449 41.8116 64.3009 41.3396 63.698 40.7002C63.1012 40.0546 62.8028 39.2477 62.8028 38.2794C62.8028 37.4877 63.0251 36.7874 63.4697 36.1784C63.9203 35.5694 64.5324 35.0913 65.3058 34.7442C66.0853 34.397 66.9684 34.2235 67.9549 34.2235C69.3434 34.2235 70.4336 34.528 71.2253 35.137C72.023 35.746 72.5894 36.5498 72.9244 37.5486ZM82.5275 34.4062V36.2332H75.2561V34.4062H82.5275ZM77.3754 31.0445H79.5312V44.4181C79.5312 45.0271 79.6195 45.4839 79.7961 45.7884C79.9788 46.0868 80.2103 46.2877 80.4904 46.3913C80.7766 46.4887 81.0781 46.5374 81.3948 46.5374C81.6323 46.5374 81.8272 46.5252 81.9794 46.5009C82.1317 46.4704 82.2535 46.4461 82.3448 46.4278L82.7833 48.3644C82.6371 48.4192 82.4331 48.474 82.1712 48.5288C81.9094 48.5897 81.5775 48.6202 81.1755 48.6202C80.5665 48.6202 79.9697 48.4893 79.3851 48.2274C78.8065 47.9655 78.3254 47.5666 77.9417 47.0307C77.5642 46.4948 77.3754 45.8188 77.3754 45.0027V31.0445ZM86.8301 48.4375H84.455L91.3245 29.7291H93.663L100.533 48.4375H98.1575L92.5668 32.6888H92.4207L86.8301 48.4375ZM87.707 41.1295H97.2805V43.1392H87.707V41.1295ZM102.784 53.6992C102.419 53.6992 102.093 53.6688 101.807 53.6079C101.521 53.5531 101.323 53.4983 101.213 53.4435L101.761 51.5434C102.285 51.6774 102.748 51.7261 103.15 51.6896C103.552 51.653 103.908 51.4734 104.219 51.1506C104.535 50.8339 104.824 50.3193 105.086 49.6068L105.488 48.5106L100.3 34.4062H102.638L106.511 45.5874H106.658L110.531 34.4062H112.869L106.913 50.4837C106.645 51.2084 106.313 51.8083 105.918 52.2833C105.522 52.7644 105.062 53.1207 104.538 53.3521C104.021 53.5835 103.436 53.6992 102.784 53.6992ZM118.894 48.4375L114.619 34.4062H116.884L119.917 45.1489H120.063L123.059 34.4062H125.361L128.321 45.1124H128.467L131.5 34.4062H133.766L129.49 48.4375H127.371L124.302 37.6582H124.083L121.013 48.4375H118.894ZM152.693 39.0833C152.693 41.0564 152.337 42.7616 151.624 44.1989C150.912 45.6361 149.935 46.7445 148.692 47.524C147.45 48.3035 146.031 48.6933 144.435 48.6933C142.84 48.6933 141.421 48.3035 140.178 47.524C138.936 46.7445 137.959 45.6361 137.246 44.1989C136.534 42.7616 136.177 41.0564 136.177 39.0833C136.177 37.1101 136.534 35.4049 137.246 33.9677C137.959 32.5305 138.936 31.4221 140.178 30.6426C141.421 29.863 142.84 29.4733 144.435 29.4733C146.031 29.4733 147.45 29.863 148.692 30.6426C149.935 31.4221 150.912 32.5305 151.624 33.9677C152.337 35.4049 152.693 37.1101 152.693 39.0833ZM150.501 39.0833C150.501 37.4633 150.23 36.0961 149.688 34.9817C149.152 33.8672 148.424 33.0237 147.505 32.4513C146.591 31.8788 145.568 31.5926 144.435 31.5926C143.303 31.5926 142.276 31.8788 141.357 32.4513C140.443 33.0237 139.716 33.8672 139.174 34.9817C138.638 36.0961 138.37 37.4633 138.37 39.0833C138.37 40.7032 138.638 42.0704 139.174 43.1849C139.716 44.2994 140.443 45.1428 141.357 45.7153C142.276 46.2877 143.303 46.574 144.435 46.574C145.568 46.574 146.591 46.2877 147.505 45.7153C148.424 45.1428 149.152 44.2994 149.688 43.1849C150.23 42.0704 150.501 40.7032 150.501 39.0833ZM156.503 48.4375V29.7291H158.768V39.0102H158.987L167.391 29.7291H170.351L162.495 38.1698L170.351 48.4375H167.611L161.107 39.741L158.768 42.3719V48.4375H156.503ZM177.844 48.7298C176.492 48.7298 175.326 48.4314 174.345 47.8346C173.371 47.2317 172.619 46.3913 172.089 45.3133C171.565 44.2293 171.304 42.9687 171.304 41.5315C171.304 40.0942 171.565 38.8275 172.089 37.7313C172.619 36.629 173.356 35.7703 174.3 35.1552C175.25 34.5341 176.358 34.2235 177.625 34.2235C178.356 34.2235 179.077 34.3453 179.79 34.5889C180.502 34.8325 181.151 35.2283 181.736 35.7764C182.32 36.3184 182.786 37.037 183.133 37.9323C183.48 38.8275 183.654 39.9298 183.654 41.2391V42.1526H172.838V40.2891H181.462C181.462 39.4974 181.303 38.791 180.987 38.1698C180.676 37.5486 180.231 37.0584 179.653 36.6991C179.08 36.3397 178.404 36.1601 177.625 36.1601C176.766 36.1601 176.023 36.3732 175.396 36.7995C174.775 37.2197 174.297 37.7678 173.962 38.4438C173.627 39.1198 173.459 39.8445 173.459 40.618V41.8603C173.459 42.92 173.642 43.8182 174.007 44.5551C174.379 45.2859 174.894 45.8432 175.551 46.2268C176.209 46.6044 176.973 46.7932 177.844 46.7932C178.411 46.7932 178.922 46.714 179.379 46.5557C179.842 46.3913 180.241 46.1477 180.576 45.8249C180.91 45.496 181.169 45.088 181.352 44.6008L183.435 45.1854C183.216 45.8919 182.847 46.5131 182.329 47.049C181.812 47.5788 181.172 47.9929 180.411 48.2913C179.65 48.5837 178.794 48.7298 177.844 48.7298Z" fill="#1762A8"/>
</g>
<defs>
<filter id="filter0_d_23253_6629" x="0.0750008" y="0.325001" width="220.85" height="87.85" filterUnits="userSpaceOnUse" color-interpolation-filters="sRGB">
<feFlood flood-opacity="0" result="BackgroundImageFix"/>
<feColorMatrix in="SourceAlpha" type="matrix" values="0 0 0 0 0 0 0 0 0 0 0 0 0 0 0 0 0 0 127 0" result="hardAlpha"/>
<feOffset dx="5" dy="2.25"/>
<feGaussianBlur stdDeviation="7.4625"/>
<feComposite in2="hardAlpha" operator="out"/>
<feColorMatrix type="matrix" values="0 0 0 0 0 0 0 0 0 0 0 0 0 0 0 0 0 0 0.25 0"/>
<feBlend mode="normal" in2="BackgroundImageFix" result="effect1_dropShadow_23253_6629"/>
<feBlend mode="normal" in="BackgroundImageFix" in2="effect1_dropShadow_23253_6629" result="BackgroundImageFix"/>
<feBlend mode="normal" in="SourceGraphic" in2="BackgroundImageFix" result="shape"/>
</filter>
</defs>
</svg>
