<svg width="68" height="28" viewBox="0 0 68 28" fill="none" xmlns="http://www.w3.org/2000/svg">
<rect width="67.9939" height="27.3864" rx="3.18085" fill="#CB1313" fill-opacity="0.01"/>
<path d="M10.3578 11.6046L9.4434 11.8634C9.38589 11.711 9.30106 11.5629 9.18891 11.4191C9.07964 11.2724 8.93011 11.1517 8.74033 11.0568C8.55054 10.9619 8.30755 10.9144 8.01137 10.9144C7.60591 10.9144 7.26803 11.0079 6.99773 11.1948C6.7303 11.3788 6.59659 11.6132 6.59659 11.8979C6.59659 12.1509 6.68861 12.3508 6.87264 12.4974C7.05668 12.6441 7.34424 12.7663 7.73531 12.8641L8.71876 13.1056C9.31113 13.2494 9.75253 13.4694 10.043 13.7656C10.3334 14.0589 10.4786 14.437 10.4786 14.9C10.4786 15.2796 10.3693 15.6189 10.1508 15.9179C9.93512 16.217 9.63319 16.4528 9.24499 16.6253C8.85679 16.7979 8.40532 16.8841 7.89059 16.8841C7.21484 16.8841 6.65554 16.7375 6.2127 16.4442C5.76986 16.1509 5.48949 15.7224 5.3716 15.1588L6.33779 14.9172C6.42981 15.2738 6.60378 15.5412 6.8597 15.7195C7.1185 15.8978 7.45638 15.9869 7.87334 15.9869C8.34781 15.9869 8.72451 15.8863 9.00344 15.685C9.28525 15.4808 9.42615 15.2364 9.42615 14.9517C9.42615 14.7217 9.34563 14.529 9.1846 14.3737C9.02357 14.2156 8.77627 14.0977 8.4427 14.0201L7.33849 13.7613C6.73174 13.6175 6.28603 13.3946 6.00135 13.0927C5.71954 12.7879 5.57864 12.4069 5.57864 11.9496C5.57864 11.5758 5.68359 11.2451 5.89351 10.9576C6.1063 10.67 6.3953 10.4443 6.7605 10.2804C7.12857 10.1165 7.54553 10.0345 8.01137 10.0345C8.667 10.0345 9.18173 10.1783 9.55555 10.4658C9.93225 10.7534 10.1997 11.133 10.3578 11.6046ZM14.8922 10.1208V10.9835H11.4588V10.1208H14.8922ZM12.4595 8.53347H13.4775V14.8482C13.4775 15.1358 13.5192 15.3514 13.6026 15.4952C13.6888 15.6361 13.7981 15.731 13.9304 15.7799C14.0655 15.8259 14.2079 15.8489 14.3574 15.8489C14.4695 15.8489 14.5616 15.8432 14.6334 15.8317C14.7053 15.8173 14.7628 15.8058 14.806 15.7972L15.013 16.7116C14.944 16.7375 14.8477 16.7633 14.724 16.7892C14.6004 16.818 14.4437 16.8324 14.2539 16.8324C13.9663 16.8324 13.6845 16.7705 13.4085 16.6469C13.1353 16.5232 12.9081 16.3349 12.7269 16.0818C12.5487 15.8288 12.4595 15.5096 12.4595 15.1243V8.53347ZM16.9238 16.7461H15.8024L19.046 7.91234H20.1502L23.3939 16.7461H22.2724L19.6326 9.30987H19.5636L16.9238 16.7461ZM17.3379 13.2954H21.8583V14.2443H17.3379V13.2954ZM24.4571 19.2306C24.2846 19.2306 24.1307 19.2162 23.9956 19.1875C23.8604 19.1616 23.767 19.1357 23.7152 19.1098L23.974 18.2126C24.2213 18.2759 24.4399 18.2989 24.6296 18.2816C24.8194 18.2644 24.9877 18.1796 25.1343 18.0272C25.2838 17.8776 25.4204 17.6346 25.5441 17.2982L25.7339 16.7806L23.2839 10.1208H24.3881L26.217 15.4003H26.286L28.1148 10.1208H29.2191L26.4067 17.7123C26.2802 18.0545 26.1235 18.3377 25.9366 18.562C25.7497 18.7892 25.5326 18.9574 25.2853 19.0667C25.0409 19.176 24.7648 19.2306 24.4571 19.2306ZM32.0637 16.7461L30.0451 10.1208H31.1148L32.5468 15.1933H32.6158L34.0306 10.1208H35.1176L36.5151 15.176H36.5841L38.0161 10.1208H39.0859L37.0672 16.7461H36.0665L34.6172 11.6563H34.5137L33.0644 16.7461H32.0637ZM48.0231 12.3292C48.0231 13.2609 47.8549 14.0661 47.5185 14.7447C47.182 15.4233 46.7205 15.9467 46.1339 16.3148C45.5473 16.6828 44.8773 16.8669 44.1239 16.8669C43.3705 16.8669 42.7004 16.6828 42.1138 16.3148C41.5272 15.9467 41.0657 15.4233 40.7292 14.7447C40.3928 14.0661 40.2246 13.2609 40.2246 12.3292C40.2246 11.3975 40.3928 10.5924 40.7292 9.91374C41.0657 9.23511 41.5272 8.71175 42.1138 8.34368C42.7004 7.97561 43.3705 7.79157 44.1239 7.79157C44.8773 7.79157 45.5473 7.97561 46.1339 8.34368C46.7205 8.71175 47.182 9.23511 47.5185 9.91374C47.8549 10.5924 48.0231 11.3975 48.0231 12.3292ZM46.9879 12.3292C46.9879 11.5643 46.86 10.9188 46.604 10.3925C46.351 9.86629 46.0073 9.46803 45.5731 9.19772C45.1418 8.92742 44.6587 8.79227 44.1239 8.79227C43.589 8.79227 43.1045 8.92742 42.6703 9.19772C42.2389 9.46803 41.8953 9.86629 41.6394 10.3925C41.3863 10.9188 41.2598 11.5643 41.2598 12.3292C41.2598 13.0941 41.3863 13.7397 41.6394 14.2659C41.8953 14.7921 42.2389 15.1904 42.6703 15.4607C43.1045 15.731 43.589 15.8662 44.1239 15.8662C44.6587 15.8662 45.1418 15.731 45.5731 15.4607C46.0073 15.1904 46.351 14.7921 46.604 14.2659C46.86 13.7397 46.9879 13.0941 46.9879 12.3292ZM49.8218 16.7461V7.91234H50.8915V12.2947H50.995L54.9633 7.91234H56.3608L52.6514 11.8979L56.3608 16.7461H55.0668L51.9957 12.6398L50.8915 13.882V16.7461H49.8218ZM59.8989 16.8841C59.2605 16.8841 58.7098 16.7432 58.2469 16.4614C57.7868 16.1767 57.4316 15.7799 57.1815 15.2709C56.9342 14.7591 56.8105 14.1638 56.8105 13.4852C56.8105 12.8066 56.9342 12.2084 57.1815 11.6908C57.4316 11.1704 57.7796 10.7649 58.2253 10.4745C58.6739 10.1812 59.1972 10.0345 59.7953 10.0345C60.1404 10.0345 60.4812 10.092 60.8176 10.207C61.1541 10.3221 61.4603 10.509 61.7364 10.7678C62.0124 11.0237 62.2324 11.363 62.3963 11.7857C62.5602 12.2084 62.6422 12.7289 62.6422 13.3472V13.7785H57.5351V12.8986H61.607C61.607 12.5248 61.5322 12.1912 61.3827 11.8979C61.236 11.6046 61.0261 11.3731 60.7529 11.2034C60.4826 11.0338 60.1634 10.9489 59.7953 10.9489C59.3899 10.9489 59.0391 11.0496 58.7429 11.2509C58.4496 11.4493 58.2238 11.7081 58.0657 12.0273C57.9075 12.3465 57.8285 12.6887 57.8285 13.0539V13.6405C57.8285 14.1408 57.9147 14.565 58.0873 14.9129C58.2627 15.258 58.5057 15.5211 58.8162 15.7023C59.1268 15.8805 59.4877 15.9697 59.8989 15.9697C60.1663 15.9697 60.4078 15.9323 60.6235 15.8575C60.8421 15.7799 61.0304 15.6649 61.1886 15.5125C61.3467 15.3572 61.4689 15.1645 61.5552 14.9345L62.5386 15.2105C62.4351 15.5441 62.2611 15.8374 62.0167 16.0905C61.7723 16.3406 61.4704 16.5362 61.1109 16.6771C60.7515 16.8151 60.3475 16.8841 59.8989 16.8841Z" fill="#1762A8"/>
</svg>
