<svg width="142" height="142" viewBox="0 0 142 142" fill="none" xmlns="http://www.w3.org/2000/svg">
<circle cx="71" cy="71" r="71" fill="white"/>
<path d="M67.1058 63.6057L59.3446 57.554C59.3446 57.554 59.153 51.3857 57.2628 51.728C55.3725 52.0703 49.1429 56.9395 51.2169 59.1798C53.2908 61.42 67.1058 71.2753 67.1058 71.2753V83.2852L67.5763 105.43C49.7874 104.763 42.9008 94.9616 42.1716 93.9961C30.4387 79.8762 33.3101 66.4059 33.3101 66.4059L46.0403 77.7469L46.6704 84.5142C46.6704 84.5142 56.0105 89.4379 56.7604 88.9401C57.5103 88.4423 58.7784 81.8073 55.3725 75.9034C51.9666 69.9996 30.792 68.6476 37.3707 53.6104C43.9495 38.5731 67.1058 36 67.1058 36L67.1058 63.6057Z" fill="#1762A8"/>
<path d="M68.6664 105.384C68.35 105.06 68.0566 36 68.0566 36C68.0566 36 75.37 35.9822 78.499 37.6054V67.3578L83.9864 60.8979L90.0913 68.5773L89.7363 43.6098C96.6512 48.6167 100.792 58.4576 101.351 59.802C108.057 83.3184 90.4968 97.7676 90.1993 97.4886L83.9864 79.1971C83.9864 79.1971 80.3406 102.073 79.8728 103.169C79.405 104.265 68.9827 105.708 68.6664 105.384Z" fill="#BE0E0E"/>
</svg>
