<svg width="300" height="86" viewBox="0 0 300 86" fill="none" xmlns="http://www.w3.org/2000/svg">
<rect x="0.445312" y="0.175781" width="299.486" height="85.5676" rx="12.8708" fill="white" fill-opacity="0.01"/>
<path d="M33.6301 56.2139C33.6301 57.1412 33.7258 58.0412 33.8455 58.9412H18.0735C14.4835 58.9412 11.3482 57.5776 8.76342 54.6594C6.20255 51.7957 4.91016 48.2775 4.91016 44.1593C4.91016 40.6139 5.84356 37.4502 7.71035 34.6684C10.5105 30.4957 12.0901 30.1138 15.0818 29.3502C16.087 25.1774 18.0735 21.7956 21.0651 19.2047C24.0568 16.6138 27.4553 15.3047 31.2368 15.3047C35.9038 15.3047 39.8528 17.1592 43.1077 20.8683C46.3626 24.5774 47.9901 29.0775 47.9901 34.3957C50.7424 34.7502 53.0161 36.1139 54.835 38.4866C56.0556 40.0411 56.8454 41.7866 57.2283 43.723C54.6562 41.2112 51.3775 39.8367 47.9901 39.8502H43.2034V34.3957C43.2034 30.632 42.0068 27.4138 39.7092 24.7411C37.3637 22.1229 34.5396 20.7593 31.2368 20.7593C27.934 20.7593 25.1099 22.1229 22.7644 24.7411C20.4668 27.4138 19.2701 30.632 19.2701 34.3957H18.0735C15.7519 34.3957 13.7894 35.3229 12.1619 37.2048C10.5105 39.0593 9.69682 41.2957 9.69682 43.9412C9.69682 46.5866 10.5105 48.823 12.1619 50.7594C13.7894 52.5594 15.7519 53.4866 18.0735 53.4866H33.8455C33.7258 54.3867 33.6301 55.2867 33.6301 56.2139ZM38.4168 53.4866V58.9412H57.5634V53.4866H38.4168Z" fill="#FFD700"/>
<path d="M83.1739 33.8051L79.4738 34.8523C79.2411 34.2356 78.8978 33.6363 78.444 33.0546C78.0019 32.4612 77.3969 31.9725 76.6289 31.5885C75.861 31.2045 74.8778 31.0125 73.6793 31.0125C72.0387 31.0125 70.6715 31.3907 69.5778 32.147C68.4957 32.8917 67.9546 33.84 67.9546 34.9919C67.9546 36.0158 68.327 36.8245 69.0716 37.4179C69.8163 38.0113 70.9799 38.5058 72.5623 38.9014L76.5416 39.8788C78.9386 40.4606 80.7246 41.3507 81.8998 42.5492C83.075 43.736 83.6626 45.266 83.6626 47.1394C83.6626 48.6753 83.2204 50.0482 82.3361 51.2583C81.4635 52.4684 80.2417 53.4226 78.6709 54.1207C77.1001 54.8188 75.2734 55.1679 73.1906 55.1679C70.4563 55.1679 68.1932 54.5745 66.4013 53.3876C64.6094 52.2008 63.4749 50.4671 62.9979 48.1866L66.9074 47.2092C67.2798 48.652 67.9837 49.7341 69.0193 50.4555C70.0665 51.1769 71.4336 51.5376 73.1208 51.5376C75.0407 51.5376 76.5649 51.1304 77.6936 50.3159C78.8338 49.4897 79.404 48.5007 79.404 47.3488C79.404 46.418 79.0782 45.6384 78.4266 45.0101C77.775 44.3701 76.7744 43.8931 75.4246 43.5789L70.9566 42.5317C68.5015 41.9499 66.698 41.0482 65.5461 39.8264C64.4058 38.5931 63.8356 37.0514 63.8356 35.2013C63.8356 33.6887 64.2603 32.3506 65.1097 31.1871C65.9708 30.0235 67.1401 29.1101 68.6178 28.4469C70.1072 27.7837 71.7943 27.4521 73.6793 27.4521C76.3322 27.4521 78.415 28.0338 79.9276 29.1974C81.4518 30.3609 82.5339 31.8968 83.1739 33.8051ZM101.522 27.8011V31.2918H87.6288V27.8011H101.522ZM91.678 21.3783H95.797V46.9299C95.797 48.0935 95.9657 48.9661 96.3031 49.5479C96.6522 50.1181 97.0943 50.502 97.6296 50.6998C98.1764 50.886 98.7524 50.9791 99.3574 50.9791C99.8112 50.9791 100.184 50.9558 100.474 50.9093C100.765 50.8511 100.998 50.8046 101.173 50.7697L102.01 54.4697C101.731 54.5745 101.341 54.6792 100.841 54.7839C100.341 54.9003 99.7065 54.9584 98.9386 54.9584C97.775 54.9584 96.6347 54.7083 95.5177 54.2079C94.4124 53.7076 93.4931 52.9455 92.7601 51.9216C92.0387 50.8976 91.678 49.6061 91.678 48.0469V21.3783ZM109.742 54.6094H105.204L118.329 18.865H122.797L135.922 54.6094H131.384L120.703 24.5199H120.424L109.742 54.6094ZM111.418 40.6467H129.709V44.4865H111.418V40.6467ZM140.224 64.6625C139.526 64.6625 138.904 64.6043 138.357 64.4879C137.81 64.3832 137.432 64.2785 137.222 64.1738L138.27 60.5435C139.27 60.7995 140.155 60.8926 140.922 60.8227C141.69 60.7529 142.371 60.4097 142.964 59.793C143.57 59.188 144.122 58.2048 144.623 56.8434L145.39 54.749L135.477 27.8011H139.945L147.345 49.1639H147.625L155.025 27.8011H159.493L148.113 58.5189C147.601 59.9035 146.967 61.0496 146.211 61.9572C145.454 62.8764 144.576 63.5571 143.575 63.9992C142.586 64.4414 141.469 64.6625 140.224 64.6625ZM171.003 54.6094L162.835 27.8011H167.163L172.958 48.3262H173.237L178.962 27.8011H183.36L189.015 48.2564H189.294L195.089 27.8011H199.417L191.249 54.6094H187.2L181.336 34.0145H180.917L175.052 54.6094H171.003ZM235.58 36.7372C235.58 40.5071 234.9 43.7651 233.538 46.511C232.177 49.257 230.309 51.3747 227.936 52.864C225.562 54.3534 222.851 55.0981 219.803 55.0981C216.754 55.0981 214.043 54.3534 211.669 52.864C209.296 51.3747 207.428 49.257 206.067 46.511C204.705 43.7651 204.025 40.5071 204.025 36.7372C204.025 32.9673 204.705 29.7094 206.067 26.9634C207.428 24.2174 209.296 22.0997 211.669 20.6104C214.043 19.121 216.754 18.3763 219.803 18.3763C222.851 18.3763 225.562 19.121 227.936 20.6104C230.309 22.0997 232.177 24.2174 233.538 26.9634C234.9 29.7094 235.58 32.9673 235.58 36.7372ZM231.392 36.7372C231.392 33.6422 230.874 31.03 229.838 28.9007C228.814 26.7714 227.424 25.1599 225.667 24.0661C223.922 22.9724 221.967 22.4255 219.803 22.4255C217.638 22.4255 215.678 22.9724 213.921 24.0661C212.175 25.1599 210.785 26.7714 209.749 28.9007C208.726 31.03 208.214 33.6422 208.214 36.7372C208.214 39.8323 208.726 42.4444 209.749 44.5737C210.785 46.703 212.175 48.3146 213.921 49.4083C215.678 50.502 217.638 51.0489 219.803 51.0489C221.967 51.0489 223.922 50.502 225.667 49.4083C227.424 48.3146 228.814 46.703 229.838 44.5737C230.874 42.4444 231.392 39.8323 231.392 36.7372ZM242.858 54.6094V18.865H247.187V36.5976H247.606L263.663 18.865H269.318L254.308 34.9919L269.318 54.6094H264.082L251.655 37.9938L247.187 43.0204V54.6094H242.858ZM283.634 55.1679C281.051 55.1679 278.822 54.5977 276.949 53.4575C275.087 52.3055 273.65 50.6998 272.638 48.6404C271.637 46.5692 271.137 44.1607 271.137 41.4147C271.137 38.6687 271.637 36.2485 272.638 34.1541C273.65 32.0481 275.058 30.4075 276.862 29.2323C278.677 28.0455 280.795 27.4521 283.215 27.4521C284.611 27.4521 285.99 27.6848 287.351 28.1502C288.713 28.6156 289.952 29.3719 291.069 30.4191C292.186 31.4547 293.076 32.8277 293.739 34.5381C294.402 36.2485 294.734 38.3545 294.734 40.8562V42.6015H274.069V39.041H290.545C290.545 37.5284 290.243 36.1787 289.638 34.9919C289.044 33.8051 288.195 32.8684 287.089 32.1819C285.996 31.4954 284.704 31.1522 283.215 31.1522C281.574 31.1522 280.155 31.5594 278.956 32.3739C277.769 33.1767 276.856 34.2239 276.216 35.5155C275.576 36.807 275.256 38.1916 275.256 39.6694V42.043C275.256 44.0676 275.605 45.7838 276.303 47.1917C277.013 48.588 277.996 49.6526 279.253 50.3857C280.509 51.1071 281.97 51.4678 283.634 51.4678C284.716 51.4678 285.693 51.3165 286.566 51.014C287.45 50.6998 288.212 50.2344 288.852 49.6177C289.492 48.9894 289.987 48.2098 290.336 47.279L294.315 48.396C293.896 49.7457 293.192 50.9325 292.203 51.9565C291.214 52.9688 289.992 53.76 288.538 54.3301C287.084 54.8886 285.449 55.1679 283.634 55.1679Z" fill="#D4AF37"/>
</svg>
