<svg width="430" height="255" viewBox="0 0 430 255" fill="none" xmlns="http://www.w3.org/2000/svg">
<rect x="151.679" width="126.263" height="129.542" rx="63.1313" fill="black" fill-opacity="0.01"/>
<path d="M213.745 55.6663L203.806 47.9163C203.806 47.9163 203.56 40.0169 201.14 40.4552C198.719 40.8935 190.741 47.1293 193.397 49.9982C196.053 52.8672 213.745 65.4882 213.745 65.4882L213.745 80.8686L214.348 109.229C191.566 108.374 182.747 95.822 181.813 94.5854C166.788 76.5029 170.465 59.2523 170.465 59.2523L186.768 73.7761L187.575 82.4425C187.575 82.4425 199.536 88.7481 200.496 88.1106C201.457 87.4731 203.081 78.976 198.719 71.4153C194.357 63.8546 167.24 62.1231 175.665 42.8658C184.09 23.6085 213.745 20.3132 213.745 20.3132L213.745 55.6663Z" fill="#1762A8"/>
<path d="M215.742 109.169C215.336 108.754 214.961 20.3132 214.961 20.3132C214.961 20.3132 224.327 20.2905 228.334 22.3691L228.334 60.4714L235.361 52.1986L243.179 62.0331L242.725 30.0587C251.58 36.4708 256.882 49.0734 257.599 50.7951C266.187 80.9112 243.699 99.4155 243.318 99.0581L235.361 75.6333C235.361 75.6333 230.692 104.929 230.093 106.333C229.494 107.736 216.147 109.584 215.742 109.169Z" fill="#BE0E0E"/>
<mask id="path-4-outside-1_601_692" maskUnits="userSpaceOnUse" x="2" y="132.604" width="426" height="90" fill="black">
<rect fill="white" x="2" y="132.604" width="426" height="90"/>
<path d="M41.5279 163.873L34.8172 165.772C34.3951 164.654 33.7726 163.567 32.9496 162.512C32.1477 161.435 31.0504 160.549 29.6576 159.853C28.2648 159.156 26.4816 158.808 24.308 158.808C21.3326 158.808 18.853 159.494 16.8693 160.866C14.9068 162.216 13.9255 163.936 13.9255 166.025C13.9255 167.882 14.6008 169.349 15.9514 170.425C17.3019 171.501 19.4122 172.398 22.2822 173.116L29.4993 174.888C33.8465 175.944 37.0857 177.558 39.2171 179.732C41.3485 181.884 42.4142 184.659 42.4142 188.057C42.4142 190.842 41.6123 193.332 40.0085 195.527C38.4258 197.722 36.21 199.452 33.3611 200.718C30.5122 201.984 27.1991 202.617 23.4217 202.617C18.4626 202.617 14.3581 201.541 11.1083 199.389C7.85849 197.236 5.80097 194.092 4.93576 189.956L12.0263 188.183C12.7016 190.8 13.9783 192.762 15.8564 194.071C17.7557 195.379 20.2352 196.033 23.2951 196.033C26.7771 196.033 29.5415 195.295 31.5885 193.818C33.6565 192.319 34.6906 190.526 34.6906 188.436C34.6906 186.748 34.0997 185.334 32.9179 184.195C31.7362 183.034 29.9214 182.169 27.4735 181.599L19.37 179.7C14.9173 178.645 11.6464 177.009 9.55725 174.794C7.48919 172.557 6.45516 169.761 6.45516 166.405C6.45516 163.662 7.22541 161.235 8.7659 159.125C10.3275 157.014 12.4483 155.358 15.1284 154.155C17.8295 152.952 20.8894 152.351 24.308 152.351C29.1195 152.351 32.8968 153.406 35.6402 155.516C38.4047 157.626 40.3672 160.412 41.5279 163.873ZM74.8042 152.984L74.8042 159.315L49.6076 159.315L49.6076 152.984L74.8042 152.984ZM56.9513 141.335L64.4217 141.335L64.4217 187.677C64.4217 189.787 64.7276 191.37 65.3396 192.425C65.9727 193.459 66.7746 194.155 67.7453 194.514C68.7372 194.852 69.7817 195.02 70.8791 195.02C71.7021 195.02 72.3774 194.978 72.9049 194.894C73.4325 194.788 73.8546 194.704 74.1711 194.641L75.6905 201.351C75.184 201.541 74.4771 201.731 73.5697 201.921C72.6623 202.132 71.5122 202.238 70.1194 202.238C68.0091 202.238 65.941 201.784 63.9152 200.876C61.9104 199.969 60.2433 198.587 58.9138 196.73C57.6055 194.873 56.9513 192.53 56.9513 189.703L56.9513 141.335ZM89.7132 201.604L81.4832 201.604L105.287 136.777L113.39 136.777L137.194 201.604L128.964 201.604L109.592 147.033L109.086 147.033L89.7132 201.604ZM92.752 176.281L125.925 176.281L125.925 183.245L92.752 183.245L92.752 176.281ZM144.997 219.837C143.731 219.837 142.602 219.732 141.61 219.521C140.618 219.331 139.932 219.141 139.553 218.951L141.452 212.367C143.267 212.831 144.87 213 146.263 212.873C147.656 212.747 148.891 212.124 149.967 211.006C151.064 209.908 152.066 208.125 152.974 205.656L154.367 201.858L136.387 152.984L144.491 152.984L157.912 191.728L158.418 191.728L171.84 152.984L179.943 152.984L159.305 208.695C158.376 211.206 157.226 213.285 155.854 214.931C154.483 216.598 152.889 217.832 151.075 218.634C149.281 219.436 147.255 219.837 144.997 219.837ZM200.819 201.604L186.005 152.984L193.855 152.984L204.364 190.209L204.871 190.209L215.253 152.984L223.23 152.984L233.486 190.082L233.992 190.082L244.502 152.984L252.352 152.984L237.538 201.604L230.194 201.604L219.558 164.253L218.798 164.253L208.163 201.604L200.819 201.604ZM317.939 169.191C317.939 176.028 316.704 181.937 314.235 186.917C311.766 191.897 308.379 195.738 304.075 198.439C299.77 201.14 294.853 202.491 289.324 202.491C283.795 202.491 278.878 201.14 274.573 198.439C270.268 195.738 266.881 191.897 264.412 186.917C261.943 181.937 260.708 176.028 260.708 169.191C260.708 162.353 261.943 156.445 264.412 151.464C266.881 146.484 270.268 142.644 274.573 139.942C278.878 137.241 283.795 135.891 289.324 135.891C294.853 135.891 299.77 137.241 304.075 139.942C308.379 142.644 311.766 146.484 314.235 151.464C316.704 156.445 317.939 162.353 317.939 169.191ZM310.342 169.191C310.342 163.577 309.403 158.84 307.525 154.978C305.668 151.116 303.146 148.194 299.959 146.21C296.794 144.226 293.249 143.234 289.324 143.234C285.399 143.234 281.843 144.226 278.656 146.21C275.491 148.194 272.969 151.116 271.091 154.978C269.234 158.84 268.305 163.577 268.305 169.191C268.305 174.804 269.234 179.542 271.091 183.403C272.969 187.265 275.491 190.188 278.656 192.172C281.843 194.155 285.399 195.147 289.324 195.147C293.249 195.147 296.794 194.155 299.959 192.172C303.146 190.188 305.668 187.265 307.525 183.403C309.403 179.542 310.342 174.804 310.342 169.191ZM331.139 201.604L331.139 136.777L338.989 136.777L338.989 168.938L339.749 168.938L368.87 136.777L379.126 136.777L351.904 166.025L379.126 201.604L369.63 201.604L347.092 171.47L338.989 180.586L338.989 201.604L331.139 201.604ZM405.091 202.617C400.406 202.617 396.365 201.583 392.967 199.515C389.591 197.426 386.984 194.514 385.148 190.779C383.334 187.023 382.426 182.654 382.426 177.674C382.426 172.694 383.334 168.304 385.148 164.506C386.984 160.686 389.538 157.711 392.809 155.579C396.101 153.427 399.941 152.351 404.331 152.351C406.863 152.351 409.364 152.773 411.833 153.617C414.302 154.461 416.549 155.833 418.575 157.732C420.601 159.61 422.215 162.1 423.418 165.202C424.621 168.304 425.223 172.124 425.223 176.661L425.223 179.827L387.744 179.827L387.744 173.369L417.626 173.369C417.626 170.626 417.077 168.178 415.98 166.025C414.903 163.873 413.363 162.174 411.358 160.929C409.374 159.684 407.032 159.061 404.331 159.061C401.355 159.061 398.781 159.8 396.607 161.277C394.455 162.733 392.798 164.633 391.638 166.975C390.477 169.317 389.897 171.829 389.897 174.509L389.897 178.814C389.897 182.485 390.53 185.598 391.796 188.152C393.083 190.684 394.866 192.615 397.145 193.944C399.424 195.253 402.073 195.907 405.091 195.907C407.053 195.907 408.826 195.632 410.408 195.084C412.012 194.514 413.394 193.67 414.555 192.551C415.716 191.412 416.613 189.998 417.246 188.31L424.463 190.336C423.703 192.784 422.426 194.936 420.633 196.793C418.839 198.629 416.623 200.064 413.985 201.098C411.347 202.111 408.383 202.617 405.091 202.617Z"/>
</mask>
<path d="M41.5279 163.873L42.1977 166.24L44.6802 165.537L43.8599 163.091L41.5279 163.873ZM34.8172 165.772L32.5159 166.64L33.3135 168.754L35.487 168.139L34.8172 165.772ZM32.9496 162.512L30.9772 163.981L30.9935 164.003L31.0102 164.025L32.9496 162.512ZM29.6576 159.853L30.7576 157.653L30.7576 157.653L29.6576 159.853ZM16.8693 160.866L18.2637 162.892L18.2683 162.889L16.8693 160.866ZM15.9514 170.425L14.4185 172.349L14.4185 172.349L15.9514 170.425ZM22.2822 173.116L21.6856 175.502L21.6955 175.505L22.2822 173.116ZM29.4993 174.888L28.9126 177.277L28.9192 177.279L29.4993 174.888ZM39.2171 179.732L37.4609 181.454L37.4693 181.462L39.2171 179.732ZM40.0085 195.527L38.0226 194.076L38.018 194.082L38.0135 194.088L40.0085 195.527ZM11.1083 199.389L12.4665 197.338L12.4665 197.338L11.1083 199.389ZM4.93576 189.956L4.33921 187.57L2.04375 188.143L2.52821 190.459L4.93576 189.956ZM12.0263 188.183L14.4079 187.569L13.7979 185.205L11.4297 185.797L12.0263 188.183ZM15.8564 194.071L14.4504 196.089L14.461 196.096L15.8564 194.071ZM31.5885 193.818L33.0278 195.812L33.0316 195.809L31.5885 193.818ZM32.9179 184.195L31.1944 185.95L31.2025 185.958L31.2106 185.965L32.9179 184.195ZM27.4735 181.599L26.9122 183.994L26.9158 183.995L27.4735 181.599ZM19.37 179.7L18.8029 182.093L18.8087 182.095L19.37 179.7ZM9.55725 174.794L7.7512 176.463L7.75937 176.472L7.76763 176.481L9.55725 174.794ZM8.7659 159.125L6.78873 157.662L6.78398 157.668L6.77927 157.675L8.7659 159.125ZM15.1284 154.155L14.1278 151.908L14.1212 151.911L15.1284 154.155ZM35.6402 155.516L34.1405 157.466L34.1477 157.471L35.6402 155.516ZM41.5279 163.873L40.858 161.506L34.1474 163.405L34.8172 165.772L35.487 168.139L42.1977 166.24L41.5279 163.873ZM34.8172 165.772L37.1185 164.904C36.5992 163.528 35.8465 162.226 34.889 160.999L32.9496 162.512L31.0102 164.025C31.6988 164.907 32.1911 165.78 32.5159 166.64L34.8172 165.772ZM32.9496 162.512L34.922 161.042C33.8562 159.612 32.4391 158.494 30.7576 157.653L29.6576 159.853L28.5576 162.053C29.6616 162.605 30.4392 163.259 30.9772 163.981L32.9496 162.512ZM29.6576 159.853L30.7576 157.653C28.9155 156.732 26.7213 156.349 24.308 156.349L24.308 158.808L24.308 161.268C26.2419 161.268 27.6141 161.581 28.5576 162.053L29.6576 159.853ZM24.308 158.808L24.308 156.349C20.9507 156.349 17.9526 157.126 15.4704 158.843L16.8693 160.866L18.2683 162.889C19.7534 161.862 21.7144 161.268 24.308 161.268L24.308 158.808ZM16.8693 160.866L15.475 158.839C12.9541 160.574 11.4659 163.003 11.4659 166.025L13.9255 166.025L16.3852 166.025C16.3852 164.869 16.8595 163.858 18.2637 162.892L16.8693 160.866ZM13.9255 166.025L11.4659 166.025C11.4659 168.566 12.4334 170.767 14.4185 172.349L15.9514 170.425L17.4842 168.502C16.7682 167.931 16.3852 167.198 16.3852 166.025L13.9255 166.025ZM15.9514 170.425L14.4185 172.349C16.1744 173.748 18.684 174.752 21.6856 175.502L22.2822 173.116L22.8787 170.73C20.1404 170.045 18.4295 169.255 17.4842 168.502L15.9514 170.425ZM22.2822 173.116L21.6955 175.505L28.9126 177.277L29.4993 174.888L30.086 172.5L22.8689 170.727L22.2822 173.116ZM29.4993 174.888L28.9192 177.279C33.0166 178.273 35.7687 179.728 37.4609 181.454L39.2171 179.732L40.9733 178.009C38.4027 175.388 34.6763 173.614 30.0795 172.498L29.4993 174.888ZM39.2171 179.732L37.4693 181.462C39.0875 183.096 39.9545 185.221 39.9545 188.057L42.4142 188.057L44.8738 188.057C44.8738 184.097 43.6094 180.672 40.9649 178.001L39.2171 179.732ZM42.4142 188.057L39.9545 188.057C39.9545 190.334 39.3104 192.313 38.0226 194.076L40.0085 195.527L41.9944 196.978C43.9141 194.351 44.8738 191.35 44.8738 188.057L42.4142 188.057ZM40.0085 195.527L38.0135 194.088C36.722 195.879 34.8747 197.354 32.3621 198.471L33.3611 200.718L34.3601 202.966C37.5453 201.55 40.1296 199.564 42.0035 196.966L40.0085 195.527ZM33.3611 200.718L32.3621 198.471C29.887 199.571 26.9263 200.158 23.4217 200.158L23.4217 202.617L23.4217 205.077C27.4719 205.077 31.1375 204.398 34.3601 202.966L33.3611 200.718ZM23.4217 202.617L23.4217 200.158C18.8148 200.158 15.2168 199.16 12.4665 197.338L11.1083 199.389L9.75008 201.439C13.4994 203.923 18.1104 205.077 23.4217 205.077L23.4217 202.617ZM11.1083 199.389L12.4665 197.338C9.80443 195.575 8.08824 193.013 7.34331 189.452L4.93576 189.956L2.52821 190.459C3.51371 195.171 5.91254 198.898 9.75008 201.439L11.1083 199.389ZM4.93576 189.956L5.53232 192.342L12.6228 190.569L12.0263 188.183L11.4297 185.797L4.33921 187.57L4.93576 189.956ZM12.0263 188.183L9.64464 188.798C10.439 191.876 12.0053 194.386 14.4505 196.089L15.8564 194.071L17.2624 192.053C15.9512 191.139 14.9642 189.724 14.4079 187.569L12.0263 188.183ZM15.8564 194.071L14.461 196.096C16.8855 197.767 19.8973 198.493 23.2951 198.493L23.2951 196.033L23.2951 193.574C20.5731 193.574 18.6258 192.992 17.2518 192.045L15.8564 194.071ZM23.2951 196.033L23.2951 198.493C27.1023 198.493 30.4295 197.687 33.0278 195.812L31.5885 193.818L30.1491 191.823C28.6535 192.902 26.4518 193.574 23.2951 193.574L23.2951 196.033ZM31.5885 193.818L33.0316 195.809C35.5785 193.964 37.1502 191.492 37.1502 188.436L34.6906 188.436L32.2309 188.436C32.2309 189.559 31.7346 190.674 30.1454 191.826L31.5885 193.818ZM34.6906 188.436L37.1502 188.436C37.1502 186.102 36.3029 184.042 34.6253 182.424L32.9179 184.195L31.2106 185.965C31.8965 186.627 32.2309 187.395 32.2309 188.436L34.6906 188.436ZM32.9179 184.195L34.6415 182.44C33.0116 180.839 30.7082 179.827 28.0311 179.204L27.4735 181.599L26.9158 183.995C29.1345 184.511 30.4608 185.229 31.1944 185.95L32.9179 184.195ZM27.4735 181.599L28.0347 179.204L19.9313 177.305L19.37 179.7L18.8087 182.095L26.9122 183.994L27.4735 181.599ZM19.37 179.7L19.9372 177.307C15.7321 176.31 12.9794 174.838 11.3469 173.106L9.55725 174.794L7.76763 176.481C10.3134 179.181 14.1026 180.979 18.8029 182.093L19.37 179.7ZM9.55725 174.794L11.3633 173.124C9.75952 171.389 8.91482 169.21 8.91482 166.405L6.45516 166.405L3.9955 166.405C3.9955 170.311 5.21886 173.724 7.7512 176.463L9.55725 174.794ZM6.45516 166.405L8.91482 166.405C8.91482 164.155 9.5354 162.242 10.7525 160.575L8.7659 159.125L6.77927 157.675C4.91541 160.228 3.9955 163.168 3.9955 166.405L6.45516 166.405ZM8.7659 159.125L10.7431 160.588C12.0249 158.856 13.7937 157.45 16.1355 156.399L15.1284 154.155L14.1212 151.911C11.1029 153.266 8.63012 155.173 6.78873 157.662L8.7659 159.125ZM15.1284 154.155L16.129 156.402C18.4697 155.36 21.1807 154.81 24.308 154.81L24.308 152.351L24.308 149.891C20.5981 149.891 17.1893 150.545 14.1278 151.908L15.1284 154.155ZM24.308 152.351L24.308 154.81C28.7847 154.81 31.9669 155.794 34.1405 157.466L35.6402 155.516L37.1399 153.567C33.8268 151.018 29.4542 149.891 24.308 149.891L24.308 152.351ZM35.6402 155.516L34.1477 157.471C36.5014 159.268 38.1833 161.636 39.1958 164.655L41.5279 163.873L43.8599 163.091C42.5511 159.188 40.3079 155.985 37.1327 153.561L35.6402 155.516ZM74.8042 152.984L77.2638 152.984L77.2638 150.524L74.8042 150.524L74.8042 152.984ZM74.8042 159.315L74.8042 161.774L77.2638 161.774L77.2638 159.315L74.8042 159.315ZM49.6076 159.315L47.1479 159.315L47.1479 161.774L49.6076 161.774L49.6076 159.315ZM49.6076 152.984L49.6076 150.524L47.1479 150.524L47.1479 152.984L49.6076 152.984ZM56.9513 141.335L56.9513 138.876L54.4916 138.876L54.4916 141.335L56.9513 141.335ZM64.4217 141.335L66.8813 141.335L66.8813 138.876L64.4217 138.876L64.4217 141.335ZM65.3396 192.425L63.2119 193.659L63.2266 193.684L63.2419 193.709L65.3396 192.425ZM67.7453 194.514L66.8927 196.821L66.9225 196.832L66.9527 196.842L67.7453 194.514ZM72.9049 194.894L73.2935 197.323L73.3406 197.315L73.3873 197.306L72.9049 194.894ZM74.1711 194.641L76.57 194.097L76.0404 191.758L73.6887 192.229L74.1711 194.641ZM75.6905 201.351L76.5541 203.654L78.5633 202.901L78.0894 200.808L75.6905 201.351ZM73.5697 201.921L73.0658 199.514L73.0391 199.519L73.0125 199.525L73.5697 201.921ZM63.9152 200.876L62.9009 203.117L62.9097 203.121L63.9152 200.876ZM58.9138 196.73L56.9031 198.146L56.9085 198.154L56.9139 198.162L58.9138 196.73ZM74.8042 152.984L72.3445 152.984L72.3445 159.315L74.8042 159.315L77.2638 159.315L77.2638 152.984L74.8042 152.984ZM74.8042 159.315L74.8042 156.855L49.6076 156.855L49.6076 159.315L49.6076 161.774L74.8042 161.774L74.8042 159.315ZM49.6076 159.315L52.0672 159.315L52.0672 152.984L49.6076 152.984L47.1479 152.984L47.1479 159.315L49.6076 159.315ZM49.6076 152.984L49.6076 155.444L74.8042 155.444L74.8042 152.984L74.8042 150.524L49.6076 150.524L49.6076 152.984ZM56.9513 141.335L56.9513 143.795L64.4217 143.795L64.4217 141.335L64.4217 138.876L56.9513 138.876L56.9513 141.335ZM64.4217 141.335L61.962 141.335L61.962 187.677L64.4217 187.677L66.8813 187.677L66.8813 141.335L64.4217 141.335ZM64.4217 187.677L61.962 187.677C61.962 189.944 62.2766 192.046 63.2119 193.659L65.3396 192.425L67.4673 191.191C67.1787 190.693 66.8813 189.63 66.8813 187.677L64.4217 187.677ZM65.3396 192.425L63.2419 193.709C64.1118 195.13 65.3182 196.239 66.8927 196.821L67.7453 194.514L68.598 192.207C68.231 192.071 67.8336 191.788 67.4373 191.14L65.3396 192.425ZM67.7453 194.514L66.9527 196.842C68.2116 197.271 69.525 197.48 70.8791 197.48L70.8791 195.02L70.8791 192.561C70.0385 192.561 69.2627 192.432 68.538 192.186L67.7453 194.514ZM70.8791 195.02L70.8791 197.48C71.7707 197.48 72.5884 197.435 73.2935 197.323L72.9049 194.894L72.5163 192.465C72.1664 192.521 71.6335 192.561 70.8791 192.561L70.8791 195.02ZM72.9049 194.894L73.3873 197.306C73.9149 197.2 74.3369 197.116 74.6535 197.052L74.1711 194.641L73.6887 192.229C73.3722 192.292 72.9501 192.376 72.4226 192.482L72.9049 194.894ZM74.1711 194.641L71.7722 195.184L73.2916 201.894L75.6905 201.351L78.0894 200.808L76.57 194.097L74.1711 194.641ZM75.6905 201.351L74.8269 199.048C74.4912 199.174 73.924 199.334 73.0658 199.514L73.5697 201.921L74.0736 204.329C75.0302 204.128 75.8769 203.908 76.5541 203.654L75.6905 201.351ZM73.5697 201.921L73.0125 199.525C72.3537 199.679 71.4072 199.778 70.1194 199.778L70.1194 202.238L70.1194 204.697C71.6171 204.697 72.9708 204.586 74.1268 204.317L73.5697 201.921ZM70.1194 202.238L70.1194 199.778C68.3736 199.778 66.647 199.405 64.9207 198.632L63.9152 200.876L62.9097 203.121C65.2351 204.163 67.6447 204.697 70.1194 204.697L70.1194 202.238ZM63.9152 200.876L64.9294 198.636C63.3339 197.913 62.0015 196.817 60.9138 195.298L58.9138 196.73L56.9139 198.162C58.4851 200.356 60.4869 202.025 62.9009 203.117L63.9152 200.876ZM58.9138 196.73L60.9246 195.313C59.973 193.963 59.411 192.148 59.411 189.703L56.9513 189.703L54.4916 189.703C54.4916 192.912 55.2379 195.783 56.9031 198.146L58.9138 196.73ZM56.9513 189.703L59.411 189.703L59.411 141.335L56.9513 141.335L54.4916 141.335L54.4916 189.703L56.9513 189.703ZM89.7132 201.604L89.7132 204.064L91.4501 204.064L92.0312 202.427L89.7132 201.604ZM81.4832 201.604L79.1743 200.757L77.9598 204.064L81.4832 204.064L81.4832 201.604ZM105.287 136.777L105.287 134.317L103.57 134.317L102.978 135.929L105.287 136.777ZM113.39 136.777L115.699 135.929L115.108 134.317L113.39 134.317L113.39 136.777ZM137.194 201.604L137.194 204.064L140.718 204.064L139.503 200.757L137.194 201.604ZM128.964 201.604L126.646 202.427L127.227 204.064L128.964 204.064L128.964 201.604ZM109.592 147.033L111.91 146.21L111.329 144.573L109.592 144.573L109.592 147.033ZM109.086 147.033L109.086 144.573L107.349 144.573L106.768 146.21L109.086 147.033ZM92.752 176.281L92.752 173.822L90.2924 173.822L90.2924 176.281L92.752 176.281ZM125.925 176.281L128.385 176.281L128.385 173.822L125.925 173.822L125.925 176.281ZM125.925 183.245L125.925 185.705L128.385 185.705L128.385 183.245L125.925 183.245ZM92.752 183.245L90.2924 183.245L90.2924 185.705L92.752 185.705L92.752 183.245ZM89.7132 201.604L89.7132 199.145L81.4832 199.145L81.4832 201.604L81.4832 204.064L89.7132 204.064L89.7132 201.604ZM81.4832 201.604L83.7921 202.452L107.596 137.625L105.287 136.777L102.978 135.929L79.1743 200.757L81.4832 201.604ZM105.287 136.777L105.287 139.237L113.39 139.237L113.39 136.777L113.39 134.317L105.287 134.317L105.287 136.777ZM113.39 136.777L111.082 137.625L134.885 202.452L137.194 201.604L139.503 200.757L115.699 135.929L113.39 136.777ZM137.194 201.604L137.194 199.145L128.964 199.145L128.964 201.604L128.964 204.064L137.194 204.064L137.194 201.604ZM128.964 201.604L131.282 200.782L111.91 146.21L109.592 147.033L107.274 147.856L126.646 202.427L128.964 201.604ZM109.592 147.033L109.592 144.573L109.086 144.573L109.086 147.033L109.086 149.493L109.592 149.493L109.592 147.033ZM109.086 147.033L106.768 146.21L87.3953 200.782L89.7132 201.604L92.0312 202.427L111.403 147.856L109.086 147.033ZM92.752 176.281L92.752 178.741L125.925 178.741L125.925 176.281L125.925 173.822L92.752 173.822L92.752 176.281ZM125.925 176.281L123.466 176.281L123.466 183.245L125.925 183.245L128.385 183.245L128.385 176.281L125.925 176.281ZM125.925 183.245L125.925 180.785L92.752 180.785L92.752 183.245L92.752 185.705L125.925 185.705L125.925 183.245ZM92.752 183.245L95.2117 183.245L95.2117 176.281L92.752 176.281L90.2924 176.281L90.2924 183.245L92.752 183.245ZM141.61 219.521L142.122 217.115L142.097 217.11L142.073 217.105L141.61 219.521ZM139.553 218.951L137.189 218.269L136.622 220.236L138.453 221.151L139.553 218.951ZM141.452 212.367L142.061 209.984L139.75 209.393L139.088 211.685L141.452 212.367ZM146.263 212.873L146.041 210.424L146.041 210.424L146.263 212.873ZM149.967 211.006L148.227 209.267L148.211 209.283L148.194 209.3L149.967 211.006ZM152.974 205.656L155.283 206.505L155.283 206.503L152.974 205.656ZM154.367 201.858L156.676 202.704L156.987 201.856L156.675 201.009L154.367 201.858ZM136.387 152.984L136.387 150.524L132.861 150.524L134.079 153.833L136.387 152.984ZM144.491 152.984L146.815 152.179L146.242 150.524L144.491 150.524L144.491 152.984ZM157.912 191.728L155.588 192.534L156.161 194.188L157.912 194.188L157.912 191.728ZM158.418 191.728L158.418 194.188L160.169 194.188L160.743 192.534L158.418 191.728ZM171.84 152.984L171.84 150.524L170.089 150.524L169.516 152.179L171.84 152.984ZM179.943 152.984L182.25 153.838L183.477 150.524L179.943 150.524L179.943 152.984ZM159.305 208.695L156.998 207.841L156.998 207.842L159.305 208.695ZM155.854 214.931L153.965 213.356L153.96 213.362L153.955 213.368L155.854 214.931ZM151.075 218.634L150.081 216.385L150.071 216.389L151.075 218.634ZM144.997 219.837L144.997 217.378C143.862 217.378 142.91 217.283 142.122 217.115L141.61 219.521L141.098 221.926C142.294 222.181 143.599 222.297 144.997 222.297L144.997 219.837ZM141.61 219.521L142.073 217.105C141.617 217.018 141.267 216.937 141.008 216.865C140.731 216.788 140.637 216.743 140.653 216.751L139.553 218.951L138.453 221.151C139.167 221.508 140.154 221.746 141.147 221.936L141.61 219.521ZM139.553 218.951L141.916 219.633L143.815 213.049L141.452 212.367L139.088 211.685L137.189 218.269L139.553 218.951ZM141.452 212.367L140.842 214.75C142.842 215.261 144.737 215.482 146.486 215.323L146.263 212.873L146.041 210.424C145.004 210.518 143.691 210.401 142.061 209.984L141.452 212.367ZM146.263 212.873L146.486 215.323C148.534 215.137 150.301 214.206 151.739 212.711L149.967 211.006L148.194 209.3C147.48 210.043 146.778 210.357 146.041 210.424L146.263 212.873ZM149.967 211.006L151.706 212.745C153.173 211.278 154.326 209.107 155.283 206.505L152.974 205.656L150.665 204.808C149.807 207.144 148.956 208.538 148.227 209.267L149.967 211.006ZM152.974 205.656L155.283 206.503L156.676 202.704L154.367 201.858L152.057 201.011L150.665 204.809L152.974 205.656ZM154.367 201.858L156.675 201.009L138.696 152.135L136.387 152.984L134.079 153.833L152.058 202.707L154.367 201.858ZM136.387 152.984L136.387 155.444L144.491 155.444L144.491 152.984L144.491 150.524L136.387 150.524L136.387 152.984ZM144.491 152.984L142.166 153.789L155.588 192.534L157.912 191.728L160.236 190.923L146.815 152.179L144.491 152.984ZM157.912 191.728L157.912 194.188L158.418 194.188L158.418 191.728L158.418 189.269L157.912 189.269L157.912 191.728ZM158.418 191.728L160.743 192.534L174.164 153.789L171.84 152.984L169.516 152.179L156.094 190.923L158.418 191.728ZM171.84 152.984L171.84 155.444L179.943 155.444L179.943 152.984L179.943 150.524L171.84 150.524L171.84 152.984ZM179.943 152.984L177.637 152.129L156.998 207.841L159.305 208.695L161.611 209.549L182.25 153.838L179.943 152.984ZM159.305 208.695L156.998 207.842C156.143 210.154 155.119 211.971 153.965 213.356L155.854 214.931L157.744 216.505C159.333 214.598 160.609 212.259 161.612 209.548L159.305 208.695ZM155.854 214.931L153.955 213.368C152.805 214.765 151.514 215.751 150.081 216.385L151.075 218.634L152.069 220.884C154.265 219.914 156.16 218.431 157.754 216.494L155.854 214.931ZM151.075 218.634L150.071 216.389C148.637 217.03 146.96 217.378 144.997 217.378L144.997 219.837L144.997 222.297C147.55 222.297 149.925 221.843 152.078 220.88L151.075 218.634ZM200.819 201.604L198.466 202.321L198.997 204.064L200.819 204.064L200.819 201.604ZM186.005 152.984L186.005 150.524L182.684 150.524L183.652 153.701L186.005 152.984ZM193.855 152.984L196.222 152.316L195.716 150.524L193.855 150.524L193.855 152.984ZM204.364 190.209L201.997 190.877L202.503 192.669L204.364 192.669L204.364 190.209ZM204.871 190.209L204.871 192.669L206.738 192.669L207.24 190.87L204.871 190.209ZM215.253 152.984L215.253 150.524L213.386 150.524L212.884 152.323L215.253 152.984ZM223.23 152.984L225.601 152.328L225.102 150.524L223.23 150.524L223.23 152.984ZM233.486 190.082L231.115 190.738L231.614 192.542L233.486 192.542L233.486 190.082ZM233.992 190.082L233.992 192.542L235.852 192.542L236.359 190.753L233.992 190.082ZM244.502 152.984L244.502 150.524L242.642 150.524L242.135 152.313L244.502 152.984ZM252.352 152.984L254.705 153.701L255.673 150.524L252.352 150.524L252.352 152.984ZM237.538 201.604L237.538 204.064L239.36 204.064L239.891 202.321L237.538 201.604ZM230.194 201.604L227.828 202.278L228.337 204.064L230.194 204.064L230.194 201.604ZM219.558 164.253L221.924 163.579L221.415 161.793L219.558 161.793L219.558 164.253ZM218.798 164.253L218.798 161.793L216.941 161.793L216.433 163.579L218.798 164.253ZM208.163 201.604L208.163 204.064L210.02 204.064L210.528 202.278L208.163 201.604ZM200.819 201.604L203.172 200.888L188.358 152.267L186.005 152.984L183.652 153.701L198.466 202.321L200.819 201.604ZM186.005 152.984L186.005 155.444L193.855 155.444L193.855 152.984L193.855 150.524L186.005 150.524L186.005 152.984ZM193.855 152.984L191.488 153.652L201.997 190.877L204.364 190.209L206.731 189.541L196.222 152.316L193.855 152.984ZM204.364 190.209L204.364 192.669L204.871 192.669L204.871 190.209L204.871 187.749L204.364 187.749L204.364 190.209ZM204.871 190.209L207.24 190.87L217.622 153.645L215.253 152.984L212.884 152.323L202.501 189.548L204.871 190.209ZM215.253 152.984L215.253 155.444L223.23 155.444L223.23 152.984L223.23 150.524L215.253 150.524L215.253 152.984ZM223.23 152.984L220.859 153.639L231.115 190.738L233.486 190.082L235.857 189.427L225.601 152.328L223.23 152.984ZM233.486 190.082L233.486 192.542L233.992 192.542L233.992 190.082L233.992 187.623L233.486 187.623L233.486 190.082ZM233.992 190.082L236.359 190.753L246.868 153.654L244.502 152.984L242.135 152.313L231.626 189.412L233.992 190.082ZM244.502 152.984L244.502 155.444L252.352 155.444L252.352 152.984L252.352 150.524L244.502 150.524L244.502 152.984ZM252.352 152.984L249.999 152.267L235.185 200.888L237.538 201.604L239.891 202.321L254.705 153.701L252.352 152.984ZM237.538 201.604L237.538 199.145L230.194 199.145L230.194 201.604L230.194 204.064L237.538 204.064L237.538 201.604ZM230.194 201.604L232.56 200.931L221.924 163.579L219.558 164.253L217.193 164.926L227.828 202.278L230.194 201.604ZM219.558 164.253L219.558 161.793L218.798 161.793L218.798 164.253L218.798 166.712L219.558 166.712L219.558 164.253ZM218.798 164.253L216.433 163.579L205.797 200.931L208.163 201.604L210.528 202.278L221.164 164.926L218.798 164.253ZM208.163 201.604L208.163 199.145L200.819 199.145L200.819 201.604L200.819 204.064L208.163 204.064L208.163 201.604ZM314.235 186.917L312.032 185.824L312.032 185.824L314.235 186.917ZM304.075 198.439L305.382 200.523L305.382 200.523L304.075 198.439ZM274.573 198.439L273.266 200.523L273.266 200.523L274.573 198.439ZM264.412 186.917L266.616 185.824L266.616 185.824L264.412 186.917ZM304.075 139.942L305.382 137.859L305.382 137.859L304.075 139.942ZM314.235 151.464L312.032 152.557L312.032 152.557L314.235 151.464ZM307.525 154.978L305.308 156.044L305.313 156.054L307.525 154.978ZM299.959 146.21L298.653 148.294L298.66 148.298L299.959 146.21ZM278.656 146.21L277.356 144.122L277.35 144.126L278.656 146.21ZM271.091 154.978L268.879 153.902L268.874 153.912L271.091 154.978ZM271.091 183.403L268.874 184.469L268.879 184.479L271.091 183.403ZM278.656 192.172L277.35 194.256L277.356 194.26L278.656 192.172ZM299.959 192.172L298.66 190.083L298.653 190.087L299.959 192.172ZM307.525 183.403L305.313 182.328L305.308 182.337L307.525 183.403ZM317.939 169.191L315.479 169.191C315.479 175.735 314.298 181.253 312.032 185.824L314.235 186.917L316.439 188.01C319.111 182.621 320.399 176.321 320.399 169.191L317.939 169.191ZM314.235 186.917L312.032 185.824C309.745 190.437 306.652 193.918 302.767 196.356L304.075 198.439L305.382 200.523C310.107 197.558 313.788 193.357 316.439 188.01L314.235 186.917ZM304.075 198.439L302.767 196.356C298.888 198.789 294.432 200.031 289.324 200.031L289.324 202.491L289.324 204.95C295.273 204.95 300.651 203.491 305.382 200.523L304.075 198.439ZM289.324 202.491L289.324 200.031C284.215 200.031 279.759 198.789 275.88 196.356L274.573 198.439L273.266 200.523C277.997 203.491 283.375 204.95 289.324 204.95L289.324 202.491ZM274.573 198.439L275.88 196.356C271.995 193.918 268.903 190.437 266.616 185.824L264.412 186.917L262.208 188.01C264.859 193.357 268.541 197.558 273.266 200.523L274.573 198.439ZM264.412 186.917L266.616 185.824C264.349 181.253 263.168 175.735 263.168 169.191L260.708 169.191L258.249 169.191C258.249 176.321 259.537 182.621 262.208 188.01L264.412 186.917ZM260.708 169.191L263.168 169.191C263.168 162.647 264.349 157.128 266.616 152.557L264.412 151.464L262.208 150.372C259.537 155.761 258.249 162.06 258.249 169.191L260.708 169.191ZM264.412 151.464L266.616 152.557C268.903 147.944 271.995 144.463 275.88 142.026L274.573 139.942L273.266 137.859C268.541 140.824 264.859 145.024 262.208 150.372L264.412 151.464ZM274.573 139.942L275.88 142.026C279.759 139.592 284.215 138.35 289.324 138.35L289.324 135.891L289.324 133.431C283.375 133.431 277.997 134.89 273.266 137.859L274.573 139.942ZM289.324 135.891L289.324 138.35C294.432 138.35 298.888 139.592 302.767 142.026L304.075 139.942L305.382 137.859C300.651 134.89 295.273 133.431 289.324 133.431L289.324 135.891ZM304.075 139.942L302.767 142.026C306.652 144.463 309.745 147.944 312.032 152.557L314.235 151.464L316.439 150.372C313.788 145.024 310.107 140.824 305.382 137.859L304.075 139.942ZM314.235 151.464L312.032 152.557C314.298 157.128 315.479 162.647 315.479 169.191L317.939 169.191L320.399 169.191C320.399 162.06 319.111 155.761 316.439 150.372L314.235 151.464ZM310.342 169.191L312.802 169.191C312.802 163.315 311.82 158.186 309.737 153.902L307.525 154.978L305.313 156.054C306.986 159.494 307.882 163.84 307.882 169.191L310.342 169.191ZM307.525 154.978L309.741 153.912C307.711 149.691 304.896 146.386 301.259 144.122L299.959 146.21L298.66 148.298C301.396 150.001 303.624 152.542 305.308 156.044L307.525 154.978ZM299.959 146.21L301.266 144.126C297.688 141.884 293.686 140.775 289.324 140.775L289.324 143.234L289.324 145.694C292.811 145.694 295.9 146.569 298.653 148.294L299.959 146.21ZM289.324 143.234L289.324 140.775C284.961 140.775 280.951 141.884 277.356 144.122L278.656 146.21L279.956 148.298C282.734 146.569 285.836 145.694 289.324 145.694L289.324 143.234ZM278.656 146.21L277.35 144.126C273.739 146.389 270.928 149.689 268.879 153.902L271.091 154.978L273.303 156.054C275.01 152.543 277.243 149.998 279.962 148.294L278.656 146.21ZM271.091 154.978L268.874 153.912C266.816 158.193 265.846 163.318 265.846 169.191L268.305 169.191L270.765 169.191C270.765 163.837 271.652 159.487 273.308 156.044L271.091 154.978ZM268.305 169.191L265.846 169.191C265.846 175.063 266.816 180.189 268.874 184.469L271.091 183.403L273.308 182.337C271.652 178.895 270.765 174.545 270.765 169.191L268.305 169.191ZM271.091 183.403L268.879 184.479C270.928 188.692 273.739 191.993 277.35 194.256L278.656 192.172L279.962 190.087C277.243 188.383 275.01 185.838 273.303 182.328L271.091 183.403ZM278.656 192.172L277.356 194.26C280.951 196.498 284.961 197.607 289.324 197.607L289.324 195.147L289.324 192.687C285.836 192.687 282.734 191.813 279.956 190.083L278.656 192.172ZM289.324 195.147L289.324 197.607C293.686 197.607 297.688 196.498 301.266 194.256L299.959 192.172L298.653 190.087C295.9 191.813 292.811 192.687 289.324 192.687L289.324 195.147ZM299.959 192.172L301.259 194.26C304.896 191.996 307.711 188.691 309.741 184.469L307.525 183.403L305.308 182.337C303.624 185.84 301.396 188.38 298.66 190.083L299.959 192.172ZM307.525 183.403L309.737 184.479C311.82 180.196 312.802 175.067 312.802 169.191L310.342 169.191L307.882 169.191C307.882 174.541 306.986 178.888 305.313 182.328L307.525 183.403ZM331.139 201.604L328.679 201.604L328.679 204.064L331.139 204.064L331.139 201.604ZM331.139 136.777L331.139 134.317L328.679 134.317L328.679 136.777L331.139 136.777ZM338.989 136.777L341.449 136.777L341.449 134.317L338.989 134.317L338.989 136.777ZM338.989 168.938L336.529 168.938L336.529 171.397L338.989 171.397L338.989 168.938ZM339.749 168.938L339.749 171.397L340.84 171.397L341.572 170.588L339.749 168.938ZM368.87 136.777L368.87 134.317L367.779 134.317L367.047 135.126L368.87 136.777ZM379.126 136.777L380.927 138.453L384.776 134.317L379.126 134.317L379.126 136.777ZM351.904 166.025L350.103 164.35L348.688 165.87L349.95 167.52L351.904 166.025ZM379.126 201.604L379.126 204.064L384.105 204.064L381.08 200.11L379.126 201.604ZM369.63 201.604L367.66 203.078L368.398 204.064L369.63 204.064L369.63 201.604ZM347.092 171.47L349.062 169.997L347.257 167.583L345.254 169.836L347.092 171.47ZM338.989 180.586L337.151 178.952L336.529 179.651L336.529 180.586L338.989 180.586ZM338.989 201.604L338.989 204.064L341.449 204.064L341.449 201.604L338.989 201.604ZM331.139 201.604L333.598 201.604L333.598 136.777L331.139 136.777L328.679 136.777L328.679 201.604L331.139 201.604ZM331.139 136.777L331.139 139.237L338.989 139.237L338.989 136.777L338.989 134.317L331.139 134.317L331.139 136.777ZM338.989 136.777L336.529 136.777L336.529 168.938L338.989 168.938L341.449 168.938L341.449 136.777L338.989 136.777ZM338.989 168.938L338.989 171.397L339.749 171.397L339.749 168.938L339.749 166.478L338.989 166.478L338.989 168.938ZM339.749 168.938L341.572 170.588L370.694 138.428L368.87 136.777L367.047 135.126L337.925 167.287L339.749 168.938ZM368.87 136.777L368.87 139.237L379.126 139.237L379.126 136.777L379.126 134.317L368.87 134.317L368.87 136.777ZM379.126 136.777L377.326 135.101L350.103 164.35L351.904 166.025L353.704 167.701L380.927 138.453L379.126 136.777ZM351.904 166.025L349.95 167.52L377.173 203.099L379.126 201.604L381.08 200.11L353.857 164.531L351.904 166.025ZM379.126 201.604L379.126 199.145L369.63 199.145L369.63 201.604L369.63 204.064L379.126 204.064L379.126 201.604ZM369.63 201.604L371.6 200.131L349.062 169.997L347.092 171.47L345.123 172.943L367.66 203.078L369.63 201.604ZM347.092 171.47L345.254 169.836L337.151 178.952L338.989 180.586L340.827 182.22L348.931 173.104L347.092 171.47ZM338.989 180.586L336.529 180.586L336.529 201.604L338.989 201.604L341.449 201.604L341.449 180.586L338.989 180.586ZM338.989 201.604L338.989 199.145L331.139 199.145L331.139 201.604L331.139 204.064L338.989 204.064L338.989 201.604ZM392.967 199.515L391.673 201.607L391.68 201.612L391.688 201.616L392.967 199.515ZM385.148 190.779L382.934 191.849L382.937 191.856L382.941 191.864L385.148 190.779ZM385.148 164.506L382.932 163.44L382.929 163.446L385.148 164.506ZM392.809 155.579L394.152 157.64L394.155 157.638L392.809 155.579ZM411.833 153.617L412.629 151.29L412.629 151.29L411.833 153.617ZM418.575 157.732L416.893 159.526L416.903 159.536L418.575 157.732ZM423.418 165.202L425.712 164.313L425.712 164.313L423.418 165.202ZM425.223 179.827L425.223 182.286L427.682 182.286L427.682 179.827L425.223 179.827ZM387.744 179.827L385.284 179.827L385.284 182.286L387.744 182.286L387.744 179.827ZM387.744 173.369L387.744 170.909L385.284 170.909L385.284 173.369L387.744 173.369ZM417.626 173.369L417.626 175.829L420.085 175.829L420.085 173.369L417.626 173.369ZM415.98 166.025L413.78 167.125L413.784 167.134L413.788 167.142L415.98 166.025ZM411.358 160.929L410.05 163.012L410.06 163.019L411.358 160.929ZM396.607 161.277L397.985 163.315L397.99 163.312L396.607 161.277ZM391.638 166.975L389.434 165.883L389.434 165.883L391.638 166.975ZM391.796 188.152L389.592 189.244L389.598 189.255L389.603 189.266L391.796 188.152ZM397.145 193.944L395.906 196.069L395.913 196.073L395.921 196.077L397.145 193.944ZM410.408 195.084L411.214 197.408L411.223 197.405L411.232 197.401L410.408 195.084ZM414.555 192.551L416.262 194.323L416.27 194.315L416.278 194.307L414.555 192.551ZM417.246 188.31L417.91 185.942L415.736 185.331L414.943 187.446L417.246 188.31ZM424.463 190.336L426.812 191.065L427.561 188.651L425.128 187.968L424.463 190.336ZM420.633 196.793L422.392 198.512L422.402 198.502L420.633 196.793ZM413.985 201.098L414.867 203.394L414.875 203.391L414.883 203.388L413.985 201.098ZM405.091 202.617L405.091 200.158C400.776 200.158 397.194 199.209 394.246 197.414L392.967 199.515L391.688 201.616C395.535 203.958 400.036 205.077 405.091 205.077L405.091 202.617ZM392.967 199.515L394.261 197.424C391.297 195.59 388.998 193.035 387.356 189.694L385.148 190.779L382.941 191.864C384.97 195.993 387.884 199.263 391.673 201.607L392.967 199.515ZM385.148 190.779L387.363 189.709C385.738 186.345 384.886 182.355 384.886 177.674L382.426 177.674L379.967 177.674C379.967 182.954 380.929 187.7 382.934 191.849L385.148 190.779ZM382.426 177.674L384.886 177.674C384.886 172.994 385.738 168.978 387.368 165.566L385.148 164.506L382.929 163.446C380.93 167.63 379.967 172.393 379.967 177.674L382.426 177.674ZM385.148 164.506L387.365 165.572C389.024 162.121 391.29 159.505 394.152 157.64L392.809 155.579L391.466 153.519C387.786 155.917 384.945 159.251 382.932 163.44L385.148 164.506ZM392.809 155.579L394.155 157.638C397.001 155.777 400.362 154.81 404.331 154.81L404.331 152.351L404.331 149.891C399.521 149.891 395.2 151.077 391.463 153.521L392.809 155.579ZM404.331 152.351L404.331 154.81C406.584 154.81 408.816 155.185 411.037 155.944L411.833 153.617L412.629 151.29C409.911 150.361 407.142 149.891 404.331 149.891L404.331 152.351ZM411.833 153.617L411.037 155.944C413.155 156.668 415.105 157.85 416.893 159.526L418.575 157.732L420.257 155.938C417.994 153.815 415.448 152.254 412.629 151.29L411.833 153.617ZM418.575 157.732L416.903 159.536C418.605 161.113 420.03 163.267 421.125 166.092L423.418 165.202L425.712 164.313C424.401 160.933 422.597 158.107 420.247 155.928L418.575 157.732ZM423.418 165.202L421.125 166.092C422.186 168.827 422.763 172.325 422.763 176.661L425.223 176.661L427.682 176.661C427.682 171.923 427.056 167.781 425.712 164.313L423.418 165.202ZM425.223 176.661L422.763 176.661L422.763 179.827L425.223 179.827L427.682 179.827L427.682 176.661L425.223 176.661ZM425.223 179.827L425.223 177.367L387.744 177.367L387.744 179.827L387.744 182.286L425.223 182.286L425.223 179.827ZM387.744 179.827L390.204 179.827L390.204 173.369L387.744 173.369L385.284 173.369L385.284 179.827L387.744 179.827ZM387.744 173.369L387.744 175.829L417.626 175.829L417.626 173.369L417.626 170.909L387.744 170.909L387.744 173.369ZM417.626 173.369L420.085 173.369C420.085 170.29 419.467 167.451 418.171 164.908L415.98 166.025L413.788 167.142C414.687 168.905 415.166 170.961 415.166 173.369L417.626 173.369ZM415.98 166.025L418.18 164.925C416.904 162.374 415.055 160.33 412.656 158.84L411.358 160.929L410.06 163.019C411.671 164.019 412.903 165.371 413.78 167.125L415.98 166.025ZM411.358 160.929L412.666 158.846C410.233 157.319 407.422 156.602 404.331 156.602L404.331 159.061L404.331 161.521C406.642 161.521 408.516 162.049 410.05 163.012L411.358 160.929ZM404.331 159.061L404.331 156.602C400.93 156.602 397.859 157.453 395.225 159.243L396.607 161.277L397.99 163.312C399.703 162.147 401.781 161.521 404.331 161.521L404.331 159.061ZM396.607 161.277L395.229 159.24C392.722 160.936 390.782 163.162 389.434 165.883L391.638 166.975L393.842 168.067C394.814 166.103 396.188 164.531 397.985 163.315L396.607 161.277ZM391.638 166.975L389.434 165.883C388.1 168.574 387.437 171.46 387.437 174.509L389.897 174.509L392.356 174.509C392.356 172.198 392.853 170.061 393.842 168.067L391.638 166.975ZM389.897 174.509L387.437 174.509L387.437 178.814L389.897 178.814L392.356 178.814L392.356 174.509L389.897 174.509ZM389.897 178.814L387.437 178.814C387.437 182.759 388.116 186.268 389.592 189.244L391.796 188.152L393.999 187.059C392.943 184.928 392.356 182.212 392.356 178.814L389.897 178.814ZM391.796 188.152L389.603 189.266C391.087 192.186 393.187 194.483 395.906 196.069L397.145 193.944L398.385 191.82C396.545 190.747 395.079 189.182 393.988 187.037L391.796 188.152ZM397.145 193.944L395.921 196.077C398.625 197.63 401.708 198.366 405.091 198.366L405.091 195.907L405.091 193.447C402.438 193.447 400.224 192.875 398.37 191.811L397.145 193.944ZM405.091 195.907L405.091 198.366C407.281 198.366 409.332 198.06 411.214 197.408L410.408 195.084L409.603 192.76C408.319 193.205 406.825 193.447 405.091 193.447L405.091 195.907ZM410.408 195.084L411.232 197.401C413.147 196.721 414.835 195.698 416.262 194.323L414.555 192.551L412.848 190.78C411.954 191.642 410.878 192.307 409.585 192.766L410.408 195.084ZM414.555 192.551L416.278 194.307C417.722 192.89 418.803 191.161 419.549 189.173L417.246 188.31L414.943 187.446C414.422 188.835 413.71 189.934 412.832 190.796L414.555 192.551ZM417.246 188.31L416.581 190.678L423.798 192.704L424.463 190.336L425.128 187.968L417.91 185.942L417.246 188.31ZM424.463 190.336L422.114 189.607C421.469 191.684 420.392 193.502 418.864 195.084L420.633 196.793L422.402 198.502C424.461 196.37 425.937 193.883 426.812 191.065L424.463 190.336ZM420.633 196.793L418.873 195.074C417.347 196.636 415.435 197.888 413.088 198.808L413.985 201.098L414.883 203.388C417.811 202.24 420.331 200.622 422.392 198.512L420.633 196.793ZM413.985 201.098L413.104 198.802C410.789 199.69 408.13 200.158 405.091 200.158L405.091 202.617L405.091 205.077C408.635 205.077 411.905 204.531 414.867 203.394L413.985 201.098Z" fill="url(#paint0_linear_601_692)" mask="url(#path-4-outside-1_601_692)"/>
<path d="M102.731 234.585L100.243 249.569L98.4872 249.569L92.2827 237.804L92.1363 237.804L90.1755 249.569L88.3609 249.569L90.8486 234.585L92.6046 234.585L98.8384 246.379L98.9847 246.379L100.946 234.585L102.731 234.585ZM108.279 249.804C107.245 249.804 106.379 249.557 105.681 249.065C104.984 248.572 104.491 247.882 104.203 246.994C103.92 246.106 103.874 245.072 104.064 243.892C104.25 242.741 104.618 241.738 105.169 240.885C105.725 240.026 106.415 239.363 107.24 238.894C108.069 238.421 108.981 238.185 109.976 238.185C111.01 238.185 111.874 238.433 112.566 238.931C113.264 239.424 113.756 240.116 114.044 241.009C114.332 241.897 114.381 242.936 114.191 244.126C114.005 245.267 113.632 246.265 113.071 247.118C112.515 247.967 111.825 248.628 111.001 249.101C110.181 249.569 109.274 249.804 108.279 249.804ZM108.308 248.252C109.098 248.252 109.784 248.05 110.364 247.645C110.949 247.24 111.422 246.706 111.783 246.043C112.149 245.379 112.396 244.662 112.522 243.892C112.639 243.16 112.635 242.48 112.508 241.85C112.381 241.216 112.11 240.707 111.696 240.321C111.281 239.931 110.698 239.736 109.947 239.736C109.157 239.736 108.467 239.941 107.876 240.35C107.291 240.76 106.818 241.299 106.457 241.967C106.096 242.636 105.854 243.355 105.733 244.126C105.615 244.858 105.618 245.538 105.74 246.167C105.867 246.792 106.137 247.296 106.552 247.682C106.971 248.062 107.557 248.252 108.308 248.252ZM132.001 238.448C132.001 237.643 131.735 237.034 131.204 236.619C130.672 236.199 129.953 235.99 129.045 235.99C128.382 235.99 127.784 236.097 127.253 236.312C126.721 236.526 126.287 236.821 125.95 237.197C125.614 237.573 125.406 237.999 125.328 238.477C125.265 238.877 125.306 239.221 125.453 239.509C125.599 239.792 125.806 240.029 126.075 240.219C126.348 240.404 126.641 240.558 126.953 240.68C127.265 240.797 127.553 240.892 127.816 240.965L129.279 241.375C129.645 241.477 130.053 241.619 130.501 241.799C130.95 241.98 131.37 242.226 131.76 242.538C132.15 242.845 132.448 243.241 132.652 243.723C132.862 244.206 132.908 244.799 132.791 245.501C132.655 246.311 132.321 247.043 131.789 247.696C131.262 248.35 130.565 248.869 129.696 249.255C128.833 249.64 127.826 249.833 126.675 249.833C125.602 249.833 124.699 249.66 123.968 249.313C123.241 248.967 122.704 248.484 122.358 247.865C122.016 247.245 121.885 246.526 121.963 245.706L123.836 245.706C123.787 246.272 123.899 246.74 124.172 247.111C124.446 247.477 124.826 247.75 125.314 247.931C125.802 248.106 126.343 248.194 126.938 248.194C127.631 248.194 128.27 248.082 128.855 247.857C129.445 247.628 129.933 247.311 130.318 246.906C130.709 246.496 130.948 246.018 131.035 245.472C131.123 244.975 131.055 244.57 130.831 244.258C130.606 243.945 130.282 243.692 129.857 243.497C129.433 243.302 128.967 243.131 128.46 242.984L126.704 242.458C125.592 242.121 124.746 241.641 124.165 241.016C123.589 240.392 123.382 239.575 123.543 238.565C123.689 237.726 124.043 236.995 124.604 236.37C125.165 235.741 125.86 235.253 126.689 234.907C127.519 234.556 128.411 234.38 129.367 234.38C130.333 234.38 131.16 234.556 131.848 234.907C132.535 235.253 133.047 235.734 133.384 236.348C133.721 236.958 133.845 237.658 133.757 238.448L132.001 238.448ZM139.082 234.585L136.594 249.569L134.868 249.569L137.355 234.585L139.082 234.585ZM144.44 249.804C143.362 249.804 142.471 249.565 141.769 249.087C141.067 248.604 140.576 247.931 140.298 247.067C140.02 246.199 139.976 245.189 140.167 244.038C140.357 242.887 140.735 241.872 141.301 240.994C141.867 240.111 142.571 239.424 143.415 238.931C144.259 238.433 145.186 238.185 146.196 238.185C146.781 238.185 147.344 238.282 147.886 238.477C148.427 238.672 148.895 238.99 149.291 239.429C149.686 239.863 149.961 240.438 150.117 241.155C150.273 241.872 150.264 242.755 150.088 243.804L149.971 244.536L141.308 244.536L141.542 243.043L148.449 243.043C148.561 242.409 148.532 241.843 148.361 241.346C148.195 240.848 147.905 240.455 147.491 240.168C147.081 239.88 146.561 239.736 145.932 239.736C145.283 239.736 144.679 239.911 144.118 240.263C143.557 240.609 143.088 241.048 142.713 241.58C142.337 242.106 142.103 242.643 142.01 243.189L141.806 244.477C141.659 245.409 141.681 246.15 141.871 246.701C142.067 247.253 142.406 247.65 142.888 247.894C143.371 248.133 143.976 248.252 144.703 248.252C145.166 248.252 145.593 248.189 145.983 248.062C146.374 247.931 146.722 247.735 147.03 247.477C147.337 247.213 147.595 246.887 147.805 246.496L149.386 246.965C149.117 247.531 148.739 248.028 148.252 248.457C147.769 248.882 147.203 249.213 146.554 249.452C145.91 249.687 145.205 249.804 144.44 249.804ZM156.472 249.804C155.394 249.804 154.504 249.565 153.801 249.087C153.099 248.604 152.609 247.931 152.331 247.067C152.053 246.199 152.009 245.189 152.199 244.038C152.389 242.887 152.767 241.872 153.333 240.994C153.899 240.111 154.604 239.424 155.447 238.931C156.291 238.433 157.218 238.185 158.228 238.185C158.813 238.185 159.377 238.282 159.918 238.477C160.459 238.672 160.928 238.99 161.323 239.429C161.718 239.863 161.993 240.438 162.15 241.155C162.306 241.872 162.296 242.755 162.12 243.804L162.003 244.536L153.34 244.536L153.574 243.043L160.481 243.043C160.594 242.409 160.564 241.843 160.394 241.346C160.228 240.848 159.937 240.455 159.523 240.168C159.113 239.88 158.594 239.736 157.964 239.736C157.316 239.736 156.711 239.911 156.15 240.263C155.589 240.609 155.121 241.048 154.745 241.58C154.369 242.106 154.135 242.643 154.043 243.189L153.838 244.477C153.691 245.409 153.713 246.15 153.904 246.701C154.099 247.253 154.438 247.65 154.921 247.894C155.404 248.133 156.008 248.252 156.735 248.252C157.199 248.252 157.625 248.189 158.016 248.062C158.406 247.931 158.755 247.735 159.062 247.477C159.369 247.213 159.628 246.887 159.837 246.496L161.418 246.965C161.15 247.531 160.772 248.028 160.284 248.457C159.801 248.882 159.235 249.213 158.586 249.452C157.942 249.687 157.238 249.804 156.472 249.804ZM163.119 253.784L165.709 238.331L167.377 238.331L167.085 240.116L167.29 240.116C167.446 239.921 167.66 239.672 167.933 239.37C168.211 239.063 168.585 238.79 169.053 238.551C169.526 238.307 170.128 238.185 170.86 238.185C171.806 238.185 172.599 238.421 173.238 238.894C173.877 239.368 174.328 240.038 174.592 240.907C174.855 241.775 174.889 242.799 174.694 243.98C174.499 245.17 174.126 246.201 173.575 247.074C173.023 247.943 172.35 248.616 171.555 249.094C170.76 249.567 169.894 249.804 168.958 249.804C168.236 249.804 167.677 249.684 167.282 249.445C166.887 249.201 166.599 248.926 166.419 248.618C166.238 248.306 166.099 248.048 166.002 247.843L165.855 247.843L164.86 253.784L163.119 253.784ZM166.47 243.95C166.333 244.799 166.333 245.548 166.47 246.196C166.611 246.84 166.892 247.345 167.311 247.711C167.736 248.072 168.294 248.252 168.987 248.252C169.709 248.252 170.341 248.062 170.882 247.682C171.428 247.296 171.877 246.779 172.228 246.131C172.584 245.477 172.831 244.75 172.967 243.95C173.094 243.16 173.089 242.448 172.953 241.814C172.816 241.175 172.538 240.67 172.119 240.299C171.699 239.924 171.123 239.736 170.392 239.736C169.689 239.736 169.067 239.914 168.526 240.27C167.989 240.621 167.546 241.114 167.194 241.748C166.848 242.377 166.607 243.111 166.47 243.95ZM176.397 249.569L178.27 238.331L179.997 238.331L178.124 249.569L176.397 249.569ZM179.66 236.429C179.324 236.429 179.033 236.314 178.789 236.085C178.55 235.856 178.431 235.58 178.431 235.258C178.431 234.936 178.55 234.661 178.789 234.431C179.033 234.202 179.324 234.087 179.66 234.087C179.997 234.087 180.285 234.202 180.524 234.431C180.767 234.661 180.889 234.936 180.889 235.258C180.889 235.58 180.767 235.856 180.524 236.085C180.285 236.314 179.997 236.429 179.66 236.429ZM184.125 242.809L183.013 249.569L181.286 249.569L183.159 238.331L184.828 238.331L184.535 240.087L184.681 240.087C185.032 239.516 185.508 239.058 186.108 238.712C186.708 238.36 187.432 238.185 188.281 238.185C189.032 238.185 189.666 238.341 190.183 238.653C190.705 238.96 191.074 239.429 191.288 240.058C191.508 240.682 191.539 241.472 191.383 242.428L190.183 249.569L188.457 249.569L189.627 242.545C189.774 241.667 189.659 240.98 189.283 240.482C188.913 239.985 188.325 239.736 187.52 239.736C186.964 239.736 186.449 239.855 185.976 240.094C185.508 240.333 185.11 240.682 184.784 241.141C184.462 241.599 184.242 242.155 184.125 242.809ZM197.348 234.585L197.143 235.902C197.08 236.302 196.936 236.729 196.712 237.182C196.492 237.631 196.209 238.068 195.863 238.492C195.517 238.912 195.124 239.277 194.685 239.59L193.865 238.829C194.246 238.39 194.585 237.934 194.882 237.46C195.185 236.982 195.382 236.473 195.475 235.931L195.709 234.585L197.348 234.585ZM198.036 247.521L197.773 248.311C197.597 248.867 197.373 249.462 197.099 250.096C196.826 250.73 196.556 251.328 196.287 251.889C196.019 252.45 195.802 252.896 195.636 253.228L194.319 253.228C194.426 252.916 194.573 252.503 194.758 251.991C194.943 251.479 195.141 250.908 195.351 250.279C195.561 249.65 195.753 249.004 195.929 248.34L196.163 247.521L198.036 247.521ZM215.137 234.585L216.951 234.585L215.166 245.355C215.01 246.311 214.712 247.118 214.273 247.777C213.839 248.43 213.283 248.928 212.605 249.269C211.932 249.606 211.157 249.774 210.279 249.774C209.44 249.774 208.718 249.623 208.113 249.321C207.508 249.018 207.064 248.589 206.781 248.033C206.498 247.477 206.415 246.818 206.532 246.057L208.259 246.057C208.201 246.496 208.247 246.874 208.398 247.192C208.549 247.504 208.788 247.745 209.115 247.916C209.447 248.082 209.844 248.165 210.308 248.165C210.844 248.165 211.322 248.052 211.742 247.828C212.166 247.599 212.517 247.267 212.796 246.833C213.078 246.394 213.274 245.862 213.381 245.238L215.137 234.585ZM225.709 244.975L226.822 238.331L228.548 238.331L226.675 249.569L224.949 249.569L225.27 247.667L225.153 247.667C224.802 248.238 224.312 248.723 223.683 249.123C223.053 249.518 222.315 249.716 221.466 249.716C220.763 249.716 220.163 249.562 219.666 249.255C219.173 248.943 218.822 248.474 218.612 247.85C218.407 247.221 218.383 246.428 218.539 245.472L219.739 238.331L221.466 238.331L220.295 245.355C220.163 246.175 220.288 246.828 220.668 247.316C221.049 247.804 221.597 248.048 222.315 248.048C222.744 248.048 223.197 247.938 223.675 247.718C224.158 247.499 224.588 247.162 224.963 246.709C225.344 246.255 225.592 245.677 225.709 244.975ZM239.262 240.848L237.623 241.287C237.564 241.024 237.462 240.77 237.316 240.526C237.174 240.277 236.955 240.075 236.657 239.919C236.364 239.758 235.964 239.677 235.457 239.677C234.769 239.677 234.172 239.836 233.665 240.153C233.157 240.465 232.867 240.863 232.794 241.346C232.721 241.77 232.818 242.109 233.086 242.363C233.355 242.616 233.804 242.823 234.433 242.984L236.042 243.394C237.008 243.643 237.696 244.016 238.106 244.514C238.52 245.006 238.662 245.648 238.53 246.438C238.423 247.082 238.142 247.657 237.689 248.165C237.235 248.672 236.655 249.072 235.947 249.365C235.24 249.657 234.452 249.804 233.584 249.804C232.428 249.804 231.516 249.555 230.848 249.057C230.179 248.555 229.823 247.828 229.779 246.877L231.506 246.467C231.55 247.067 231.765 247.521 232.15 247.828C232.54 248.131 233.086 248.282 233.789 248.282C234.594 248.282 235.264 248.111 235.801 247.77C236.338 247.423 236.642 247.009 236.716 246.526C236.789 246.131 236.711 245.801 236.481 245.538C236.257 245.275 235.867 245.077 235.311 244.945L233.525 244.506C232.53 244.258 231.833 243.877 231.433 243.365C231.038 242.853 230.906 242.209 231.038 241.433C231.145 240.799 231.418 240.238 231.857 239.75C232.301 239.263 232.857 238.88 233.525 238.602C234.199 238.324 234.93 238.185 235.72 238.185C236.833 238.185 237.664 238.429 238.215 238.916C238.767 239.399 239.115 240.043 239.262 240.848ZM247.363 238.331L247.129 239.794L241.305 239.794L241.539 238.331L247.363 238.331ZM243.676 235.639L245.402 235.639L243.617 246.35C243.539 246.838 243.551 247.204 243.654 247.448C243.761 247.687 243.922 247.848 244.136 247.931C244.356 248.009 244.593 248.048 244.846 248.048C245.036 248.048 245.193 248.038 245.314 248.018C245.436 247.994 245.534 247.974 245.607 247.96L245.724 249.511C245.592 249.555 245.414 249.599 245.19 249.643C244.971 249.691 244.7 249.716 244.378 249.716C243.89 249.716 243.432 249.611 243.002 249.401C242.573 249.191 242.244 248.872 242.015 248.443C241.785 248.013 241.724 247.472 241.832 246.818L243.676 235.639ZM258.799 249.569L254.116 249.569L256.604 234.585L261.375 234.585C262.828 234.585 264.026 234.89 264.967 235.5C265.913 236.109 266.572 236.98 266.943 238.112C267.318 239.243 267.374 240.594 267.111 242.165C266.857 243.706 266.365 245.031 265.633 246.138C264.906 247.24 263.965 248.089 262.809 248.684C261.657 249.274 260.321 249.569 258.799 249.569ZM256.202 247.96L258.858 247.96C260.097 247.96 261.165 247.716 262.062 247.228C262.965 246.74 263.691 246.045 264.243 245.143C264.799 244.24 265.179 243.17 265.384 241.931C265.589 240.741 265.569 239.719 265.326 238.865C265.087 238.007 264.616 237.348 263.913 236.89C263.216 236.426 262.282 236.195 261.111 236.195L258.148 236.195L256.202 247.96ZM268.691 249.569L270.564 238.331L272.232 238.331L271.94 240.029L272.057 240.029C272.35 239.472 272.796 239.021 273.396 238.675C273.996 238.329 274.632 238.155 275.305 238.155C275.437 238.155 275.596 238.158 275.781 238.163C275.966 238.163 276.11 238.17 276.213 238.185L275.92 239.941C275.862 239.926 275.73 239.904 275.525 239.875C275.32 239.841 275.101 239.824 274.866 239.824C274.32 239.824 273.815 239.938 273.352 240.168C272.889 240.392 272.501 240.704 272.189 241.104C271.876 241.499 271.676 241.95 271.589 242.458L270.418 249.569L268.691 249.569ZM276.397 249.569L278.271 238.331L279.997 238.331L278.124 249.569L276.397 249.569ZM279.661 236.429C279.324 236.429 279.034 236.314 278.79 236.085C278.551 235.856 278.432 235.58 278.432 235.258C278.432 234.936 278.551 234.661 278.79 234.431C279.034 234.202 279.324 234.087 279.661 234.087C279.997 234.087 280.285 234.202 280.524 234.431C280.768 234.661 280.89 234.936 280.89 235.258C280.89 235.58 280.768 235.856 280.524 236.085C280.285 236.314 279.997 236.429 279.661 236.429ZM280.584 253.784L283.175 238.331L284.843 238.331L284.55 240.116L284.755 240.116C284.911 239.921 285.126 239.672 285.399 239.37C285.677 239.063 286.05 238.79 286.518 238.551C286.991 238.307 287.594 238.185 288.325 238.185C289.272 238.185 290.064 238.421 290.703 238.894C291.342 239.368 291.794 240.038 292.057 240.907C292.32 241.775 292.355 242.799 292.159 243.98C291.964 245.17 291.591 246.201 291.04 247.074C290.489 247.943 289.816 248.616 289.021 249.094C288.225 249.567 287.36 249.804 286.423 249.804C285.701 249.804 285.143 249.684 284.748 249.445C284.353 249.201 284.065 248.926 283.884 248.618C283.704 248.306 283.565 248.048 283.467 247.843L283.321 247.843L282.326 253.784L280.584 253.784ZM283.935 243.95C283.799 244.799 283.799 245.548 283.935 246.196C284.077 246.84 284.357 247.345 284.777 247.711C285.201 248.072 285.76 248.252 286.452 248.252C287.174 248.252 287.806 248.062 288.347 247.682C288.894 247.296 289.343 246.779 289.694 246.131C290.05 245.477 290.296 244.75 290.433 243.95C290.56 243.16 290.555 242.448 290.418 241.814C290.281 241.175 290.003 240.67 289.584 240.299C289.164 239.924 288.589 239.736 287.857 239.736C287.155 239.736 286.533 239.914 285.991 240.27C285.455 240.621 285.011 241.114 284.66 241.748C284.314 242.377 284.072 243.111 283.935 243.95ZM293.16 253.784L295.75 238.331L297.418 238.331L297.126 240.116L297.33 240.116C297.487 239.921 297.701 239.672 297.974 239.37C298.252 239.063 298.626 238.79 299.094 238.551C299.567 238.307 300.169 238.185 300.901 238.185C301.847 238.185 302.64 238.421 303.279 238.894C303.918 239.368 304.369 240.038 304.633 240.907C304.896 241.775 304.93 242.799 304.735 243.98C304.54 245.17 304.167 246.201 303.616 247.074C303.064 247.943 302.391 248.616 301.596 249.094C300.801 249.567 299.935 249.804 298.999 249.804C298.277 249.804 297.718 249.684 297.323 249.445C296.928 249.201 296.64 248.926 296.46 248.618C296.279 248.306 296.14 248.048 296.043 247.843L295.896 247.843L294.901 253.784L293.16 253.784ZM296.511 243.95C296.374 244.799 296.374 245.548 296.511 246.196C296.652 246.84 296.933 247.345 297.352 247.711C297.777 248.072 298.335 248.252 299.028 248.252C299.75 248.252 300.382 248.062 300.923 247.682C301.469 247.296 301.918 246.779 302.269 246.131C302.625 245.477 302.872 244.75 303.008 243.95C303.135 243.16 303.13 242.448 302.994 241.814C302.857 241.175 302.579 240.67 302.159 240.299C301.74 239.924 301.164 239.736 300.433 239.736C299.73 239.736 299.108 239.914 298.567 240.27C298.03 240.621 297.587 241.114 297.235 241.748C296.889 242.377 296.648 243.111 296.511 243.95ZM306.438 249.569L308.311 238.331L310.038 238.331L308.165 249.569L306.438 249.569ZM309.701 236.429C309.365 236.429 309.074 236.314 308.83 236.085C308.591 235.856 308.472 235.58 308.472 235.258C308.472 234.936 308.591 234.661 308.83 234.431C309.074 234.202 309.365 234.087 309.701 234.087C310.038 234.087 310.325 234.202 310.565 234.431C310.808 234.661 310.93 234.936 310.93 235.258C310.93 235.58 310.808 235.856 310.565 236.085C310.325 236.314 310.038 236.429 309.701 236.429ZM314.166 242.809L313.054 249.569L311.327 249.569L313.2 238.331L314.869 238.331L314.576 240.087L314.722 240.087C315.073 239.516 315.549 239.058 316.149 238.712C316.749 238.36 317.473 238.185 318.322 238.185C319.073 238.185 319.707 238.341 320.224 238.653C320.746 238.96 321.115 239.429 321.329 240.058C321.549 240.682 321.58 241.472 321.424 242.428L320.224 249.569L318.498 249.569L319.668 242.545C319.815 241.667 319.7 240.98 319.324 240.482C318.954 239.985 318.366 239.736 317.561 239.736C317.005 239.736 316.49 239.855 316.017 240.094C315.549 240.333 315.151 240.682 314.825 241.141C314.503 241.599 314.283 242.155 314.166 242.809ZM327.389 234.585L327.184 235.902C327.121 236.302 326.977 236.729 326.753 237.182C326.533 237.631 326.25 238.068 325.904 238.492C325.558 238.912 325.165 239.277 324.726 239.59L323.906 238.829C324.287 238.39 324.626 237.934 324.923 237.46C325.226 236.982 325.423 236.473 325.516 235.931L325.75 234.585L327.389 234.585Z" fill="black"/>
<defs>
<linearGradient id="paint0_linear_601_692" x1="-9.8463e-09" y1="169.604" x2="430" y2="169.604" gradientUnits="userSpaceOnUse">
<stop stop-color="#1762A8"/>
<stop offset="1" stop-color="#BE0E0E"/>
</linearGradient>
</defs>
</svg>
