<svg width="325" height="62" viewBox="0 0 325 62" fill="none" xmlns="http://www.w3.org/2000/svg">
<path d="M26.5587 28.4813L20.5149 23.7688C20.5149 23.7688 20.3657 18.9655 18.8938 19.232C17.4218 19.4985 12.5707 23.2903 14.1857 25.0348C15.8008 26.7793 26.5587 34.4538 26.5587 34.4538V43.806L26.9251 61.0508C13.0726 60.5314 7.7099 52.8987 7.14208 52.1468C-1.99453 41.1514 0.241459 30.6619 0.241459 30.6619L10.1547 39.4933L10.6453 44.7631C10.6453 44.7631 17.9186 48.5973 18.5026 48.2096C19.0866 47.822 20.074 42.6552 17.4218 38.0578C14.7696 33.4604 -1.71942 32.4076 3.40356 20.6978C8.52655 8.98812 26.5587 6.98438 26.5587 6.98438L26.5587 28.4813Z" fill="#1762A8"/>
<path d="M27.7736 61.0147C27.5273 60.7623 27.2988 6.98438 27.2988 6.98438C27.2988 6.98438 32.9939 6.97055 35.4304 8.23449V31.4032L39.7036 26.3728L44.4575 32.3528L44.1811 12.9103C49.5658 16.8092 52.79 24.4725 53.2256 25.5194C58.4479 43.8319 44.7733 55.0838 44.5417 54.8665L39.7036 40.6226C39.7036 40.6226 36.8645 58.4364 36.5002 59.2899C36.1359 60.1433 28.02 61.2672 27.7736 61.0147Z" fill="#BE0E0E"/>
<path d="M87.7889 27.6811L82.6904 28.5841C82.4772 27.932 82.1386 27.3111 81.6745 26.7216C81.223 26.1321 80.6084 25.6493 79.8308 25.273C79.0532 24.8967 78.0811 24.7086 76.9147 24.7086C75.3219 24.7086 73.9924 25.066 72.9263 25.781C71.8602 26.4833 71.3271 27.3926 71.3271 28.5089C71.3271 29.4746 71.6846 30.2523 72.3995 30.8418C73.1144 31.4312 74.2683 31.9141 75.8612 32.2904L80.4516 33.3439C83.1106 33.9585 85.0923 34.9054 86.3967 36.1848C87.7011 37.4641 88.3533 39.1259 88.3533 41.1703C88.3533 42.9011 87.8516 44.4438 86.8482 45.7984C85.8573 47.1404 84.4714 48.194 82.6904 48.959C80.922 49.7241 78.8713 50.1067 76.5385 50.1067C73.3026 50.1067 70.6624 49.4168 68.618 48.0372C66.5736 46.645 65.3194 44.6696 64.8553 42.111L70.2924 41.2832C70.6311 42.7005 71.3271 43.7728 72.3807 44.5003C73.4342 45.2152 74.8076 45.5726 76.5008 45.5726C78.3445 45.5726 79.8182 45.1901 80.922 44.425C82.0257 43.6474 82.5775 42.7005 82.5775 41.5842C82.5775 40.6812 82.2389 39.9223 81.5616 39.3078C80.8969 38.6932 79.8747 38.2291 78.495 37.9156L73.6036 36.8432C70.907 36.2287 68.9128 35.2504 67.6209 33.9083C66.3416 32.5663 65.7019 30.8668 65.7019 28.8099C65.7019 27.1042 66.1786 25.6116 67.1318 24.3323C68.085 23.053 69.4019 22.0559 71.0826 21.341C72.7632 20.6135 74.6885 20.2498 76.8583 20.2498C79.9813 20.2498 82.4396 20.9271 84.2331 22.2817C86.0267 23.6237 87.2119 25.4235 87.7889 27.6811ZM108.027 20.6261V25.1413H92.2429V20.6261H108.027ZM96.4759 13.7028H102.101V41.0386C102.101 42.1298 102.264 42.9513 102.59 43.5032C102.916 44.0425 103.337 44.4125 103.851 44.6131C104.378 44.8013 104.948 44.8953 105.563 44.8953C106.014 44.8953 106.409 44.864 106.748 44.8013C107.087 44.7386 107.35 44.6884 107.538 44.6508L108.554 49.2977C108.228 49.4231 107.764 49.5485 107.162 49.6739C106.56 49.8119 105.807 49.8872 104.904 49.8997C103.424 49.9248 102.045 49.6614 100.765 49.1095C99.4861 48.5577 98.4513 47.7048 97.6612 46.5509C96.871 45.397 96.4759 43.9484 96.4759 42.205V13.7028ZM117.956 49.5234H111.785L125.651 10.9936H132.367L146.233 49.5234H140.062L129.169 17.9922H128.868L117.956 49.5234ZM118.991 34.4351H139.008V39.3266H118.991V34.4351ZM151.279 60.3599C150.439 60.3599 149.674 60.291 148.984 60.153C148.294 60.0276 147.78 59.8896 147.441 59.7391L148.796 55.1298C149.824 55.4058 150.74 55.5249 151.543 55.4873C152.345 55.4497 153.054 55.1486 153.669 54.5842C154.296 54.0198 154.848 53.098 155.324 51.8187L156.02 49.8997L145.447 20.6261H151.467L158.786 43.0516H159.087L166.405 20.6261H172.444L160.535 53.3802C159.984 54.8853 159.281 56.1583 158.428 57.1993C157.576 58.2528 156.56 59.043 155.381 59.5698C154.202 60.0966 152.835 60.3599 151.279 60.3599ZM183.996 49.5234L175.492 20.6261H181.305L186.968 41.8476H187.25L192.932 20.6261H198.745L204.389 41.7535H204.672L210.297 20.6261H216.11L207.625 49.5234H201.887L196.018 28.6594H195.585L189.715 49.5234H183.996ZM255.369 30.2585C255.369 34.3724 254.616 37.9093 253.111 40.8693C251.606 43.8167 249.543 46.0869 246.922 47.6797C244.313 49.2601 241.347 50.0502 238.023 50.0502C234.687 50.0502 231.708 49.2601 229.087 47.6797C226.478 46.0869 224.421 43.8104 222.916 40.8505C221.411 37.8905 220.658 34.3599 220.658 30.2585C220.658 26.1447 221.411 22.614 222.916 19.6666C224.421 16.7066 226.478 14.4365 229.087 12.8562C231.708 11.2633 234.687 10.4669 238.023 10.4669C241.347 10.4669 244.313 11.2633 246.922 12.8562C249.543 14.4365 251.606 16.7066 253.111 19.6666C254.616 22.614 255.369 26.1447 255.369 30.2585ZM249.612 30.2585C249.612 27.123 249.104 24.4828 248.088 22.3381C247.085 20.1808 245.705 18.5503 243.949 17.4466C242.206 16.3304 240.231 15.7722 238.023 15.7722C235.803 15.7722 233.821 16.3304 232.078 17.4466C230.335 18.5503 228.955 20.1808 227.939 22.3381C226.936 24.4828 226.434 27.123 226.434 30.2585C226.434 33.3941 226.936 36.0405 227.939 38.1978C228.955 40.3425 230.335 41.973 232.078 43.0893C233.821 44.193 235.803 44.7448 238.023 44.7448C240.231 44.7448 242.206 44.193 243.949 43.0893C245.705 41.973 247.085 40.3425 248.088 38.1978C249.104 36.0405 249.612 33.3941 249.612 30.2585ZM262.617 49.5234V10.9936H268.43V29.3931H268.901L285.061 10.9936H292.38L276.84 28.3396L292.436 49.5234H285.437L272.983 32.3092L268.43 37.5393V49.5234H262.617ZM307.68 50.1067C304.833 50.1067 302.38 49.4984 300.324 48.2818C298.279 47.0526 296.699 45.3281 295.583 43.1081C294.479 40.8756 293.927 38.2605 293.927 35.2629C293.927 32.3029 294.479 29.6941 295.583 27.4365C296.699 25.1789 298.254 23.4167 300.248 22.15C302.255 20.8832 304.6 20.2498 307.285 20.2498C308.915 20.2498 310.495 20.5195 312.025 21.0588C313.556 21.5981 314.929 22.4447 316.146 23.5986C317.362 24.7525 318.322 26.2513 319.024 28.095C319.726 29.9262 320.078 32.1524 320.078 34.7737V36.768H297.106V32.5538H314.565C314.565 31.0738 314.264 29.7631 313.662 28.6218C313.06 27.4679 312.214 26.5586 311.122 25.8938C310.044 25.2291 308.777 24.8967 307.322 24.8967C305.742 24.8967 304.362 25.2855 303.183 26.0632C302.017 26.8282 301.114 27.8316 300.474 29.0733C299.847 30.3024 299.533 31.6382 299.533 33.0805V36.3729C299.533 38.3044 299.872 39.9474 300.549 41.302C301.239 42.6566 302.199 43.6913 303.428 44.4062C304.657 45.1086 306.093 45.4597 307.736 45.4597C308.802 45.4597 309.774 45.3092 310.652 45.0082C311.53 44.6947 312.289 44.2306 312.929 43.616C313.568 43.0015 314.057 42.2427 314.396 41.3396L319.72 42.2991C319.294 43.8669 318.529 45.2403 317.425 46.4192C316.334 47.5857 314.96 48.495 313.305 49.1472C311.662 49.7868 309.787 50.1067 307.68 50.1067Z" fill="#1762A8"/>
</svg>
