<svg width="270" height="137" viewBox="0 0 270 137" fill="none" xmlns="http://www.w3.org/2000/svg">
<g filter="url(#filter0_d_559_1983)">
<rect y="9" width="269" height="116" fill="black"/>
<rect x="18" y="36.5742" width="48" height="43.2407" rx="21.6203" fill="black" fill-opacity="0.01"/>
<path d="M41.2934 54.3812L37.1306 51.1352C37.1306 51.1352 37.0278 47.8267 36.0139 48.0103C35 48.1939 31.6586 50.8056 32.7711 52.0072C33.8835 53.2088 41.2934 58.495 41.2934 58.495L41.2934 64.9368L41.5458 76.8149C32.0044 76.4571 28.3105 71.1997 27.9194 70.6818C21.6262 63.1083 23.1663 55.8832 23.1663 55.8832L29.9945 61.9662L30.3324 65.596C30.3324 65.596 35.3422 68.2369 35.7445 67.9699C36.1467 67.7029 36.8269 64.144 35 60.9774C33.1732 57.8107 21.8157 57.0856 25.3444 49.02C28.873 40.9544 41.2934 39.5742 41.2934 39.5742L41.2934 54.3812Z" fill="#1762A8"/>
<path d="M42.1356 76.79C41.9659 76.6161 41.8086 39.5742 41.8086 39.5742C41.8086 39.5742 45.7313 39.5647 47.4096 40.4353L47.4096 56.3937L50.3529 52.9288L53.6274 57.0478L53.437 43.6559C57.146 46.3415 59.3667 51.6199 59.6668 52.341C63.2639 64.9546 53.8449 72.7048 53.6854 72.5551L50.3529 62.744C50.3529 62.744 48.3974 75.0141 48.1465 75.6019C47.8955 76.1898 42.3053 76.9639 42.1356 76.79Z" fill="#BE0E0E"/>
<mask id="path-5-outside-1_559_1983" maskUnits="userSpaceOnUse" x="70" y="42.6953" width="180" height="38" fill="black">
<rect fill="white" x="70" y="42.6953" width="180" height="38"/>
<path d="M87.3443 55.8921L84.5337 56.6876C84.3569 56.2191 84.0962 55.7639 83.7515 55.322C83.4156 54.8712 82.956 54.5 82.3727 54.2084C81.7893 53.9167 81.0425 53.7709 80.1321 53.7709C78.8859 53.7709 77.8473 54.0581 77.0165 54.6326C76.1945 55.1983 75.7836 55.9186 75.7836 56.7936C75.7836 57.5714 76.0664 58.1857 76.6321 58.6364C77.1977 59.0872 78.0816 59.4628 79.2836 59.7634L82.3064 60.5058C84.1271 60.9477 85.4838 61.6239 86.3765 62.5342C87.2692 63.4357 87.7155 64.598 87.7155 66.021C87.7155 67.1877 87.3797 68.2306 86.7079 69.1498C86.045 70.069 85.117 70.7938 83.9238 71.3241C82.7306 71.8544 81.343 72.1196 79.7609 72.1196C77.6838 72.1196 75.9647 71.6688 74.6036 70.7673C73.2425 69.8657 72.3807 68.5488 72.0184 66.8165L74.9881 66.074C75.2709 67.17 75.8057 67.992 76.5923 68.54C77.3877 69.088 78.4263 69.362 79.7078 69.362C81.1662 69.362 82.324 69.0526 83.1814 68.4339C84.0475 67.8064 84.4806 67.0551 84.4806 66.1801C84.4806 65.473 84.2332 64.8808 83.7382 64.4036C83.2432 63.9174 82.4831 63.5551 81.4579 63.3164L78.0639 62.521C76.199 62.079 74.829 61.3941 73.954 60.466C73.0878 59.5291 72.6547 58.358 72.6547 56.9527C72.6547 55.8037 72.9773 54.7873 73.6225 53.9034C74.2766 53.0196 75.1649 52.3258 76.2873 51.822C77.4187 51.3182 78.7003 51.0663 80.1321 51.0663C82.1473 51.0663 83.7294 51.5082 84.8784 52.392C86.0362 53.2759 86.8582 54.4426 87.3443 55.8921ZM101.281 51.3314L101.281 53.983L90.7283 53.983L90.7283 51.3314L101.281 51.3314ZM93.8041 46.4526L96.933 46.4526L96.933 65.8619C96.933 66.7458 97.0611 67.4086 97.3174 67.8506C97.5826 68.2837 97.9184 68.5753 98.325 68.7256C98.7404 68.867 99.1779 68.9377 99.6375 68.9377C99.9822 68.9377 100.265 68.92 100.486 68.8847C100.707 68.8405 100.884 68.8051 101.016 68.7786L101.653 71.5893C101.441 71.6688 101.144 71.7483 100.764 71.8279C100.384 71.9163 99.9027 71.9605 99.3194 71.9605C98.4355 71.9605 97.5693 71.7704 96.7208 71.3904C95.8812 71.0103 95.1829 70.4314 94.6261 69.6536C94.0781 68.8758 93.8041 67.8948 93.8041 66.7104L93.8041 46.4526ZM107.526 71.6953L104.079 71.6953L114.049 44.5435L117.443 44.5435L127.412 71.6953L123.965 71.6953L115.852 48.839L115.64 48.839L107.526 71.6953ZM108.799 61.0891L122.693 61.0891L122.693 64.0058L108.799 64.0058L108.799 61.0891ZM130.681 79.3318C130.15 79.3318 129.677 79.2876 129.262 79.1992C128.847 79.1196 128.559 79.0401 128.4 78.9606L129.196 76.2029C129.956 76.3974 130.627 76.4681 131.211 76.4151C131.794 76.362 132.311 76.1013 132.762 75.6329C133.222 75.1733 133.641 74.4264 134.021 73.3923L134.605 71.8014L127.074 51.3314L130.468 51.3314L136.09 67.5589L136.302 67.5589L141.923 51.3314L145.317 51.3314L136.673 74.665C136.284 75.7168 135.802 76.5874 135.228 77.2768C134.653 77.9751 133.986 78.4921 133.226 78.828C132.475 79.1638 131.626 79.3318 130.681 79.3318ZM154.061 71.6953L147.856 51.3314L151.144 51.3314L155.545 66.9225L155.758 66.9225L160.106 51.3314L163.447 51.3314L167.743 66.8695L167.955 66.8695L172.356 51.3314L175.644 51.3314L169.44 71.6953L166.364 71.6953L161.909 56.0512L161.591 56.0512L157.136 71.6953L154.061 71.6953ZM203.114 58.1194C203.114 60.9831 202.597 63.4578 201.563 65.5437C200.529 67.6296 199.11 69.2382 197.307 70.3695C195.504 71.5009 193.445 72.0665 191.129 72.0665C188.813 72.0665 186.754 71.5009 184.951 70.3695C183.148 69.2382 181.729 67.6296 180.695 65.5437C179.661 63.4578 179.144 60.9831 179.144 58.1194C179.144 55.2557 179.661 52.7809 180.695 50.6951C181.729 48.6092 183.148 47.0006 184.951 45.8692C186.754 44.7379 188.813 44.1723 191.129 44.1723C193.445 44.1723 195.504 44.7379 197.307 45.8692C199.11 47.0006 200.529 48.6092 201.563 50.6951C202.597 52.7809 203.114 55.2557 203.114 58.1194ZM199.932 58.1194C199.932 55.7684 199.539 53.7841 198.752 52.1667C197.975 50.5492 196.918 49.3251 195.584 48.4943C194.258 47.6635 192.773 47.248 191.129 47.248C189.485 47.248 187.996 47.6635 186.661 48.4943C185.336 49.3251 184.279 50.5492 183.493 52.1667C182.715 53.7841 182.326 55.7684 182.326 58.1194C182.326 60.4704 182.715 62.4547 183.493 64.0721C184.279 65.6896 185.336 66.9137 186.661 67.7445C187.996 68.5753 189.485 68.9907 191.129 68.9907C192.773 68.9907 194.258 68.5753 195.584 67.7445C196.918 66.9137 197.975 65.6896 198.752 64.0721C199.539 62.4547 199.932 60.4704 199.932 58.1194ZM208.643 71.6953L208.643 44.5435L211.931 44.5435L211.931 58.0133L212.249 58.0133L224.446 44.5435L228.741 44.5435L217.34 56.7936L228.741 71.6953L224.764 71.6953L215.325 59.0739L211.931 62.8922L211.931 71.6953L208.643 71.6953ZM239.616 72.1196C237.654 72.1196 235.961 71.6865 234.538 70.8203C233.124 69.9453 232.033 68.7256 231.264 67.1612C230.504 65.5879 230.123 63.7583 230.123 61.6725C230.123 59.5866 230.504 57.7482 231.264 56.1572C232.033 54.5575 233.102 53.3113 234.472 52.4186C235.851 51.517 237.459 51.0663 239.298 51.0663C240.358 51.0663 241.406 51.243 242.44 51.5966C243.474 51.9501 244.415 52.5246 245.264 53.3201C246.112 54.1067 246.788 55.1497 247.292 56.4489C247.796 57.7482 248.048 59.3479 248.048 61.2482L248.048 62.574L232.351 62.574L232.351 59.8694L244.866 59.8694C244.866 58.7204 244.636 57.6951 244.177 56.7936C243.726 55.8921 243.081 55.1806 242.241 54.6591C241.41 54.1377 240.429 53.8769 239.298 53.8769C238.052 53.8769 236.973 54.1863 236.063 54.805C235.161 55.4148 234.468 56.2103 233.981 57.1913C233.495 58.1724 233.252 59.2242 233.252 60.3467L233.252 62.1497C233.252 63.6876 233.517 64.9913 234.048 66.0608C234.587 67.1214 235.334 67.9301 236.288 68.4869C237.243 69.0349 238.352 69.3089 239.616 69.3089C240.438 69.3089 241.18 69.194 241.843 68.9642C242.515 68.7256 243.094 68.372 243.58 67.9036C244.066 67.4263 244.442 66.8341 244.707 66.1271L247.73 66.9756C247.412 68.0008 246.877 68.9023 246.126 69.6801C245.374 70.4491 244.446 71.0501 243.341 71.4832C242.237 71.9074 240.995 72.1196 239.616 72.1196Z"/>
</mask>
<path d="M87.3443 55.8921L87.6248 56.8833L88.6646 56.5891L88.321 55.5645L87.3443 55.8921ZM84.5337 56.6876L83.5698 57.0513L83.9038 57.9365L84.8142 57.6788L84.5337 56.6876ZM83.7515 55.322L82.9254 55.9375L82.9322 55.9466L82.9392 55.9556L83.7515 55.322ZM82.3727 54.2084L82.8334 53.2869L82.8334 53.2869L82.3727 54.2084ZM77.0165 54.6326L77.6005 55.4813L77.6024 55.4799L77.0165 54.6326ZM76.6321 58.6364L75.99 59.4421L75.99 59.4421L76.6321 58.6364ZM79.2836 59.7634L79.0337 60.7628L79.0379 60.7638L79.2836 59.7634ZM82.3064 60.5058L82.0606 61.5062L82.0634 61.5069L82.3064 60.5058ZM86.3765 62.5342L85.6409 63.2555L85.6445 63.2591L86.3765 62.5342ZM86.7079 69.1498L85.8762 68.542L85.8724 68.5473L86.7079 69.1498ZM74.6036 70.7673L75.1725 69.9084L75.1725 69.9084L74.6036 70.7673ZM72.0184 66.8165L71.7685 65.817L70.8071 66.0574L71.01 67.0274L72.0184 66.8165ZM74.9881 66.074L75.9856 65.8166L75.7301 64.8266L74.7382 65.0746L74.9881 66.074ZM76.5923 68.54L76.0034 69.3853L76.0078 69.3883L76.5923 68.54ZM83.1814 68.4339L83.7842 69.2693L83.7858 69.2682L83.1814 68.4339ZM83.7382 64.4036L83.0163 65.1386L83.0231 65.1451L83.7382 64.4036ZM81.4579 63.3164L81.2228 64.3194L81.2243 64.3198L81.4579 63.3164ZM78.0639 62.521L77.8263 63.5234L77.8288 63.524L78.0639 62.521ZM73.954 60.466L73.1975 61.1654L73.2044 61.1727L73.954 60.466ZM73.6225 53.9034L72.7944 53.2906L72.7905 53.296L73.6225 53.9034ZM76.2873 51.822L75.8683 50.8809L75.8655 50.8821L76.2873 51.822ZM84.8784 52.392L84.2502 53.2086L84.2533 53.2109L84.8784 52.392ZM87.3443 55.8921L87.0638 54.9008L84.2531 55.6963L84.5337 56.6876L84.8142 57.6788L87.6248 56.8833L87.3443 55.8921ZM84.5337 56.6876L85.4975 56.3238C85.28 55.7475 84.9648 55.2025 84.5638 54.6884L83.7515 55.322L82.9392 55.9556C83.2276 56.3254 83.4338 56.6907 83.5698 57.0513L84.5337 56.6876ZM83.7515 55.322L84.5775 54.7065C84.1312 54.1074 83.5376 53.6391 82.8334 53.2869L82.3727 54.2084L81.9119 55.1298C82.3743 55.361 82.7 55.6351 82.9254 55.9375L83.7515 55.322ZM82.3727 54.2084L82.8334 53.2869C82.0618 52.9012 81.1428 52.7407 80.1321 52.7407L80.1321 53.7709L80.1321 54.801C80.9421 54.801 81.5168 54.9322 81.9119 55.1298L82.3727 54.2084ZM80.1321 53.7709L80.1321 52.7407C78.7259 52.7407 77.4702 53.0664 76.4306 53.7853L77.0165 54.6326L77.6024 55.4799C78.2245 55.0498 79.0458 54.801 80.1321 54.801L80.1321 53.7709ZM77.0165 54.6326L76.4325 53.784C75.3767 54.5105 74.7534 55.5278 74.7534 56.7936L75.7836 56.7936L76.8137 56.7936C76.8137 56.3094 77.0124 55.886 77.6005 55.4813L77.0165 54.6326ZM75.7836 56.7936L74.7534 56.7936C74.7534 57.8579 75.1586 58.7796 75.99 59.4421L76.6321 58.6364L77.2741 57.8308C76.9742 57.5918 76.8137 57.2849 76.8137 56.7936L75.7836 56.7936ZM76.6321 58.6364L75.99 59.4421C76.7255 60.0282 77.7766 60.4485 79.0337 60.7628L79.2836 59.7634L79.5335 58.7639C78.3866 58.4772 77.67 58.1462 77.2741 57.8308L76.6321 58.6364ZM79.2836 59.7634L79.0379 60.7638L82.0606 61.5062L82.3064 60.5058L82.5521 59.5053L79.5293 58.7629L79.2836 59.7634ZM82.3064 60.5058L82.0634 61.5069C83.7795 61.9234 84.9322 62.5327 85.6409 63.2555L86.3765 62.5342L87.112 61.8129C86.0354 60.715 84.4747 59.972 82.5493 59.5047L82.3064 60.5058ZM86.3765 62.5342L85.6445 63.2591C86.3222 63.9435 86.6853 64.8335 86.6853 66.021L87.7155 66.021L88.7457 66.021C88.7457 64.3626 88.2161 62.9279 87.1085 61.8094L86.3765 62.5342ZM87.7155 66.021L86.6853 66.021C86.6853 66.975 86.4156 67.8039 85.8762 68.542L86.7079 69.1498L87.5397 69.7577C88.3437 68.6574 88.7457 67.4004 88.7457 66.021L87.7155 66.021ZM86.7079 69.1498L85.8724 68.5473C85.3314 69.2973 84.5577 69.915 83.5054 70.3827L83.9238 71.3241L84.3422 72.2655C85.6763 71.6726 86.7587 70.8407 87.5435 69.7524L86.7079 69.1498ZM83.9238 71.3241L83.5054 70.3827C82.4687 70.8434 81.2287 71.0894 79.7609 71.0894L79.7609 72.1196L79.7609 73.1497C81.4572 73.1497 82.9925 72.8654 84.3422 72.2655L83.9238 71.3241ZM79.7609 72.1196L79.7609 71.0894C77.8313 71.0894 76.3244 70.6713 75.1725 69.9084L74.6036 70.7673L74.0347 71.6261C75.6051 72.6663 77.5363 73.1497 79.7609 73.1497L79.7609 72.1196ZM74.6036 70.7673L75.1725 69.9084C74.0575 69.1699 73.3387 68.097 73.0267 66.6055L72.0184 66.8165L71.01 67.0274C71.4228 69.0006 72.4275 70.5616 74.0347 71.6261L74.6036 70.7673ZM72.0184 66.8165L72.2682 67.8159L75.2379 67.0735L74.9881 66.074L74.7382 65.0746L71.7685 65.817L72.0184 66.8165ZM74.9881 66.074L73.9906 66.3315C74.3233 67.6206 74.9793 68.6718 76.0034 69.3853L76.5923 68.54L77.1811 67.6947C76.632 67.3121 76.2186 66.7194 75.9856 65.8166L74.9881 66.074ZM76.5923 68.54L76.0078 69.3883C77.0233 70.0879 78.2847 70.3921 79.7078 70.3921L79.7078 69.362L79.7078 68.3318C78.5678 68.3318 77.7522 68.0881 77.1767 67.6916L76.5923 68.54ZM79.7078 69.362L79.7078 70.3921C81.3024 70.3921 82.696 70.0546 83.7842 69.2693L83.1814 68.4339L82.5785 67.5985C81.9521 68.0506 81.03 68.3318 79.7078 68.3318L79.7078 69.362ZM83.1814 68.4339L83.7858 69.2682C84.8525 68.4953 85.5108 67.4601 85.5108 66.1801L84.4806 66.1801L83.4504 66.1801C83.4504 66.6501 83.2426 67.1174 82.577 67.5997L83.1814 68.4339ZM84.4806 66.1801L85.5108 66.1801C85.5108 65.2022 85.1559 64.3395 84.4533 63.662L83.7382 64.4036L83.0231 65.1451C83.3104 65.4221 83.4504 65.7438 83.4504 66.1801L84.4806 66.1801ZM83.7382 64.4036L84.4601 63.6686C83.7774 62.9981 82.8127 62.574 81.6914 62.3131L81.4579 63.3164L81.2243 64.3198C82.1536 64.5361 82.7091 64.8367 83.0163 65.1385L83.7382 64.4036ZM81.4579 63.3164L81.6929 62.3134L78.299 61.518L78.0639 62.521L77.8288 63.524L81.2228 64.3194L81.4579 63.3164ZM78.0639 62.521L78.3014 61.5185C76.5402 61.1012 75.3873 60.4845 74.7035 59.7593L73.954 60.466L73.2044 61.1727C74.2707 62.3036 75.8577 63.0569 77.8263 63.5234L78.0639 62.521ZM73.954 60.466L74.7104 59.7667C74.0387 59.0401 73.6849 58.1273 73.6849 56.9527L72.6547 56.9527L71.6245 56.9527C71.6245 58.5888 72.1369 60.0181 73.1976 61.1654L73.954 60.466ZM72.6547 56.9527L73.6849 56.9527C73.6849 56.0104 73.9448 55.2092 74.4546 54.5108L73.6225 53.9034L72.7905 53.296C72.0098 54.3654 71.6245 55.597 71.6245 56.9527L72.6547 56.9527ZM73.6225 53.9034L74.4506 54.5162C74.9875 53.7907 75.7284 53.202 76.7092 52.7618L76.2873 51.822L75.8655 50.8821C74.6014 51.4495 73.5657 52.2484 72.7944 53.2906L73.6225 53.9034ZM76.2873 51.822L76.7064 52.7631C77.6868 52.3265 78.8222 52.0965 80.1321 52.0965L80.1321 51.0663L80.1321 50.0361C78.5783 50.0361 77.1505 50.3099 75.8683 50.8809L76.2873 51.822ZM80.1321 51.0663L80.1321 52.0965C82.0071 52.0965 83.3399 52.5083 84.2502 53.2086L84.8784 52.392L85.5065 51.5755C84.1188 50.5081 82.2875 50.0361 80.1321 50.0361L80.1321 51.0663ZM84.8784 52.392L84.2533 53.2109C85.2391 53.9634 85.9435 54.9551 86.3676 56.2197L87.3443 55.8921L88.321 55.5645C87.7729 53.93 86.8333 52.5884 85.5035 51.5732L84.8784 52.392ZM101.281 51.3314L102.312 51.3314L102.312 50.3012L101.281 50.3012L101.281 51.3314ZM101.281 53.983L101.281 55.0132L102.312 55.0132L102.312 53.983L101.281 53.983ZM90.7283 53.983L89.6982 53.983L89.6982 55.0132L90.7283 55.0132L90.7283 53.983ZM90.7283 51.3314L90.7283 50.3012L89.6982 50.3012L89.6982 51.3314L90.7283 51.3314ZM93.8041 46.4526L93.8041 45.4224L92.7739 45.4224L92.7739 46.4526L93.8041 46.4526ZM96.933 46.4526L97.9631 46.4526L97.9631 45.4224L96.933 45.4224L96.933 46.4526ZM97.3174 67.8506L96.4263 68.3674L96.4324 68.378L96.4388 68.3885L97.3174 67.8506ZM98.325 68.7256L97.9679 69.6919L97.9804 69.6965L97.993 69.7008L98.325 68.7256ZM100.486 68.8847L100.649 69.9019L100.668 69.8988L100.688 69.8949L100.486 68.8847ZM101.016 68.7786L102.021 68.5511L101.799 67.5714L100.814 67.7684L101.016 68.7786ZM101.653 71.5893L102.014 72.5538L102.856 72.2383L102.657 71.3618L101.653 71.5893ZM100.764 71.8279L100.553 70.8196L100.542 70.8219L100.531 70.8245L100.764 71.8279ZM96.7208 71.3904L96.296 72.3289L96.2997 72.3306L96.7208 71.3904ZM94.6261 69.6536L93.7839 70.247L93.7885 70.2533L94.6261 69.6536ZM101.281 51.3314L100.251 51.3314L100.251 53.983L101.281 53.983L102.312 53.983L102.312 51.3314L101.281 51.3314ZM101.281 53.983L101.281 52.9528L90.7283 52.9528L90.7283 53.983L90.7283 55.0132L101.281 55.0132L101.281 53.983ZM90.7283 53.983L91.7585 53.983L91.7585 51.3314L90.7283 51.3314L89.6982 51.3314L89.6982 53.983L90.7283 53.983ZM90.7283 51.3314L90.7283 52.3616L101.281 52.3616L101.281 51.3314L101.281 50.3012L90.7283 50.3012L90.7283 51.3314ZM93.8041 46.4526L93.8041 47.4828L96.933 47.4828L96.933 46.4526L96.933 45.4224L93.8041 45.4224L93.8041 46.4526ZM96.933 46.4526L95.9028 46.4526L95.9028 65.8619L96.933 65.8619L97.9631 65.8619L97.9631 46.4526L96.933 46.4526ZM96.933 65.8619L95.9028 65.8619C95.9028 66.8116 96.0345 67.692 96.4263 68.3674L97.3174 67.8506L98.2086 67.3337C98.0877 67.1253 97.9631 66.6799 97.9631 65.8619L96.933 65.8619ZM97.3174 67.8506L96.4388 68.3885C96.8032 68.9836 97.3085 69.4482 97.9679 69.6919L98.325 68.7256L98.6821 67.7593C98.5284 67.7025 98.362 67.5837 98.196 67.3127L97.3174 67.8506ZM98.325 68.7256L97.993 69.7008C98.5203 69.8803 99.0704 69.9679 99.6375 69.9679L99.6375 68.9377L99.6375 67.9075C99.2855 67.9075 98.9605 67.8537 98.657 67.7504L98.325 68.7256ZM99.6375 68.9377L99.6375 69.9679C100.011 69.9679 100.353 69.9492 100.649 69.9019L100.486 68.8847L100.323 67.8674C100.177 67.8909 99.9535 67.9075 99.6375 67.9075L99.6375 68.9377ZM100.486 68.8847L100.688 69.8949C100.909 69.8507 101.086 69.8153 101.218 69.7888L101.016 68.7786L100.814 67.7684C100.682 67.7949 100.505 67.8303 100.284 67.8745L100.486 68.8847ZM101.016 68.7786L100.012 69.0061L100.648 71.8167L101.653 71.5893L102.657 71.3618L102.021 68.5511L101.016 68.7786ZM101.653 71.5893L101.291 70.6247C101.15 70.6774 100.913 70.7443 100.553 70.8196L100.764 71.8279L100.975 72.8362C101.376 72.7524 101.731 72.6602 102.014 72.5538L101.653 71.5893ZM100.764 71.8279L100.531 70.8245C100.255 70.8887 99.8587 70.9303 99.3194 70.9303L99.3194 71.9605L99.3194 72.9907C99.9467 72.9907 100.514 72.9439 100.998 72.8313L100.764 71.8279ZM99.3194 71.9605L99.3194 70.9303C98.5881 70.9303 97.865 70.7741 97.142 70.4502L96.7208 71.3904L96.2997 72.3306C97.2737 72.7668 98.2829 72.9907 99.3194 72.9907L99.3194 71.9605ZM96.7208 71.3904L97.1456 70.4519C96.4774 70.1494 95.9193 69.6903 95.4638 69.0539L94.6261 69.6536L93.7885 70.2533C94.4466 71.1725 95.285 71.8713 96.296 72.3289L96.7208 71.3904ZM94.6261 69.6536L95.4683 69.0603C95.0697 68.4946 94.8343 67.7348 94.8343 66.7104L93.8041 66.7104L92.7739 66.7104C92.7739 68.0547 93.0865 69.257 93.784 70.247L94.6261 69.6536ZM93.8041 66.7104L94.8343 66.7104L94.8343 46.4526L93.8041 46.4526L92.7739 46.4526L92.7739 66.7104L93.8041 66.7104ZM107.526 71.6953L107.526 72.7255L108.253 72.7255L108.497 72.0399L107.526 71.6953ZM104.079 71.6953L103.112 71.3402L102.603 72.7255L104.079 72.7255L104.079 71.6953ZM114.049 44.5435L114.049 43.5133L113.33 43.5133L113.082 44.1884L114.049 44.5435ZM117.443 44.5435L118.41 44.1884L118.162 43.5133L117.443 43.5133L117.443 44.5435ZM127.412 71.6953L127.412 72.7255L128.888 72.7255L128.38 71.3402L127.412 71.6953ZM123.965 71.6953L122.995 72.0399L123.238 72.7255L123.965 72.7255L123.965 71.6953ZM115.852 48.839L116.823 48.4943L116.579 47.8088L115.852 47.8088L115.852 48.839ZM115.64 48.839L115.64 47.8088L114.912 47.8088L114.669 48.4943L115.64 48.839ZM108.799 61.0891L108.799 60.0589L107.768 60.0589L107.768 61.0891L108.799 61.0891ZM122.693 61.0891L123.723 61.0891L123.723 60.0589L122.693 60.0589L122.693 61.0891ZM122.693 64.0058L122.693 65.036L123.723 65.036L123.723 64.0058L122.693 64.0058ZM108.799 64.0058L107.768 64.0058L107.768 65.036L108.799 65.036L108.799 64.0058ZM107.526 71.6953L107.526 70.6651L104.079 70.6651L104.079 71.6953L104.079 72.7255L107.526 72.7255L107.526 71.6953ZM104.079 71.6953L105.046 72.0504L115.016 44.8986L114.049 44.5435L113.082 44.1884L103.112 71.3402L104.079 71.6953ZM114.049 44.5435L114.049 45.5737L117.443 45.5737L117.443 44.5435L117.443 43.5133L114.049 43.5133L114.049 44.5435ZM117.443 44.5435L116.476 44.8986L126.445 72.0504L127.412 71.6953L128.38 71.3402L118.41 44.1884L117.443 44.5435ZM127.412 71.6953L127.412 70.6651L123.965 70.6651L123.965 71.6953L123.965 72.7255L127.412 72.7255L127.412 71.6953ZM123.965 71.6953L124.936 71.3507L116.823 48.4943L115.852 48.839L114.881 49.1836L122.995 72.0399L123.965 71.6953ZM115.852 48.839L115.852 47.8088L115.64 47.8088L115.64 48.839L115.64 49.8692L115.852 49.8692L115.852 48.839ZM115.64 48.839L114.669 48.4943L106.555 71.3507L107.526 71.6953L108.497 72.0399L116.61 49.1836L115.64 48.839ZM108.799 61.0891L108.799 62.1193L122.693 62.1193L122.693 61.0891L122.693 60.0589L108.799 60.0589L108.799 61.0891ZM122.693 61.0891L121.663 61.0891L121.663 64.0058L122.693 64.0058L123.723 64.0058L123.723 61.0891L122.693 61.0891ZM122.693 64.0058L122.693 62.9756L108.799 62.9756L108.799 64.0058L108.799 65.036L122.693 65.036L122.693 64.0058ZM108.799 64.0058L109.829 64.0058L109.829 61.0891L108.799 61.0891L107.768 61.0891L107.768 64.0058L108.799 64.0058ZM129.262 79.1992L129.476 78.1916L129.466 78.1894L129.456 78.1874L129.262 79.1992ZM128.4 78.9606L127.41 78.675L127.173 79.4986L127.939 79.882L128.4 78.9606ZM129.196 76.2029L129.451 75.2049L128.483 74.9572L128.206 75.9174L129.196 76.2029ZM131.211 76.4151L131.118 75.3891L131.118 75.3891L131.211 76.4151ZM132.762 75.6329L132.034 74.9044L132.027 74.9114L132.02 74.9186L132.762 75.6329ZM134.021 73.3923L134.988 73.7477L134.989 73.7469L134.021 73.3923ZM134.605 71.8014L135.572 72.156L135.702 71.8008L135.572 71.4457L134.605 71.8014ZM127.074 51.3314L127.074 50.3012L125.598 50.3012L126.108 51.6871L127.074 51.3314ZM130.468 51.3314L131.442 50.9942L131.202 50.3012L130.468 50.3012L130.468 51.3314ZM136.09 67.5589L135.116 67.8961L135.356 68.5891L136.09 68.5891L136.09 67.5589ZM136.302 67.5589L136.302 68.5891L137.035 68.5891L137.275 67.8961L136.302 67.5589ZM141.923 51.3314L141.923 50.3012L141.19 50.3012L140.95 50.9942L141.923 51.3314ZM145.317 51.3314L146.283 51.6893L146.797 50.3012L145.317 50.3012L145.317 51.3314ZM136.673 74.665L135.707 74.3072L135.707 74.3078L136.673 74.665ZM135.228 77.2768L134.437 76.6173L134.432 76.6223L135.228 77.2768ZM133.226 78.828L132.81 77.8857L132.806 77.8875L133.226 78.828ZM130.681 79.3318L130.681 78.3016C130.205 78.3016 129.806 78.2618 129.476 78.1916L129.262 79.1992L129.048 80.2068C129.548 80.3134 130.095 80.362 130.681 80.362L130.681 79.3318ZM129.262 79.1992L129.456 78.1874C129.265 78.1509 129.118 78.1171 129.01 78.0871C128.894 78.0549 128.855 78.0359 128.861 78.0391L128.4 78.9606L127.939 79.882C128.239 80.0315 128.652 80.1313 129.068 80.211L129.262 79.1992ZM128.4 78.9606L129.39 79.2461L130.185 76.4885L129.196 76.2029L128.206 75.9174L127.41 78.675L128.4 78.9606ZM129.196 76.2029L128.94 77.201C129.778 77.4153 130.572 77.5076 131.304 77.441L131.211 76.4151L131.118 75.3891C130.683 75.4286 130.134 75.3795 129.451 75.2049L129.196 76.2029ZM131.211 76.4151L131.304 77.441C132.162 77.363 132.902 76.9731 133.504 76.3472L132.762 75.6329L132.02 74.9186C131.72 75.2295 131.427 75.361 131.118 75.3891L131.211 76.4151ZM132.762 75.6329L133.49 76.3613C134.105 75.747 134.588 74.8375 134.988 73.7477L134.021 73.3923L133.055 73.0369C132.695 74.0153 132.338 74.5995 132.034 74.9044L132.762 75.6329ZM134.021 73.3923L134.989 73.7469L135.572 72.156L134.605 71.8014L133.638 71.4467L133.054 73.0377L134.021 73.3923ZM134.605 71.8014L135.572 71.4457L128.041 50.9758L127.074 51.3314L126.108 51.6871L133.638 72.1571L134.605 71.8014ZM127.074 51.3314L127.074 52.3616L130.468 52.3616L130.468 51.3314L130.468 50.3012L127.074 50.3012L127.074 51.3314ZM130.468 51.3314L129.495 51.6686L135.116 67.8961L136.09 67.5589L137.063 67.2217L131.442 50.9942L130.468 51.3314ZM136.09 67.5589L136.09 68.5891L136.302 68.5891L136.302 67.5589L136.302 66.5287L136.09 66.5287L136.09 67.5589ZM136.302 67.5589L137.275 67.8961L142.897 51.6686L141.923 51.3314L140.95 50.9942L135.328 67.2217L136.302 67.5589ZM141.923 51.3314L141.923 52.3616L145.317 52.3616L145.317 51.3314L145.317 50.3012L141.923 50.3012L141.923 51.3314ZM145.317 51.3314L144.351 50.9736L135.707 74.3072L136.673 74.665L137.639 75.0229L146.283 51.6893L145.317 51.3314ZM136.673 74.665L135.707 74.3078C135.349 75.2759 134.92 76.0373 134.437 76.6173L135.228 77.2768L136.019 77.9363C136.685 77.1376 137.219 76.1577 137.639 75.0223L136.673 74.665ZM135.228 77.2768L134.432 76.6223C133.951 77.2075 133.41 77.6204 132.81 77.8857L133.226 78.828L133.642 79.7703C134.562 79.3638 135.356 78.7427 136.023 77.9314L135.228 77.2768ZM133.226 78.828L132.806 77.8875C132.205 78.156 131.503 78.3016 130.681 78.3016L130.681 79.3318L130.681 80.362C131.75 80.362 132.745 80.1716 133.646 79.7685L133.226 78.828ZM154.061 71.6953L153.075 71.9956L153.297 72.7255L154.061 72.7255L154.061 71.6953ZM147.856 51.3314L147.856 50.3012L146.465 50.3012L146.87 51.6317L147.856 51.3314ZM151.144 51.3314L152.135 51.0515L151.923 50.3012L151.144 50.3012L151.144 51.3314ZM155.545 66.9225L154.554 67.2024L154.766 67.9527L155.545 67.9527L155.545 66.9225ZM155.758 66.9225L155.758 67.9527L156.54 67.9527L156.75 67.1993L155.758 66.9225ZM160.106 51.3314L160.106 50.3012L159.324 50.3012L159.114 51.0547L160.106 51.3314ZM163.447 51.3314L164.44 51.0569L164.231 50.3012L163.447 50.3012L163.447 51.3314ZM167.743 66.8695L166.75 67.144L166.958 67.8997L167.743 67.8997L167.743 66.8695ZM167.955 66.8695L167.955 67.8997L168.734 67.8997L168.946 67.1503L167.955 66.8695ZM172.356 51.3314L172.356 50.3012L171.577 50.3012L171.365 51.0507L172.356 51.3314ZM175.644 51.3314L176.63 51.6317L177.035 50.3012L175.644 50.3012L175.644 51.3314ZM169.44 71.6953L169.44 72.7255L170.203 72.7255L170.425 71.9956L169.44 71.6953ZM166.364 71.6953L165.373 71.9774L165.586 72.7255L166.364 72.7255L166.364 71.6953ZM161.909 56.0512L162.9 55.7691L162.687 55.021L161.909 55.021L161.909 56.0512ZM161.591 56.0512L161.591 55.021L160.813 55.021L160.6 55.7691L161.591 56.0512ZM157.136 71.6953L157.136 72.7255L157.914 72.7255L158.127 71.9774L157.136 71.6953ZM154.061 71.6953L155.046 71.3951L148.841 51.0312L147.856 51.3314L146.87 51.6317L153.075 71.9956L154.061 71.6953ZM147.856 51.3314L147.856 52.3616L151.144 52.3616L151.144 51.3314L151.144 50.3012L147.856 50.3012L147.856 51.3314ZM151.144 51.3314L150.152 51.6113L154.554 67.2024L155.545 66.9225L156.537 66.6426L152.135 51.0515L151.144 51.3314ZM155.545 66.9225L155.545 67.9527L155.758 67.9527L155.758 66.9225L155.758 65.8923L155.545 65.8923L155.545 66.9225ZM155.758 66.9225L156.75 67.1993L161.098 51.6082L160.106 51.3314L159.114 51.0547L154.765 66.6458L155.758 66.9225ZM160.106 51.3314L160.106 52.3616L163.447 52.3616L163.447 51.3314L163.447 50.3012L160.106 50.3012L160.106 51.3314ZM163.447 51.3314L162.454 51.6059L166.75 67.144L167.743 66.8695L168.735 66.595L164.44 51.0569L163.447 51.3314ZM167.743 66.8695L167.743 67.8997L167.955 67.8997L167.955 66.8695L167.955 65.8393L167.743 65.8393L167.743 66.8695ZM167.955 66.8695L168.946 67.1503L173.347 51.6122L172.356 51.3314L171.365 51.0507L166.963 66.5887L167.955 66.8695ZM172.356 51.3314L172.356 52.3616L175.644 52.3616L175.644 51.3314L175.644 50.3012L172.356 50.3012L172.356 51.3314ZM175.644 51.3314L174.659 51.0312L168.454 71.3951L169.44 71.6953L170.425 71.9956L176.63 51.6317L175.644 51.3314ZM169.44 71.6953L169.44 70.6651L166.364 70.6651L166.364 71.6953L166.364 72.7255L169.44 72.7255L169.44 71.6953ZM166.364 71.6953L167.355 71.4132L162.9 55.7691L161.909 56.0512L160.918 56.3333L165.373 71.9774L166.364 71.6953ZM161.909 56.0512L161.909 55.021L161.591 55.021L161.591 56.0512L161.591 57.0814L161.909 57.0814L161.909 56.0512ZM161.591 56.0512L160.6 55.7691L156.146 71.4132L157.136 71.6953L158.127 71.9774L162.582 56.3333L161.591 56.0512ZM157.136 71.6953L157.136 70.6651L154.061 70.6651L154.061 71.6953L154.061 72.7255L157.136 72.7255L157.136 71.6953ZM201.563 65.5437L200.64 65.0861L200.64 65.0861L201.563 65.5437ZM197.307 70.3695L197.855 71.2422L197.855 71.2422L197.307 70.3695ZM184.951 70.3695L184.404 71.2422L184.404 71.2422L184.951 70.3695ZM180.695 65.5437L181.618 65.0861L181.618 65.0861L180.695 65.5437ZM180.695 50.6951L179.772 50.2375L180.695 50.6951ZM197.307 45.8692L197.855 44.9966L197.855 44.9966L197.307 45.8692ZM201.563 50.6951L200.64 51.1526L200.64 51.1526L201.563 50.6951ZM198.752 52.1667L197.824 52.6131L197.826 52.6172L198.752 52.1667ZM195.584 48.4943L195.037 49.3672L195.039 49.3688L195.584 48.4943ZM186.661 48.4943L186.117 47.6197L186.114 47.6213L186.661 48.4943ZM183.493 52.1667L182.566 51.7161L182.564 51.7202L183.493 52.1667ZM183.493 64.0721L182.564 64.5186L182.566 64.5227L183.493 64.0721ZM186.661 67.7445L186.114 68.6175L186.117 68.6191L186.661 67.7445ZM195.584 67.7445L195.039 66.8699L195.037 66.8716L195.584 67.7445ZM198.752 64.0721L197.826 63.6216L197.824 63.6257L198.752 64.0721ZM203.114 58.1194L202.084 58.1194C202.084 60.8602 201.589 63.1714 200.64 65.0861L201.563 65.5437L202.486 66.0013C203.605 63.7442 204.144 61.106 204.144 58.1194L203.114 58.1194ZM201.563 65.5437L200.64 65.0861C199.682 67.0182 198.387 68.476 196.76 69.4969L197.307 70.3695L197.855 71.2422C199.834 70.0004 201.376 68.241 202.486 66.0013L201.563 65.5437ZM197.307 70.3695L196.76 69.4969C195.135 70.5163 193.269 71.0363 191.129 71.0363L191.129 72.0665L191.129 73.0967C193.621 73.0967 195.873 72.4855 197.855 71.2422L197.307 70.3695ZM191.129 72.0665L191.129 71.0363C188.99 71.0363 187.123 70.5163 185.499 69.4969L184.951 70.3695L184.404 71.2422C186.385 72.4855 188.637 73.0967 191.129 73.0967L191.129 72.0665ZM184.951 70.3695L185.499 69.4969C183.872 68.476 182.576 67.0182 181.618 65.0861L180.695 65.5437L179.772 66.0013C180.883 68.241 182.424 70.0004 184.404 71.2422L184.951 70.3695ZM180.695 65.5437L181.618 65.0861C180.669 63.1714 180.174 60.8602 180.174 58.1194L179.144 58.1194L178.114 58.1194C178.114 61.106 178.653 63.7442 179.772 66.0013L180.695 65.5437ZM179.144 58.1194L180.174 58.1194C180.174 55.3786 180.669 53.0673 181.618 51.1526L180.695 50.6951L179.772 50.2375C178.653 52.4946 178.114 55.1328 178.114 58.1194L179.144 58.1194ZM180.695 50.6951L181.618 51.1526C182.576 49.2206 183.872 47.7628 185.499 46.7419L184.951 45.8692L184.404 44.9966C182.424 46.2384 180.883 47.9978 179.772 50.2375L180.695 50.6951ZM184.951 45.8692L185.499 46.7419C187.123 45.7225 188.99 45.2024 191.129 45.2024L191.129 44.1723L191.129 43.1421C188.637 43.1421 186.385 43.7533 184.404 44.9966L184.951 45.8692ZM191.129 44.1723L191.129 45.2024C193.269 45.2024 195.135 45.7225 196.76 46.7419L197.307 45.8692L197.855 44.9966C195.873 43.7533 193.621 43.1421 191.129 43.1421L191.129 44.1723ZM197.307 45.8692L196.76 46.7419C198.387 47.7628 199.682 49.2206 200.64 51.1526L201.563 50.6951L202.486 50.2375C201.376 47.9978 199.834 46.2384 197.855 44.9966L197.307 45.8692ZM201.563 50.6951L200.64 51.1526C201.589 53.0673 202.084 55.3786 202.084 58.1194L203.114 58.1194L204.144 58.1194C204.144 55.1328 203.605 52.4946 202.486 50.2375L201.563 50.6951ZM199.932 58.1194L200.962 58.1194C200.962 55.6583 200.551 53.5102 199.679 51.7161L198.752 52.1667L197.826 52.6172C198.527 54.058 198.902 55.8784 198.902 58.1194L199.932 58.1194ZM198.752 52.1667L199.681 51.7202C198.831 49.9521 197.651 48.5679 196.128 47.6197L195.584 48.4943L195.039 49.3688C196.185 50.0823 197.119 51.1463 197.824 52.6131L198.752 52.1667ZM195.584 48.4943L196.131 47.6213C194.633 46.6824 192.956 46.2179 191.129 46.2179L191.129 47.248L191.129 48.2782C192.59 48.2782 193.883 48.6445 195.037 49.3672L195.584 48.4943ZM191.129 47.248L191.129 46.2179C189.302 46.2179 187.623 46.6824 186.117 47.6197L186.661 48.4943L187.206 49.3688C188.369 48.6445 189.668 48.2782 191.129 48.2782L191.129 47.248ZM186.661 48.4943L186.114 47.6213C184.602 48.5692 183.424 49.9516 182.566 51.7161L183.493 52.1667L184.419 52.6172C185.134 51.1468 186.069 50.081 187.208 49.3672L186.661 48.4943ZM183.493 52.1667L182.564 51.7202C181.702 53.5132 181.296 55.6597 181.296 58.1194L182.326 58.1194L183.356 58.1194C183.356 55.877 183.728 54.0551 184.421 52.6131L183.493 52.1667ZM182.326 58.1194L181.296 58.1194C181.296 60.579 181.702 62.7256 182.564 64.5186L183.493 64.0721L184.421 63.6257C183.728 62.1837 183.356 60.3618 183.356 58.1194L182.326 58.1194ZM183.493 64.0721L182.566 64.5227C183.424 66.2872 184.602 67.6695 186.114 68.6174L186.661 67.7445L187.208 66.8716C186.069 66.1578 185.134 65.092 184.419 63.6216L183.493 64.0721ZM186.661 67.7445L186.117 68.6191C187.623 69.5564 189.302 70.0209 191.129 70.0209L191.129 68.9907L191.129 67.9605C189.668 67.9605 188.369 67.5943 187.206 66.8699L186.661 67.7445ZM191.129 68.9907L191.129 70.0209C192.956 70.0209 194.633 69.5563 196.131 68.6174L195.584 67.7445L195.037 66.8716C193.883 67.5943 192.59 67.9605 191.129 67.9605L191.129 68.9907ZM195.584 67.7445L196.128 68.6191C197.651 67.6708 198.831 66.2867 199.681 64.5186L198.752 64.0721L197.824 63.6257C197.119 65.0924 196.185 66.1565 195.039 66.8699L195.584 67.7445ZM198.752 64.0721L199.679 64.5227C200.551 62.7286 200.962 60.5805 200.962 58.1194L199.932 58.1194L198.902 58.1194C198.902 60.3604 198.527 62.1808 197.826 63.6216L198.752 64.0721ZM208.643 71.6953L207.612 71.6953L207.612 72.7255L208.643 72.7255L208.643 71.6953ZM208.643 44.5435L208.643 43.5133L207.612 43.5133L207.612 44.5435L208.643 44.5435ZM211.931 44.5435L212.961 44.5435L212.961 43.5133L211.931 43.5133L211.931 44.5435ZM211.931 58.0133L210.9 58.0133L210.9 59.0435L211.931 59.0435L211.931 58.0133ZM212.249 58.0133L212.249 59.0435L212.706 59.0435L213.012 58.7048L212.249 58.0133ZM224.446 44.5435L224.446 43.5133L223.989 43.5133L223.682 43.852L224.446 44.5435ZM228.741 44.5435L229.495 45.2453L231.108 43.5133L228.741 43.5133L228.741 44.5435ZM217.34 56.7936L216.586 56.0918L215.993 56.7286L216.522 57.4196L217.34 56.7936ZM228.741 71.6953L228.741 72.7255L230.827 72.7255L229.56 71.0693L228.741 71.6953ZM224.764 71.6953L223.939 72.3123L224.248 72.7255L224.764 72.7255L224.764 71.6953ZM215.325 59.0739L216.15 58.4569L215.393 57.4459L214.555 58.3895L215.325 59.0739ZM211.931 62.8922L211.161 62.2078L210.9 62.5005L210.9 62.8922L211.931 62.8922ZM211.931 71.6953L211.931 72.7255L212.961 72.7255L212.961 71.6953L211.931 71.6953ZM208.643 71.6953L209.673 71.6953L209.673 44.5435L208.643 44.5435L207.612 44.5435L207.612 71.6953L208.643 71.6953ZM208.643 44.5435L208.643 45.5737L211.931 45.5737L211.931 44.5435L211.931 43.5133L208.643 43.5133L208.643 44.5435ZM211.931 44.5435L210.9 44.5435L210.9 58.0133L211.931 58.0133L212.961 58.0133L212.961 44.5435L211.931 44.5435ZM211.931 58.0133L211.931 59.0435L212.249 59.0435L212.249 58.0133L212.249 56.9831L211.931 56.9831L211.931 58.0133ZM212.249 58.0133L213.012 58.7048L225.209 45.2349L224.446 44.5435L223.682 43.852L211.485 57.3219L212.249 58.0133ZM224.446 44.5435L224.446 45.5737L228.741 45.5737L228.741 44.5435L228.741 43.5133L224.446 43.5133L224.446 44.5435ZM228.741 44.5435L227.987 43.8416L216.586 56.0918L217.34 56.7936L218.094 57.4955L229.495 45.2453L228.741 44.5435ZM217.34 56.7936L216.522 57.4196L227.923 72.3213L228.741 71.6953L229.56 71.0693L218.158 56.1676L217.34 56.7936ZM228.741 71.6953L228.741 70.6651L224.764 70.6651L224.764 71.6953L224.764 72.7255L228.741 72.7255L228.741 71.6953ZM224.764 71.6953L225.589 71.0783L216.15 58.4569L215.325 59.0739L214.5 59.6909L223.939 72.3123L224.764 71.6953ZM215.325 59.0739L214.555 58.3895L211.161 62.2078L211.931 62.8922L212.701 63.5766L216.095 59.7584L215.325 59.0739ZM211.931 62.8922L210.9 62.8922L210.9 71.6953L211.931 71.6953L212.961 71.6953L212.961 62.8922L211.931 62.8922ZM211.931 71.6953L211.931 70.6651L208.643 70.6651L208.643 71.6953L208.643 72.7255L211.931 72.7255L211.931 71.6953ZM234.538 70.8203L233.996 71.6964L234.003 71.7003L234.538 70.8203ZM231.264 67.1612L230.336 67.6093L230.339 67.6156L231.264 67.1612ZM231.264 56.1572L230.335 55.711L230.334 55.7131L231.264 56.1572ZM234.472 52.4186L235.034 53.2817L235.036 53.2808L234.472 52.4186ZM242.44 51.5966L242.773 50.6218L242.773 50.6218L242.44 51.5966ZM245.264 53.3201L244.559 54.0717L244.563 54.0756L245.264 53.3201ZM247.292 56.4489L248.253 56.0765L248.253 56.0765L247.292 56.4489ZM248.048 62.574L248.048 63.6042L249.078 63.6042L249.078 62.574L248.048 62.574ZM232.351 62.574L231.321 62.574L231.321 63.6042L232.351 63.6042L232.351 62.574ZM232.351 59.8694L232.351 58.8392L231.321 58.8392L231.321 59.8694L232.351 59.8694ZM244.866 59.8694L244.866 60.8996L245.896 60.8996L245.896 59.8694L244.866 59.8694ZM244.177 56.7936L243.255 57.2543L243.259 57.2615L244.177 56.7936ZM242.241 54.6591L241.693 55.5317L241.698 55.5343L242.241 54.6591ZM236.063 54.805L236.64 55.6582L236.642 55.657L236.063 54.805ZM233.981 57.1913L233.058 56.734L233.058 56.734L233.981 57.1913ZM234.048 66.0608L233.125 66.5185L233.129 66.5276L234.048 66.0608ZM236.288 68.4869L235.769 69.3768L235.775 69.3804L236.288 68.4869ZM241.843 68.9642L242.181 69.9376L242.188 69.935L241.843 68.9642ZM243.58 67.9036L244.295 68.6454L244.302 68.6387L243.58 67.9036ZM244.707 66.1271L244.985 65.1352L244.075 64.8795L243.742 65.7653L244.707 66.1271ZM247.73 66.9756L248.714 67.2809L249.027 66.2698L248.008 65.9837L247.73 66.9756ZM246.126 69.6801L246.862 70.4001L246.867 70.3958L246.126 69.6801ZM243.341 71.4832L243.711 72.4449L243.717 72.4423L243.341 71.4832ZM239.616 72.1196L239.616 71.0894C237.809 71.0894 236.309 70.692 235.074 69.9403L234.538 70.8203L234.003 71.7003C235.614 72.681 237.499 73.1497 239.616 73.1497L239.616 72.1196ZM234.538 70.8203L235.08 69.9443C233.839 69.1761 232.876 68.1063 232.188 66.7067L231.264 67.1612L230.339 67.6156C231.189 69.3449 232.409 70.7145 233.996 71.6963L234.538 70.8203ZM231.264 67.1612L232.191 66.713C231.511 65.304 231.154 63.6329 231.154 61.6725L230.123 61.6725L229.093 61.6725C229.093 63.8838 229.497 65.8718 230.336 67.6093L231.264 67.1612ZM230.123 61.6725L231.154 61.6725C231.154 59.7124 231.51 58.0305 232.193 56.6014L231.264 56.1572L230.334 55.7131C229.497 57.4659 229.093 59.4608 229.093 61.6725L230.123 61.6725ZM231.264 56.1572L232.192 56.6035C232.887 55.1585 233.836 54.0628 235.034 53.2817L234.472 52.4186L233.91 51.5555C232.368 52.5597 231.178 53.9564 230.335 55.711L231.264 56.1572ZM234.472 52.4186L235.036 53.2808C236.228 52.5013 237.636 52.0965 239.298 52.0965L239.298 51.0663L239.298 50.0361C237.283 50.0361 235.474 50.5328 233.908 51.5563L234.472 52.4186ZM239.298 51.0663L239.298 52.0965C240.242 52.0965 241.177 52.2534 242.107 52.5714L242.44 51.5966L242.773 50.6218C241.635 50.2327 240.475 50.0361 239.298 50.0361L239.298 51.0663ZM242.44 51.5966L242.107 52.5714C242.994 52.8747 243.81 53.3695 244.559 54.0716L245.264 53.3201L245.968 52.5685C245.02 51.6797 243.954 51.0256 242.773 50.6218L242.44 51.5966ZM245.264 53.3201L244.563 54.0756C245.276 54.7364 245.873 55.6385 246.332 56.8214L247.292 56.4489L248.253 56.0765C247.704 54.6609 246.948 53.4771 245.964 52.5646L245.264 53.3201ZM247.292 56.4489L246.332 56.8214C246.776 57.9672 247.018 59.432 247.018 61.2482L248.048 61.2482L249.078 61.2482C249.078 59.2639 248.816 57.5291 248.253 56.0765L247.292 56.4489ZM248.048 61.2482L247.018 61.2482L247.018 62.574L248.048 62.574L249.078 62.574L249.078 61.2482L248.048 61.2482ZM248.048 62.574L248.048 61.5438L232.351 61.5438L232.351 62.574L232.351 63.6042L248.048 63.6042L248.048 62.574ZM232.351 62.574L233.381 62.574L233.381 59.8694L232.351 59.8694L231.321 59.8694L231.321 62.574L232.351 62.574ZM232.351 59.8694L232.351 60.8996L244.866 60.8996L244.866 59.8694L244.866 58.8392L232.351 58.8392L232.351 59.8694ZM244.866 59.8694L245.896 59.8694C245.896 58.58 245.637 57.3907 245.094 56.3257L244.177 56.7936L243.259 57.2615C243.635 57.9996 243.836 58.8609 243.836 59.8694L244.866 59.8694ZM244.177 56.7936L245.098 56.3329C244.564 55.2645 243.789 54.4081 242.785 53.784L242.241 54.6591L241.698 55.5343C242.372 55.9531 242.888 56.5197 243.255 57.2543L244.177 56.7936ZM242.241 54.6591L242.789 53.7866C241.77 53.1471 240.593 52.8467 239.298 52.8467L239.298 53.8769L239.298 54.9071C240.266 54.9071 241.051 55.1282 241.693 55.5317L242.241 54.6591ZM239.298 53.8769L239.298 52.8467C237.873 52.8467 236.587 53.2032 235.484 53.9529L236.063 54.805L236.642 55.657C237.36 55.1693 238.23 54.9071 239.298 54.9071L239.298 53.8769ZM236.063 54.805L235.486 53.9517C234.436 54.662 233.623 55.5942 233.058 56.734L233.981 57.1913L234.905 57.6487C235.312 56.8263 235.887 56.1676 236.64 55.6582L236.063 54.805ZM233.981 57.1913L233.058 56.734C232.5 57.8609 232.222 59.0697 232.222 60.3467L233.252 60.3467L234.282 60.3467C234.282 59.3787 234.491 58.484 234.905 57.6487L233.981 57.1913ZM233.252 60.3467L232.222 60.3467L232.222 62.1497L233.252 62.1497L234.282 62.1497L234.282 60.3467L233.252 60.3467ZM233.252 62.1497L232.222 62.1497C232.222 63.8022 232.507 65.2718 233.125 66.5184L234.048 66.0608L234.971 65.6031C234.528 64.7109 234.282 63.5731 234.282 62.1497L233.252 62.1497ZM234.048 66.0608L233.129 66.5276C233.751 67.7505 234.631 68.7125 235.769 69.3768L236.288 68.4869L236.807 67.5971C236.037 67.1477 235.423 66.4923 234.966 65.594L234.048 66.0608ZM236.288 68.4869L235.775 69.3804C236.908 70.0305 238.199 70.3391 239.616 70.3391L239.616 69.3089L239.616 68.2787C238.505 68.2787 237.578 68.0393 236.801 67.5935L236.288 68.4869ZM239.616 69.3089L239.616 70.3391C240.534 70.3391 241.393 70.2108 242.181 69.9376L241.843 68.9642L241.506 67.9909C240.968 68.1772 240.342 68.2787 239.616 68.2787L239.616 69.3089ZM241.843 68.9642L242.188 69.935C242.99 69.65 243.697 69.2213 244.295 68.6454L243.58 67.9036L242.865 67.1618C242.491 67.5228 242.04 67.8011 241.498 67.9935L241.843 68.9642ZM243.58 67.9036L244.302 68.6387C244.906 68.0452 245.359 67.3212 245.672 66.4888L244.707 66.1271L243.742 65.7653C243.524 66.3471 243.226 66.8074 242.858 67.1685L243.58 67.9036ZM244.707 66.1271L244.429 67.1189L247.451 67.9674L247.73 66.9756L248.008 65.9837L244.985 65.1352L244.707 66.1271ZM247.73 66.9756L246.746 66.6702C246.476 67.5404 246.025 68.3017 245.385 68.9644L246.126 69.6801L246.867 70.3958C247.729 69.503 248.347 68.4612 248.714 67.2809L247.73 66.9756ZM246.126 69.6801L245.389 68.9602C244.75 69.6144 243.949 70.1387 242.965 70.5241L243.341 71.4832L243.717 72.4423C244.944 71.9615 245.999 71.2838 246.862 70.4001L246.126 69.6801ZM243.341 71.4832L242.972 70.5215C242.003 70.8937 240.889 71.0894 239.616 71.0894L239.616 72.1196L239.616 73.1497C241.101 73.1497 242.47 72.9212 243.711 72.4449L243.341 71.4832Z" fill="url(#paint0_linear_559_1983)" mask="url(#path-5-outside-1_559_1983)"/>
<path d="M80.7626 87.9742L79.4808 95.6953L78.576 95.6953L75.379 89.6331L75.3036 89.6331L74.2932 95.6953L73.3582 95.6953L74.64 87.9742L75.5448 87.9742L78.7569 94.0516L78.8323 94.0516L79.8427 87.9742L80.7626 87.9742ZM83.6212 95.816C83.0884 95.816 82.6423 95.689 82.2829 95.4352C81.9235 95.1813 81.6696 94.8257 81.5213 94.3683C81.3755 93.9108 81.3517 93.378 81.4497 92.7698C81.5452 92.1766 81.735 91.6601 82.019 91.2203C82.3055 90.7779 82.6611 90.4361 83.0859 90.1948C83.5132 89.951 83.9832 89.8291 84.4959 89.8291C85.0287 89.8291 85.4736 89.9573 85.8305 90.2137C86.1899 90.4675 86.4438 90.8244 86.592 91.2843C86.7403 91.7418 86.7655 92.2771 86.6674 92.8904C86.5719 93.4785 86.3797 93.9925 86.0906 94.4323C85.8041 94.8697 85.4485 95.2102 85.0237 95.454C84.6015 95.6953 84.134 95.816 83.6212 95.816ZM83.6363 95.0167C84.0435 95.0167 84.3966 94.9124 84.6957 94.7038C84.9973 94.4952 85.2411 94.22 85.4271 93.8781C85.6156 93.5363 85.7425 93.1669 85.8079 92.7698C85.8682 92.3927 85.8657 92.0421 85.8003 91.7179C85.735 91.3912 85.5955 91.1285 85.3819 90.93C85.1682 90.7289 84.8679 90.6284 84.4808 90.6284C84.0736 90.6284 83.718 90.7339 83.4139 90.945C83.1123 91.1562 82.8685 91.4339 82.6825 91.7782C82.4965 92.1226 82.3721 92.4933 82.3093 92.8904C82.2489 93.2674 82.2502 93.618 82.313 93.9422C82.3784 94.2639 82.5179 94.5241 82.7315 94.7226C82.9477 94.9187 83.2493 95.0167 83.6363 95.0167ZM95.8447 89.9648C95.8447 89.5501 95.7077 89.236 95.4338 89.0223C95.1598 88.8062 94.7891 88.6981 94.3216 88.6981C93.9798 88.6981 93.6719 88.7534 93.3979 88.864C93.124 88.9746 92.9003 89.1266 92.7269 89.3202C92.5534 89.5137 92.4466 89.7336 92.4064 89.9799C92.3737 90.186 92.3951 90.3632 92.4705 90.5115C92.5459 90.6573 92.6527 90.7792 92.7909 90.8772C92.9317 90.9727 93.0825 91.0519 93.2434 91.1147C93.4042 91.175 93.5525 91.224 93.6882 91.2617L94.4422 91.4729C94.6307 91.5256 94.8406 91.5985 95.0718 91.6915C95.3031 91.7845 95.5192 91.9114 95.7203 92.0723C95.9214 92.2306 96.0747 92.4342 96.1802 92.683C96.2883 92.9319 96.3122 93.2372 96.2519 93.5992C96.1815 94.0164 96.0093 94.3934 95.7354 94.7302C95.4639 95.067 95.1045 95.3346 94.6571 95.5332C94.2123 95.7318 93.6932 95.831 93.1001 95.831C92.5472 95.831 92.0822 95.7418 91.7052 95.5634C91.3307 95.3849 91.0542 95.1361 90.8758 94.8169C90.6998 94.4977 90.632 94.127 90.6722 93.7047L91.6373 93.7047C91.6122 93.9963 91.67 94.2376 91.8107 94.4286C91.9515 94.6171 92.1475 94.7578 92.3989 94.8508C92.6502 94.9413 92.9292 94.9865 93.2358 94.9865C93.5927 94.9865 93.922 94.9287 94.2236 94.8131C94.5277 94.695 94.779 94.5316 94.9776 94.323C95.1787 94.1119 95.3018 93.8656 95.347 93.5841C95.3923 93.3277 95.3571 93.1191 95.2415 92.9583C95.1259 92.7974 94.9587 92.6667 94.7401 92.5662C94.5214 92.4656 94.2814 92.3777 94.02 92.3023L93.1152 92.0308C92.5421 91.8574 92.1061 91.6098 91.807 91.2881C91.5104 90.9664 91.4036 90.5454 91.4865 90.0252C91.5619 89.5929 91.7441 89.2158 92.0332 88.8941C92.3222 88.5699 92.6804 88.3186 93.1076 88.1401C93.5349 87.9592 93.9949 87.8687 94.4875 87.8687C94.9851 87.8687 95.4111 87.9592 95.7655 88.1401C96.1199 88.3186 96.3838 88.5661 96.5572 88.8828C96.7307 89.197 96.7947 89.5577 96.7495 89.9648L95.8447 89.9648ZM99.4932 87.9742L98.2113 95.6953L97.3216 95.6953L98.6034 87.9742L99.4932 87.9742ZM102.254 95.816C101.698 95.816 101.24 95.6928 100.878 95.4465C100.516 95.1977 100.263 94.8508 100.12 94.406C99.9767 93.9586 99.9541 93.4383 100.052 92.8452C100.15 92.252 100.345 91.7292 100.636 91.2768C100.928 90.8219 101.291 90.4675 101.726 90.2137C102.161 89.9573 102.638 89.8291 103.159 89.8291C103.46 89.8291 103.75 89.8794 104.029 89.9799C104.308 90.0804 104.55 90.2438 104.753 90.47C104.957 90.6937 105.099 90.9903 105.179 91.3598C105.26 91.7292 105.255 92.1841 105.164 92.7245L105.104 93.1015L100.64 93.1015L100.761 92.3324L104.32 92.3324C104.378 92.0057 104.363 91.7141 104.275 91.4578C104.189 91.2014 104.04 90.9991 103.826 90.8508C103.615 90.7025 103.347 90.6284 103.023 90.6284C102.689 90.6284 102.377 90.7188 102.088 90.8998C101.799 91.0783 101.558 91.3045 101.364 91.5784C101.171 91.8499 101.05 92.1263 101.002 92.4078L100.897 93.0714C100.821 93.5514 100.832 93.9334 100.93 94.2175C101.031 94.5015 101.206 94.7063 101.455 94.832C101.703 94.9551 102.015 95.0167 102.39 95.0167C102.628 95.0167 102.848 94.984 103.049 94.9187C103.25 94.8508 103.43 94.7503 103.588 94.6171C103.747 94.4814 103.88 94.313 103.988 94.1119L104.802 94.3532C104.664 94.6447 104.469 94.9011 104.218 95.1223C103.969 95.3409 103.678 95.5118 103.343 95.635C103.012 95.7556 102.648 95.816 102.254 95.816ZM108.454 95.816C107.898 95.816 107.439 95.6928 107.078 95.4465C106.716 95.1977 106.463 94.8508 106.32 94.406C106.177 93.9586 106.154 93.4383 106.252 92.8452C106.35 92.252 106.545 91.7292 106.836 91.2768C107.128 90.8219 107.491 90.4675 107.926 90.2137C108.361 89.9573 108.838 89.8291 109.358 89.8291C109.66 89.8291 109.95 89.8794 110.229 89.9799C110.508 90.0804 110.75 90.2438 110.953 90.47C111.157 90.6937 111.299 90.9903 111.379 91.3598C111.46 91.7292 111.455 92.1841 111.364 92.7245L111.304 93.1015L106.84 93.1015L106.961 92.3324L110.52 92.3324C110.577 92.0057 110.562 91.7141 110.474 91.4578C110.389 91.2014 110.239 90.9991 110.026 90.8508C109.815 90.7025 109.547 90.6284 109.223 90.6284C108.888 90.6284 108.577 90.7188 108.288 90.8998C107.999 91.0783 107.757 91.3045 107.564 91.5784C107.37 91.8499 107.25 92.1263 107.202 92.4078L107.096 93.0714C107.021 93.5514 107.032 93.9334 107.13 94.2175C107.231 94.5015 107.406 94.7063 107.654 94.832C107.903 94.9551 108.215 95.0167 108.589 95.0167C108.828 95.0167 109.048 94.984 109.249 94.9187C109.45 94.8508 109.63 94.7503 109.788 94.6171C109.947 94.4814 110.08 94.313 110.188 94.1119L111.002 94.3532C110.864 94.6447 110.669 94.9011 110.418 95.1223C110.169 95.3409 109.877 95.5118 109.543 95.635C109.211 95.7556 108.848 95.816 108.454 95.816ZM111.879 97.8669L113.213 89.9045L114.073 89.9045L113.922 90.8244L114.028 90.8244C114.108 90.7239 114.219 90.5957 114.359 90.4399C114.503 90.2815 114.695 90.1408 114.936 90.0176C115.18 89.8919 115.49 89.8291 115.867 89.8291C116.355 89.8291 116.763 89.951 117.093 90.1948C117.422 90.4386 117.654 90.7842 117.79 91.2316C117.926 91.6789 117.943 92.2068 117.843 92.815C117.742 93.4283 117.55 93.9598 117.266 94.4097C116.982 94.8571 116.635 95.2039 116.226 95.4503C115.816 95.6941 115.37 95.816 114.887 95.816C114.515 95.816 114.227 95.7544 114.024 95.6312C113.82 95.5056 113.672 95.3635 113.579 95.2052C113.486 95.0443 113.414 94.9111 113.364 94.8056L113.289 94.8056L112.776 97.8669L111.879 97.8669ZM113.605 92.7999C113.535 93.2372 113.535 93.623 113.605 93.9573C113.678 94.2891 113.823 94.5492 114.039 94.7377C114.258 94.9237 114.545 95.0167 114.902 95.0167C115.274 95.0167 115.6 94.9187 115.879 94.7226C116.16 94.5241 116.391 94.2577 116.572 93.9234C116.756 93.5866 116.883 93.2121 116.953 92.7999C117.019 92.3927 117.016 92.0258 116.946 91.6991C116.875 91.3698 116.732 91.1097 116.516 90.9187C116.3 90.7251 116.003 90.6284 115.626 90.6284C115.264 90.6284 114.944 90.7201 114.665 90.9036C114.388 91.0845 114.16 91.3384 113.979 91.6651C113.8 91.9893 113.676 92.3676 113.605 92.7999ZM118.72 95.6953L119.686 89.9045L120.575 89.9045L119.61 95.6953L118.72 95.6953ZM120.402 88.9243C120.228 88.9243 120.079 88.8652 119.953 88.7471C119.83 88.629 119.769 88.487 119.769 88.3211C119.769 88.1552 119.83 88.0132 119.953 87.8951C120.079 87.7769 120.228 87.7179 120.402 87.7179C120.575 87.7179 120.724 87.7769 120.847 87.8951C120.972 88.0132 121.035 88.1552 121.035 88.3211C121.035 88.487 120.972 88.629 120.847 88.7471C120.724 88.8652 120.575 88.9243 120.402 88.9243ZM122.703 92.2118L122.13 95.6953L121.24 95.6953L122.205 89.9045L123.064 89.9045L122.914 90.8093L122.989 90.8093C123.17 90.5153 123.415 90.279 123.724 90.1006C124.033 89.9196 124.407 89.8291 124.844 89.8291C125.231 89.8291 125.558 89.9095 125.824 90.0704C126.093 90.2287 126.283 90.47 126.393 90.7942C126.507 91.116 126.523 91.5231 126.442 92.0157L125.824 95.6953L124.934 95.6953L125.538 92.0761C125.613 91.6237 125.554 91.2693 125.36 91.0129C125.169 90.7565 124.867 90.6284 124.452 90.6284C124.165 90.6284 123.9 90.6899 123.656 90.8131C123.415 90.9362 123.21 91.116 123.042 91.3522C122.876 91.5885 122.763 91.875 122.703 92.2118ZM129.516 87.9742L129.41 88.6529C129.378 88.8589 129.304 89.0789 129.188 89.3126C129.075 89.5438 128.929 89.7688 128.751 89.9875C128.572 90.2036 128.37 90.3921 128.144 90.553L127.721 90.1609C127.917 89.9347 128.092 89.6997 128.245 89.4559C128.401 89.2096 128.503 88.9469 128.551 88.6679L128.671 87.9742L129.516 87.9742ZM129.87 94.6397L129.735 95.0469C129.644 95.3334 129.529 95.64 129.388 95.9668C129.247 96.2935 129.108 96.6014 128.969 96.8904C128.831 97.1795 128.719 97.4094 128.634 97.5803L127.955 97.5803C128.01 97.4195 128.086 97.2071 128.181 96.9432C128.277 96.6793 128.379 96.3852 128.487 96.061C128.595 95.7368 128.694 95.4038 128.785 95.0619L128.905 94.6397L129.87 94.6397ZM138.682 87.9742L139.617 87.9742L138.697 93.5238C138.617 94.0164 138.463 94.4323 138.237 94.7716C138.013 95.1084 137.727 95.3648 137.377 95.5407C137.031 95.7142 136.631 95.8009 136.179 95.8009C135.746 95.8009 135.374 95.723 135.063 95.5671C134.751 95.4113 134.522 95.1901 134.377 94.9036C134.231 94.6171 134.188 94.2778 134.248 93.8857L135.138 93.8857C135.108 94.1119 135.132 94.3067 135.21 94.47C135.288 94.6309 135.411 94.7553 135.579 94.8433C135.75 94.9287 135.955 94.9715 136.194 94.9715C136.47 94.9715 136.716 94.9137 136.933 94.798C137.151 94.6799 137.332 94.509 137.476 94.2853C137.621 94.0591 137.722 93.7852 137.777 93.4634L138.682 87.9742ZM144.13 93.3277L144.703 89.9045L145.592 89.9045L144.627 95.6953L143.738 95.6953L143.903 94.7151L143.843 94.7151C143.662 95.0092 143.41 95.2592 143.085 95.4653C142.761 95.6689 142.38 95.7707 141.943 95.7707C141.581 95.7707 141.272 95.6915 141.016 95.5332C140.762 95.3723 140.581 95.1311 140.473 94.8093C140.367 94.4851 140.355 94.0767 140.435 93.5841L141.053 89.9045L141.943 89.9045L141.34 93.5238C141.272 93.946 141.336 94.2828 141.532 94.5341C141.728 94.7855 142.011 94.9111 142.38 94.9111C142.602 94.9111 142.835 94.8546 143.082 94.7415C143.33 94.6284 143.552 94.455 143.745 94.2212C143.941 93.9875 144.069 93.6896 144.13 93.3277ZM151.113 91.2014L150.268 91.4276C150.238 91.2919 150.185 91.1612 150.11 91.0355C150.037 90.9073 149.924 90.803 149.771 90.7226C149.62 90.6397 149.414 90.5982 149.152 90.5982C148.798 90.5982 148.49 90.6799 148.229 90.8433C147.967 91.0041 147.818 91.2089 147.78 91.4578C147.742 91.6764 147.793 91.8511 147.931 91.9818C148.069 92.1125 148.3 92.2193 148.625 92.3023L149.454 92.5134C149.952 92.6416 150.306 92.8338 150.517 93.0902C150.731 93.3441 150.804 93.6746 150.736 94.0817C150.68 94.4135 150.536 94.7101 150.302 94.9715C150.068 95.2329 149.769 95.4389 149.405 95.5898C149.04 95.7406 148.635 95.816 148.187 95.816C147.592 95.816 147.122 95.6878 146.777 95.4314C146.433 95.1725 146.249 94.798 146.227 94.3079L147.116 94.0968C147.139 94.406 147.25 94.6397 147.448 94.798C147.649 94.9539 147.931 95.0318 148.293 95.0318C148.707 95.0318 149.053 94.9438 149.33 94.7679C149.606 94.5894 149.763 94.3758 149.801 94.127C149.838 93.9234 149.798 93.7537 149.68 93.618C149.565 93.4823 149.363 93.3805 149.077 93.3126L148.157 93.0864C147.644 92.9583 147.285 92.7622 147.079 92.4983C146.875 92.2344 146.807 91.9026 146.875 91.503C146.93 91.1763 147.071 90.8872 147.297 90.6359C147.526 90.3846 147.813 90.1873 148.157 90.044C148.504 89.9007 148.881 89.8291 149.288 89.8291C149.861 89.8291 150.29 89.9548 150.574 90.2061C150.858 90.4549 151.037 90.7867 151.113 91.2014ZM155.287 89.9045L155.166 90.6585L152.166 90.6585L152.286 89.9045L155.287 89.9045ZM153.387 88.5171L154.277 88.5171L153.357 94.0365C153.317 94.2878 153.323 94.4763 153.376 94.602C153.431 94.7252 153.514 94.8081 153.625 94.8508C153.738 94.891 153.86 94.9111 153.99 94.9111C154.088 94.9111 154.169 94.9061 154.232 94.8961C154.294 94.8835 154.345 94.8734 154.382 94.8659L154.443 95.6652C154.375 95.6878 154.283 95.7104 154.167 95.733C154.054 95.7581 153.915 95.7707 153.749 95.7707C153.498 95.7707 153.261 95.7167 153.04 95.6086C152.819 95.5005 152.649 95.3359 152.531 95.1147C152.413 94.8935 152.382 94.6146 152.437 94.2778L153.387 88.5171ZM161.18 95.6953L158.767 95.6953L160.049 87.9742L162.507 87.9742C163.256 87.9742 163.873 88.1313 164.358 88.4455C164.845 88.7597 165.185 89.2083 165.376 89.7914C165.569 90.3745 165.598 91.0707 165.463 91.88C165.332 92.6742 165.078 93.3566 164.701 93.9272C164.326 94.4952 163.841 94.9325 163.246 95.2391C162.653 95.5433 161.964 95.6953 161.18 95.6953ZM159.841 94.8659L161.21 94.8659C161.848 94.8659 162.399 94.7402 162.861 94.4889C163.326 94.2376 163.701 93.8794 163.985 93.4144C164.271 92.9495 164.467 92.3978 164.573 91.7594C164.678 91.1461 164.668 90.6196 164.543 90.1797C164.419 89.7374 164.177 89.3981 163.815 89.1618C163.456 88.923 162.974 88.8037 162.371 88.8037L160.844 88.8037L159.841 94.8659ZM166.277 95.6953L167.242 89.9045L168.102 89.9045L167.951 90.7792L168.011 90.7792C168.162 90.4926 168.392 90.2602 168.701 90.0817C169.01 89.9033 169.338 89.814 169.685 89.814C169.753 89.814 169.835 89.8153 169.93 89.8178C170.026 89.8178 170.1 89.8216 170.152 89.8291L170.002 90.7339C169.971 90.7264 169.904 90.7151 169.798 90.7C169.693 90.6824 169.579 90.6736 169.459 90.6736C169.177 90.6736 168.917 90.7327 168.678 90.8508C168.44 90.9664 168.24 91.1273 168.079 91.3334C167.918 91.5369 167.815 91.7694 167.77 92.0308L167.167 95.6953L166.277 95.6953ZM170.248 95.6953L171.213 89.9045L172.103 89.9045L171.137 95.6953L170.248 95.6953ZM171.929 88.9243C171.756 88.9243 171.606 88.8652 171.48 88.7471C171.357 88.629 171.296 88.487 171.296 88.3211C171.296 88.1552 171.357 88.0132 171.48 87.8951C171.606 87.7769 171.756 87.7179 171.929 87.7179C172.103 87.7179 172.251 87.7769 172.374 87.8951C172.5 88.0132 172.562 88.1552 172.562 88.3211C172.562 88.487 172.5 88.629 172.374 88.7471C172.251 88.8652 172.103 88.9243 171.929 88.9243ZM172.405 97.8669L173.74 89.9045L174.599 89.9045L174.448 90.8244L174.554 90.8244C174.634 90.7239 174.745 90.5957 174.886 90.4399C175.029 90.2815 175.221 90.1408 175.463 90.0176C175.706 89.8919 176.017 89.8291 176.394 89.8291C176.881 89.8291 177.29 89.951 177.619 90.1948C177.948 90.4386 178.181 90.7842 178.317 91.2316C178.452 91.6789 178.47 92.2068 178.369 92.815C178.269 93.4283 178.076 93.9598 177.792 94.4097C177.508 94.8571 177.162 95.2039 176.752 95.4503C176.342 95.6941 175.896 95.816 175.414 95.816C175.042 95.816 174.754 95.7544 174.55 95.6312C174.347 95.5056 174.198 95.3635 174.105 95.2052C174.012 95.0443 173.941 94.9111 173.89 94.8056L173.815 94.8056L173.302 97.8669L172.405 97.8669ZM174.132 92.7999C174.061 93.2372 174.061 93.623 174.132 93.9573C174.205 94.2891 174.349 94.5492 174.565 94.7377C174.784 94.9237 175.072 95.0167 175.429 95.0167C175.801 95.0167 176.126 94.9187 176.405 94.7226C176.687 94.5241 176.918 94.2577 177.099 93.9234C177.282 93.5866 177.409 93.2121 177.48 92.7999C177.545 92.3927 177.542 92.0258 177.472 91.6991C177.402 91.3698 177.258 91.1097 177.042 90.9187C176.826 90.7251 176.53 90.6284 176.152 90.6284C175.791 90.6284 175.47 90.7201 175.191 90.9036C174.915 91.0845 174.686 91.3384 174.505 91.6651C174.327 91.9893 174.202 92.3676 174.132 92.7999ZM178.885 97.8669L180.219 89.9045L181.079 89.9045L180.928 90.8244L181.034 90.8244C181.114 90.7239 181.225 90.5957 181.366 90.4399C181.509 90.2815 181.701 90.1408 181.942 90.0176C182.186 89.8919 182.497 89.8291 182.874 89.8291C183.361 89.8291 183.77 89.951 184.099 90.1948C184.428 90.4386 184.661 90.7842 184.796 91.2316C184.932 91.6789 184.95 92.2068 184.849 92.815C184.749 93.4283 184.556 93.9598 184.272 94.4097C183.988 94.8571 183.641 95.2039 183.232 95.4503C182.822 95.6941 182.376 95.816 181.893 95.816C181.521 95.816 181.234 95.7544 181.03 95.6312C180.826 95.5056 180.678 95.3635 180.585 95.2052C180.492 95.0443 180.421 94.9111 180.37 94.8056L180.295 94.8056L179.782 97.8669L178.885 97.8669ZM180.612 92.7999C180.541 93.2372 180.541 93.623 180.612 93.9573C180.684 94.2891 180.829 94.5492 181.045 94.7377C181.264 94.9237 181.552 95.0167 181.908 95.0167C182.28 95.0167 182.606 94.9187 182.885 94.7226C183.166 94.5241 183.398 94.2577 183.579 93.9234C183.762 93.5866 183.889 93.2121 183.959 92.7999C184.025 92.3927 184.022 92.0258 183.952 91.6991C183.881 91.3698 183.738 91.1097 183.522 90.9187C183.306 90.7251 183.009 90.6284 182.632 90.6284C182.27 90.6284 181.95 90.7201 181.671 90.9036C181.394 91.0845 181.166 91.3384 180.985 91.6651C180.806 91.9893 180.682 92.3676 180.612 92.7999ZM185.727 95.6953L186.692 89.9045L187.581 89.9045L186.616 95.6953L185.727 95.6953ZM187.408 88.9243C187.235 88.9243 187.085 88.8652 186.959 88.7471C186.836 88.629 186.775 88.487 186.775 88.3211C186.775 88.1552 186.836 88.0132 186.959 87.8951C187.085 87.7769 187.235 87.7179 187.408 87.7179C187.581 87.7179 187.73 87.7769 187.853 87.8951C187.979 88.0132 188.041 88.1552 188.041 88.3211C188.041 88.487 187.979 88.629 187.853 88.7471C187.73 88.8652 187.581 88.9243 187.408 88.9243ZM189.709 92.2118L189.136 95.6953L188.246 95.6953L189.211 89.9045L190.071 89.9045L189.92 90.8093L189.995 90.8093C190.176 90.5153 190.421 90.279 190.73 90.1006C191.039 89.9196 191.413 89.8291 191.85 89.8291C192.237 89.8291 192.564 89.9095 192.83 90.0704C193.099 90.2287 193.289 90.47 193.4 90.7942C193.513 91.116 193.529 91.5231 193.449 92.0157L192.83 95.6953L191.941 95.6953L192.544 92.0761C192.619 91.6237 192.56 91.2693 192.367 91.0129C192.176 90.7565 191.873 90.6284 191.458 90.6284C191.171 90.6284 190.906 90.6899 190.662 90.8131C190.421 90.9362 190.216 91.116 190.048 91.3522C189.882 91.5885 189.769 91.875 189.709 92.2118ZM196.522 87.9742L196.417 88.6529C196.384 88.8589 196.31 89.0789 196.194 89.3126C196.081 89.5438 195.935 89.7688 195.757 89.9875C195.578 90.2036 195.376 90.3921 195.15 90.553L194.728 90.1609C194.924 89.9347 195.098 89.6997 195.252 89.4559C195.407 89.2096 195.509 88.9469 195.557 88.6679L195.678 87.9742L196.522 87.9742Z" fill="white"/>
</g>
<defs>
<filter id="filter0_d_559_1983" x="-6.78956" y="0.329205" width="289.42" height="136.42" filterUnits="userSpaceOnUse" color-interpolation-filters="sRGB">
<feFlood flood-opacity="0" result="BackgroundImageFix"/>
<feColorMatrix in="SourceAlpha" type="matrix" values="0 0 0 0 0 0 0 0 0 0 0 0 0 0 0 0 0 0 127 0" result="hardAlpha"/>
<feOffset dx="3.42043" dy="1.53919"/>
<feGaussianBlur stdDeviation="5.10499"/>
<feComposite in2="hardAlpha" operator="out"/>
<feColorMatrix type="matrix" values="0 0 0 0 0 0 0 0 0 0 0 0 0 0 0 0 0 0 0.25 0"/>
<feBlend mode="normal" in2="BackgroundImageFix" result="effect1_dropShadow_559_1983"/>
<feBlend mode="normal" in="BackgroundImageFix" in2="effect1_dropShadow_559_1983" result="BackgroundImageFix"/>
<feBlend mode="normal" in="SourceGraphic" in2="BackgroundImageFix" result="shape"/>
</filter>
<linearGradient id="paint0_linear_559_1983" x1="70" y1="58.1953" x2="250" y2="58.1953" gradientUnits="userSpaceOnUse">
<stop stop-color="#1762A8"/>
<stop offset="1" stop-color="#BE0E0E"/>
</linearGradient>
</defs>
</svg>
