<svg width="269" height="116" viewBox="0 0 269 116" fill="none" xmlns="http://www.w3.org/2000/svg">
<rect x="18" y="27.5742" width="48" height="43.2407" rx="21.6203" fill="black" fill-opacity="0.01"/>
<path d="M41.2934 45.3812L37.1306 42.1352C37.1306 42.1352 37.0278 38.8267 36.0139 39.0103C35 39.1939 31.6586 41.8056 32.7711 43.0072C33.8835 44.2088 41.2934 49.495 41.2934 49.495L41.2934 55.9368L41.5458 67.8149C32.0044 67.4571 28.3105 62.1997 27.9194 61.6818C21.6262 54.1083 23.1663 46.8832 23.1663 46.8832L29.9945 52.9662L30.3324 56.596C30.3324 56.596 35.3422 59.2369 35.7445 58.9699C36.1467 58.7029 36.8269 55.144 35 51.9774C33.1732 48.8107 21.8157 48.0856 25.3444 40.02C28.873 31.9544 41.2934 30.5742 41.2934 30.5742L41.2934 45.3812Z" fill="#1762A8"/>
<path d="M42.1356 67.79C41.9659 67.6161 41.8086 30.5742 41.8086 30.5742C41.8086 30.5742 45.7313 30.5647 47.4096 31.4353L47.4096 47.3937L50.3529 43.9288L53.6274 48.0478L53.437 34.6559C57.146 37.3415 59.3667 42.6199 59.6668 43.341C63.2639 55.9546 53.8449 63.7048 53.6854 63.5551L50.3529 53.744C50.3529 53.744 48.3974 66.0141 48.1465 66.6019C47.8955 67.1898 42.3053 67.9639 42.1356 67.79Z" fill="#BE0E0E"/>
<mask id="path-5-outside-1_562_1897" maskUnits="userSpaceOnUse" x="70" y="33.6953" width="180" height="38" fill="black">
<rect fill="white" x="70" y="33.6953" width="180" height="38"/>
<path d="M87.3443 46.8921L84.5337 47.6876C84.3569 47.2191 84.0962 46.7639 83.7515 46.322C83.4156 45.8712 82.956 45.5 82.3727 45.2084C81.7893 44.9167 81.0425 44.7709 80.1321 44.7709C78.8859 44.7709 77.8473 45.0581 77.0165 45.6326C76.1945 46.1983 75.7836 46.9186 75.7836 47.7936C75.7836 48.5714 76.0664 49.1857 76.6321 49.6364C77.1977 50.0872 78.0816 50.4628 79.2836 50.7634L82.3064 51.5058C84.1271 51.9477 85.4838 52.6239 86.3765 53.5342C87.2692 54.4357 87.7155 55.598 87.7155 57.021C87.7155 58.1877 87.3797 59.2306 86.7079 60.1498C86.045 61.069 85.117 61.7938 83.9238 62.3241C82.7306 62.8544 81.343 63.1196 79.7609 63.1196C77.6838 63.1196 75.9647 62.6688 74.6036 61.7673C73.2425 60.8657 72.3807 59.5488 72.0184 57.8165L74.9881 57.074C75.2709 58.17 75.8057 58.992 76.5923 59.54C77.3877 60.088 78.4263 60.362 79.7078 60.362C81.1662 60.362 82.324 60.0526 83.1814 59.4339C84.0475 58.8064 84.4806 58.0551 84.4806 57.1801C84.4806 56.473 84.2332 55.8808 83.7382 55.4036C83.2432 54.9174 82.4831 54.5551 81.4579 54.3164L78.0639 53.521C76.199 53.079 74.829 52.3941 73.954 51.466C73.0878 50.5291 72.6547 49.358 72.6547 47.9527C72.6547 46.8037 72.9773 45.7873 73.6225 44.9034C74.2766 44.0196 75.1649 43.3258 76.2873 42.822C77.4187 42.3182 78.7003 42.0663 80.1321 42.0663C82.1473 42.0663 83.7294 42.5082 84.8784 43.392C86.0362 44.2759 86.8582 45.4426 87.3443 46.8921ZM101.281 42.3314L101.281 44.983L90.7283 44.983L90.7283 42.3314L101.281 42.3314ZM93.8041 37.4526L96.933 37.4526L96.933 56.8619C96.933 57.7458 97.0611 58.4086 97.3174 58.8506C97.5826 59.2837 97.9184 59.5753 98.325 59.7256C98.7404 59.867 99.1779 59.9377 99.6375 59.9377C99.9822 59.9377 100.265 59.92 100.486 59.8847C100.707 59.8405 100.884 59.8051 101.016 59.7786L101.653 62.5893C101.441 62.6688 101.144 62.7483 100.764 62.8279C100.384 62.9163 99.9027 62.9605 99.3194 62.9605C98.4355 62.9605 97.5693 62.7704 96.7208 62.3904C95.8812 62.0103 95.1829 61.4314 94.6261 60.6536C94.0781 59.8758 93.8041 58.8948 93.8041 57.7104L93.8041 37.4526ZM107.526 62.6953L104.079 62.6953L114.049 35.5435L117.443 35.5435L127.412 62.6953L123.965 62.6953L115.852 39.839L115.64 39.839L107.526 62.6953ZM108.799 52.0891L122.693 52.0891L122.693 55.0058L108.799 55.0058L108.799 52.0891ZM130.681 70.3318C130.15 70.3318 129.677 70.2876 129.262 70.1992C128.847 70.1196 128.559 70.0401 128.4 69.9606L129.196 67.2029C129.956 67.3974 130.627 67.4681 131.211 67.4151C131.794 67.362 132.311 67.1013 132.762 66.6329C133.222 66.1733 133.641 65.4264 134.021 64.3923L134.605 62.8014L127.074 42.3314L130.468 42.3314L136.09 58.5589L136.302 58.5589L141.923 42.3314L145.317 42.3314L136.673 65.665C136.284 66.7168 135.802 67.5874 135.228 68.2768C134.653 68.9751 133.986 69.4921 133.226 69.828C132.475 70.1638 131.626 70.3318 130.681 70.3318ZM154.061 62.6953L147.856 42.3314L151.144 42.3314L155.545 57.9225L155.758 57.9225L160.106 42.3314L163.447 42.3314L167.743 57.8695L167.955 57.8695L172.356 42.3314L175.644 42.3314L169.44 62.6953L166.364 62.6953L161.909 47.0512L161.591 47.0512L157.136 62.6953L154.061 62.6953ZM203.114 49.1194C203.114 51.9831 202.597 54.4578 201.563 56.5437C200.529 58.6296 199.11 60.2382 197.307 61.3695C195.504 62.5009 193.445 63.0665 191.129 63.0665C188.813 63.0665 186.754 62.5009 184.951 61.3695C183.148 60.2382 181.729 58.6296 180.695 56.5437C179.661 54.4578 179.144 51.9831 179.144 49.1194C179.144 46.2557 179.661 43.7809 180.695 41.6951C181.729 39.6092 183.148 38.0006 184.951 36.8692C186.754 35.7379 188.813 35.1723 191.129 35.1723C193.445 35.1723 195.504 35.7379 197.307 36.8692C199.11 38.0006 200.529 39.6092 201.563 41.6951C202.597 43.7809 203.114 46.2557 203.114 49.1194ZM199.932 49.1194C199.932 46.7684 199.539 44.7841 198.752 43.1667C197.975 41.5492 196.918 40.3251 195.584 39.4943C194.258 38.6635 192.773 38.248 191.129 38.248C189.485 38.248 187.996 38.6635 186.661 39.4943C185.336 40.3251 184.279 41.5492 183.493 43.1667C182.715 44.7841 182.326 46.7684 182.326 49.1194C182.326 51.4704 182.715 53.4547 183.493 55.0721C184.279 56.6896 185.336 57.9137 186.661 58.7445C187.996 59.5753 189.485 59.9907 191.129 59.9907C192.773 59.9907 194.258 59.5753 195.584 58.7445C196.918 57.9137 197.975 56.6896 198.752 55.0721C199.539 53.4547 199.932 51.4704 199.932 49.1194ZM208.643 62.6953L208.643 35.5435L211.931 35.5435L211.931 49.0133L212.249 49.0133L224.446 35.5435L228.741 35.5435L217.34 47.7936L228.741 62.6953L224.764 62.6953L215.325 50.0739L211.931 53.8922L211.931 62.6953L208.643 62.6953ZM239.616 63.1196C237.654 63.1196 235.961 62.6865 234.538 61.8203C233.124 60.9453 232.033 59.7256 231.264 58.1612C230.504 56.5879 230.123 54.7583 230.123 52.6725C230.123 50.5866 230.504 48.7482 231.264 47.1572C232.033 45.5575 233.102 44.3113 234.472 43.4186C235.851 42.517 237.459 42.0663 239.298 42.0663C240.358 42.0663 241.406 42.243 242.44 42.5966C243.474 42.9501 244.415 43.5246 245.264 44.3201C246.112 45.1067 246.788 46.1497 247.292 47.4489C247.796 48.7482 248.048 50.3479 248.048 52.2482L248.048 53.574L232.351 53.574L232.351 50.8694L244.866 50.8694C244.866 49.7204 244.636 48.6951 244.177 47.7936C243.726 46.8921 243.081 46.1806 242.241 45.6591C241.41 45.1377 240.429 44.8769 239.298 44.8769C238.052 44.8769 236.973 45.1863 236.063 45.805C235.161 46.4148 234.468 47.2103 233.981 48.1913C233.495 49.1724 233.252 50.2242 233.252 51.3467L233.252 53.1497C233.252 54.6876 233.517 55.9913 234.048 57.0608C234.587 58.1214 235.334 58.9301 236.288 59.4869C237.243 60.0349 238.352 60.3089 239.616 60.3089C240.438 60.3089 241.18 60.194 241.843 59.9642C242.515 59.7256 243.094 59.372 243.58 58.9036C244.066 58.4263 244.442 57.8341 244.707 57.1271L247.73 57.9756C247.412 59.0008 246.877 59.9023 246.126 60.6801C245.374 61.4491 244.446 62.0501 243.341 62.4832C242.237 62.9074 240.995 63.1196 239.616 63.1196Z"/>
</mask>
<path d="M87.3443 46.8921L87.6248 47.8833L88.6646 47.5891L88.321 46.5645L87.3443 46.8921ZM84.5337 47.6876L83.5698 48.0513L83.9038 48.9365L84.8142 48.6788L84.5337 47.6876ZM83.7515 46.322L82.9254 46.9375L82.9322 46.9466L82.9392 46.9556L83.7515 46.322ZM82.3727 45.2084L82.8334 44.2869L82.8334 44.2869L82.3727 45.2084ZM77.0165 45.6326L77.6005 46.4813L77.6024 46.4799L77.0165 45.6326ZM76.6321 49.6364L75.99 50.4421L75.99 50.4421L76.6321 49.6364ZM79.2836 50.7634L79.0337 51.7628L79.0379 51.7638L79.2836 50.7634ZM82.3064 51.5058L82.0606 52.5062L82.0634 52.5069L82.3064 51.5058ZM86.3765 53.5342L85.6409 54.2555L85.6445 54.2591L86.3765 53.5342ZM86.7079 60.1498L85.8762 59.542L85.8724 59.5473L86.7079 60.1498ZM74.6036 61.7673L75.1725 60.9084L75.1725 60.9084L74.6036 61.7673ZM72.0184 57.8165L71.7685 56.817L70.8071 57.0574L71.01 58.0274L72.0184 57.8165ZM74.9881 57.074L75.9856 56.8166L75.7301 55.8266L74.7382 56.0746L74.9881 57.074ZM76.5923 59.54L76.0034 60.3853L76.0078 60.3883L76.5923 59.54ZM83.1814 59.4339L83.7842 60.2693L83.7858 60.2682L83.1814 59.4339ZM83.7382 55.4036L83.0163 56.1386L83.0231 56.1451L83.7382 55.4036ZM81.4579 54.3164L81.2228 55.3194L81.2243 55.3198L81.4579 54.3164ZM78.0639 53.521L77.8263 54.5234L77.8288 54.524L78.0639 53.521ZM73.954 51.466L73.1975 52.1654L73.2044 52.1727L73.954 51.466ZM73.6225 44.9034L72.7944 44.2906L72.7905 44.296L73.6225 44.9034ZM76.2873 42.822L75.8683 41.8809L75.8655 41.8821L76.2873 42.822ZM84.8784 43.392L84.2502 44.2086L84.2533 44.2109L84.8784 43.392ZM87.3443 46.8921L87.0638 45.9008L84.2531 46.6963L84.5337 47.6876L84.8142 48.6788L87.6248 47.8833L87.3443 46.8921ZM84.5337 47.6876L85.4975 47.3238C85.28 46.7475 84.9648 46.2025 84.5638 45.6884L83.7515 46.322L82.9392 46.9556C83.2276 47.3254 83.4338 47.6907 83.5698 48.0513L84.5337 47.6876ZM83.7515 46.322L84.5775 45.7065C84.1312 45.1074 83.5376 44.6391 82.8334 44.2869L82.3727 45.2084L81.9119 46.1298C82.3743 46.361 82.7 46.6351 82.9254 46.9375L83.7515 46.322ZM82.3727 45.2084L82.8334 44.2869C82.0618 43.9012 81.1428 43.7407 80.1321 43.7407L80.1321 44.7709L80.1321 45.801C80.9421 45.801 81.5168 45.9322 81.9119 46.1298L82.3727 45.2084ZM80.1321 44.7709L80.1321 43.7407C78.7259 43.7407 77.4702 44.0664 76.4306 44.7853L77.0165 45.6326L77.6024 46.4799C78.2245 46.0498 79.0458 45.801 80.1321 45.801L80.1321 44.7709ZM77.0165 45.6326L76.4325 44.784C75.3767 45.5105 74.7534 46.5278 74.7534 47.7936L75.7836 47.7936L76.8137 47.7936C76.8137 47.3094 77.0124 46.886 77.6005 46.4813L77.0165 45.6326ZM75.7836 47.7936L74.7534 47.7936C74.7534 48.8579 75.1586 49.7796 75.99 50.4421L76.6321 49.6364L77.2741 48.8308C76.9742 48.5918 76.8137 48.2849 76.8137 47.7936L75.7836 47.7936ZM76.6321 49.6364L75.99 50.4421C76.7255 51.0282 77.7766 51.4485 79.0337 51.7628L79.2836 50.7634L79.5335 49.7639C78.3866 49.4772 77.67 49.1462 77.2741 48.8308L76.6321 49.6364ZM79.2836 50.7634L79.0379 51.7638L82.0606 52.5062L82.3064 51.5058L82.5521 50.5053L79.5293 49.7629L79.2836 50.7634ZM82.3064 51.5058L82.0634 52.5069C83.7795 52.9234 84.9322 53.5327 85.6409 54.2555L86.3765 53.5342L87.112 52.8129C86.0354 51.715 84.4747 50.972 82.5493 50.5047L82.3064 51.5058ZM86.3765 53.5342L85.6445 54.2591C86.3222 54.9435 86.6853 55.8335 86.6853 57.021L87.7155 57.021L88.7457 57.021C88.7457 55.3626 88.2161 53.9279 87.1085 52.8094L86.3765 53.5342ZM87.7155 57.021L86.6853 57.021C86.6853 57.975 86.4156 58.8039 85.8762 59.542L86.7079 60.1498L87.5397 60.7577C88.3437 59.6574 88.7457 58.4004 88.7457 57.021L87.7155 57.021ZM86.7079 60.1498L85.8724 59.5473C85.3314 60.2973 84.5577 60.915 83.5054 61.3827L83.9238 62.3241L84.3422 63.2655C85.6763 62.6726 86.7587 61.8407 87.5435 60.7524L86.7079 60.1498ZM83.9238 62.3241L83.5054 61.3827C82.4687 61.8434 81.2287 62.0894 79.7609 62.0894L79.7609 63.1196L79.7609 64.1497C81.4572 64.1497 82.9925 63.8654 84.3422 63.2655L83.9238 62.3241ZM79.7609 63.1196L79.7609 62.0894C77.8313 62.0894 76.3244 61.6713 75.1725 60.9084L74.6036 61.7673L74.0347 62.6261C75.6051 63.6663 77.5363 64.1497 79.7609 64.1497L79.7609 63.1196ZM74.6036 61.7673L75.1725 60.9084C74.0575 60.1699 73.3387 59.097 73.0267 57.6055L72.0184 57.8165L71.01 58.0274C71.4228 60.0006 72.4275 61.5616 74.0347 62.6261L74.6036 61.7673ZM72.0184 57.8165L72.2682 58.8159L75.2379 58.0735L74.9881 57.074L74.7382 56.0746L71.7685 56.817L72.0184 57.8165ZM74.9881 57.074L73.9906 57.3315C74.3233 58.6206 74.9793 59.6718 76.0034 60.3853L76.5923 59.54L77.1811 58.6947C76.632 58.3121 76.2186 57.7194 75.9856 56.8166L74.9881 57.074ZM76.5923 59.54L76.0078 60.3883C77.0233 61.0879 78.2847 61.3921 79.7078 61.3921L79.7078 60.362L79.7078 59.3318C78.5678 59.3318 77.7522 59.0881 77.1767 58.6916L76.5923 59.54ZM79.7078 60.362L79.7078 61.3921C81.3024 61.3921 82.696 61.0546 83.7842 60.2693L83.1814 59.4339L82.5785 58.5985C81.9521 59.0506 81.03 59.3318 79.7078 59.3318L79.7078 60.362ZM83.1814 59.4339L83.7858 60.2682C84.8525 59.4953 85.5108 58.4601 85.5108 57.1801L84.4806 57.1801L83.4504 57.1801C83.4504 57.6501 83.2426 58.1174 82.577 58.5997L83.1814 59.4339ZM84.4806 57.1801L85.5108 57.1801C85.5108 56.2022 85.1559 55.3395 84.4533 54.662L83.7382 55.4036L83.0231 56.1451C83.3104 56.4221 83.4504 56.7438 83.4504 57.1801L84.4806 57.1801ZM83.7382 55.4036L84.4601 54.6686C83.7774 53.9981 82.8127 53.574 81.6914 53.3131L81.4579 54.3164L81.2243 55.3198C82.1536 55.5361 82.7091 55.8367 83.0163 56.1385L83.7382 55.4036ZM81.4579 54.3164L81.6929 53.3134L78.299 52.518L78.0639 53.521L77.8288 54.524L81.2228 55.3194L81.4579 54.3164ZM78.0639 53.521L78.3014 52.5185C76.5402 52.1012 75.3873 51.4845 74.7035 50.7593L73.954 51.466L73.2044 52.1727C74.2707 53.3036 75.8577 54.0569 77.8263 54.5234L78.0639 53.521ZM73.954 51.466L74.7104 50.7667C74.0387 50.0401 73.6849 49.1273 73.6849 47.9527L72.6547 47.9527L71.6245 47.9527C71.6245 49.5888 72.1369 51.0181 73.1976 52.1654L73.954 51.466ZM72.6547 47.9527L73.6849 47.9527C73.6849 47.0104 73.9448 46.2092 74.4546 45.5108L73.6225 44.9034L72.7905 44.296C72.0098 45.3654 71.6245 46.597 71.6245 47.9527L72.6547 47.9527ZM73.6225 44.9034L74.4506 45.5162C74.9875 44.7907 75.7284 44.202 76.7092 43.7618L76.2873 42.822L75.8655 41.8821C74.6014 42.4495 73.5657 43.2484 72.7944 44.2906L73.6225 44.9034ZM76.2873 42.822L76.7064 43.7631C77.6868 43.3265 78.8222 43.0965 80.1321 43.0965L80.1321 42.0663L80.1321 41.0361C78.5783 41.0361 77.1505 41.3099 75.8683 41.8809L76.2873 42.822ZM80.1321 42.0663L80.1321 43.0965C82.0071 43.0965 83.3399 43.5083 84.2502 44.2086L84.8784 43.392L85.5065 42.5755C84.1188 41.5081 82.2875 41.0361 80.1321 41.0361L80.1321 42.0663ZM84.8784 43.392L84.2533 44.2109C85.2391 44.9634 85.9435 45.9551 86.3676 47.2197L87.3443 46.8921L88.321 46.5645C87.7729 44.93 86.8333 43.5884 85.5035 42.5732L84.8784 43.392ZM101.281 42.3314L102.312 42.3314L102.312 41.3012L101.281 41.3012L101.281 42.3314ZM101.281 44.983L101.281 46.0132L102.312 46.0132L102.312 44.983L101.281 44.983ZM90.7283 44.983L89.6982 44.983L89.6982 46.0132L90.7283 46.0132L90.7283 44.983ZM90.7283 42.3314L90.7283 41.3012L89.6982 41.3012L89.6982 42.3314L90.7283 42.3314ZM93.8041 37.4526L93.8041 36.4224L92.7739 36.4224L92.7739 37.4526L93.8041 37.4526ZM96.933 37.4526L97.9631 37.4526L97.9631 36.4224L96.933 36.4224L96.933 37.4526ZM97.3174 58.8506L96.4263 59.3674L96.4324 59.378L96.4388 59.3885L97.3174 58.8506ZM98.325 59.7256L97.9679 60.6919L97.9804 60.6965L97.993 60.7008L98.325 59.7256ZM100.486 59.8847L100.649 60.9019L100.668 60.8988L100.688 60.8949L100.486 59.8847ZM101.016 59.7786L102.021 59.5511L101.799 58.5714L100.814 58.7684L101.016 59.7786ZM101.653 62.5893L102.014 63.5538L102.856 63.2383L102.657 62.3618L101.653 62.5893ZM100.764 62.8279L100.553 61.8196L100.542 61.8219L100.531 61.8245L100.764 62.8279ZM96.7208 62.3904L96.296 63.3289L96.2997 63.3306L96.7208 62.3904ZM94.6261 60.6536L93.7839 61.247L93.7885 61.2533L94.6261 60.6536ZM101.281 42.3314L100.251 42.3314L100.251 44.983L101.281 44.983L102.312 44.983L102.312 42.3314L101.281 42.3314ZM101.281 44.983L101.281 43.9528L90.7283 43.9528L90.7283 44.983L90.7283 46.0132L101.281 46.0132L101.281 44.983ZM90.7283 44.983L91.7585 44.983L91.7585 42.3314L90.7283 42.3314L89.6982 42.3314L89.6982 44.983L90.7283 44.983ZM90.7283 42.3314L90.7283 43.3616L101.281 43.3616L101.281 42.3314L101.281 41.3012L90.7283 41.3012L90.7283 42.3314ZM93.8041 37.4526L93.8041 38.4828L96.933 38.4828L96.933 37.4526L96.933 36.4224L93.8041 36.4224L93.8041 37.4526ZM96.933 37.4526L95.9028 37.4526L95.9028 56.8619L96.933 56.8619L97.9631 56.8619L97.9631 37.4526L96.933 37.4526ZM96.933 56.8619L95.9028 56.8619C95.9028 57.8116 96.0345 58.692 96.4263 59.3674L97.3174 58.8506L98.2086 58.3337C98.0877 58.1253 97.9631 57.6799 97.9631 56.8619L96.933 56.8619ZM97.3174 58.8506L96.4388 59.3885C96.8032 59.9836 97.3085 60.4482 97.9679 60.6919L98.325 59.7256L98.6821 58.7593C98.5284 58.7025 98.362 58.5837 98.196 58.3127L97.3174 58.8506ZM98.325 59.7256L97.993 60.7008C98.5203 60.8803 99.0704 60.9679 99.6375 60.9679L99.6375 59.9377L99.6375 58.9075C99.2855 58.9075 98.9605 58.8537 98.657 58.7504L98.325 59.7256ZM99.6375 59.9377L99.6375 60.9679C100.011 60.9679 100.353 60.9492 100.649 60.9019L100.486 59.8847L100.323 58.8674C100.177 58.8909 99.9535 58.9075 99.6375 58.9075L99.6375 59.9377ZM100.486 59.8847L100.688 60.8949C100.909 60.8507 101.086 60.8153 101.218 60.7888L101.016 59.7786L100.814 58.7684C100.682 58.7949 100.505 58.8303 100.284 58.8745L100.486 59.8847ZM101.016 59.7786L100.012 60.0061L100.648 62.8167L101.653 62.5893L102.657 62.3618L102.021 59.5511L101.016 59.7786ZM101.653 62.5893L101.291 61.6247C101.15 61.6774 100.913 61.7443 100.553 61.8196L100.764 62.8279L100.975 63.8362C101.376 63.7524 101.731 63.6602 102.014 63.5538L101.653 62.5893ZM100.764 62.8279L100.531 61.8245C100.255 61.8887 99.8587 61.9303 99.3194 61.9303L99.3194 62.9605L99.3194 63.9907C99.9467 63.9907 100.514 63.9439 100.998 63.8313L100.764 62.8279ZM99.3194 62.9605L99.3194 61.9303C98.5881 61.9303 97.865 61.7741 97.142 61.4502L96.7208 62.3904L96.2997 63.3306C97.2737 63.7668 98.2829 63.9907 99.3194 63.9907L99.3194 62.9605ZM96.7208 62.3904L97.1456 61.4519C96.4774 61.1494 95.9193 60.6903 95.4638 60.0539L94.6261 60.6536L93.7885 61.2533C94.4466 62.1725 95.285 62.8713 96.296 63.3289L96.7208 62.3904ZM94.6261 60.6536L95.4683 60.0603C95.0697 59.4946 94.8343 58.7348 94.8343 57.7104L93.8041 57.7104L92.7739 57.7104C92.7739 59.0547 93.0865 60.257 93.784 61.247L94.6261 60.6536ZM93.8041 57.7104L94.8343 57.7104L94.8343 37.4526L93.8041 37.4526L92.7739 37.4526L92.7739 57.7104L93.8041 57.7104ZM107.526 62.6953L107.526 63.7255L108.253 63.7255L108.497 63.0399L107.526 62.6953ZM104.079 62.6953L103.112 62.3402L102.603 63.7255L104.079 63.7255L104.079 62.6953ZM114.049 35.5435L114.049 34.5133L113.33 34.5133L113.082 35.1884L114.049 35.5435ZM117.443 35.5435L118.41 35.1884L118.162 34.5133L117.443 34.5133L117.443 35.5435ZM127.412 62.6953L127.412 63.7255L128.888 63.7255L128.38 62.3402L127.412 62.6953ZM123.965 62.6953L122.995 63.0399L123.238 63.7255L123.965 63.7255L123.965 62.6953ZM115.852 39.839L116.823 39.4943L116.579 38.8088L115.852 38.8088L115.852 39.839ZM115.64 39.839L115.64 38.8088L114.912 38.8088L114.669 39.4943L115.64 39.839ZM108.799 52.0891L108.799 51.0589L107.768 51.0589L107.768 52.0891L108.799 52.0891ZM122.693 52.0891L123.723 52.0891L123.723 51.0589L122.693 51.0589L122.693 52.0891ZM122.693 55.0058L122.693 56.036L123.723 56.036L123.723 55.0058L122.693 55.0058ZM108.799 55.0058L107.768 55.0058L107.768 56.036L108.799 56.036L108.799 55.0058ZM107.526 62.6953L107.526 61.6651L104.079 61.6651L104.079 62.6953L104.079 63.7255L107.526 63.7255L107.526 62.6953ZM104.079 62.6953L105.046 63.0504L115.016 35.8986L114.049 35.5435L113.082 35.1884L103.112 62.3402L104.079 62.6953ZM114.049 35.5435L114.049 36.5737L117.443 36.5737L117.443 35.5435L117.443 34.5133L114.049 34.5133L114.049 35.5435ZM117.443 35.5435L116.476 35.8986L126.445 63.0504L127.412 62.6953L128.38 62.3402L118.41 35.1884L117.443 35.5435ZM127.412 62.6953L127.412 61.6651L123.965 61.6651L123.965 62.6953L123.965 63.7255L127.412 63.7255L127.412 62.6953ZM123.965 62.6953L124.936 62.3507L116.823 39.4943L115.852 39.839L114.881 40.1836L122.995 63.0399L123.965 62.6953ZM115.852 39.839L115.852 38.8088L115.64 38.8088L115.64 39.839L115.64 40.8692L115.852 40.8692L115.852 39.839ZM115.64 39.839L114.669 39.4943L106.555 62.3507L107.526 62.6953L108.497 63.0399L116.61 40.1836L115.64 39.839ZM108.799 52.0891L108.799 53.1193L122.693 53.1193L122.693 52.0891L122.693 51.0589L108.799 51.0589L108.799 52.0891ZM122.693 52.0891L121.663 52.0891L121.663 55.0058L122.693 55.0058L123.723 55.0058L123.723 52.0891L122.693 52.0891ZM122.693 55.0058L122.693 53.9756L108.799 53.9756L108.799 55.0058L108.799 56.036L122.693 56.036L122.693 55.0058ZM108.799 55.0058L109.829 55.0058L109.829 52.0891L108.799 52.0891L107.768 52.0891L107.768 55.0058L108.799 55.0058ZM129.262 70.1992L129.476 69.1916L129.466 69.1894L129.456 69.1874L129.262 70.1992ZM128.4 69.9606L127.41 69.675L127.173 70.4986L127.939 70.882L128.4 69.9606ZM129.196 67.2029L129.451 66.2049L128.483 65.9572L128.206 66.9174L129.196 67.2029ZM131.211 67.4151L131.118 66.3891L131.118 66.3891L131.211 67.4151ZM132.762 66.6329L132.034 65.9044L132.027 65.9114L132.02 65.9186L132.762 66.6329ZM134.021 64.3923L134.988 64.7477L134.989 64.7469L134.021 64.3923ZM134.605 62.8014L135.572 63.156L135.702 62.8008L135.572 62.4457L134.605 62.8014ZM127.074 42.3314L127.074 41.3012L125.598 41.3012L126.108 42.6871L127.074 42.3314ZM130.468 42.3314L131.442 41.9942L131.202 41.3012L130.468 41.3012L130.468 42.3314ZM136.09 58.5589L135.116 58.8961L135.356 59.5891L136.09 59.5891L136.09 58.5589ZM136.302 58.5589L136.302 59.5891L137.035 59.5891L137.275 58.8961L136.302 58.5589ZM141.923 42.3314L141.923 41.3012L141.19 41.3012L140.95 41.9942L141.923 42.3314ZM145.317 42.3314L146.283 42.6893L146.797 41.3012L145.317 41.3012L145.317 42.3314ZM136.673 65.665L135.707 65.3072L135.707 65.3078L136.673 65.665ZM135.228 68.2768L134.437 67.6173L134.432 67.6223L135.228 68.2768ZM133.226 69.828L132.81 68.8857L132.806 68.8875L133.226 69.828ZM130.681 70.3318L130.681 69.3016C130.205 69.3016 129.806 69.2618 129.476 69.1916L129.262 70.1992L129.048 71.2068C129.548 71.3134 130.095 71.362 130.681 71.362L130.681 70.3318ZM129.262 70.1992L129.456 69.1874C129.265 69.1509 129.118 69.1171 129.01 69.0871C128.894 69.0549 128.855 69.0359 128.861 69.0391L128.4 69.9606L127.939 70.882C128.239 71.0315 128.652 71.1313 129.068 71.211L129.262 70.1992ZM128.4 69.9606L129.39 70.2461L130.185 67.4885L129.196 67.2029L128.206 66.9174L127.41 69.675L128.4 69.9606ZM129.196 67.2029L128.94 68.201C129.778 68.4153 130.572 68.5076 131.304 68.441L131.211 67.4151L131.118 66.3891C130.683 66.4286 130.134 66.3795 129.451 66.2049L129.196 67.2029ZM131.211 67.4151L131.304 68.441C132.162 68.363 132.902 67.9731 133.504 67.3472L132.762 66.6329L132.02 65.9186C131.72 66.2295 131.427 66.361 131.118 66.3891L131.211 67.4151ZM132.762 66.6329L133.49 67.3613C134.105 66.747 134.588 65.8375 134.988 64.7477L134.021 64.3923L133.055 64.0369C132.695 65.0153 132.338 65.5995 132.034 65.9044L132.762 66.6329ZM134.021 64.3923L134.989 64.7469L135.572 63.156L134.605 62.8014L133.638 62.4467L133.054 64.0377L134.021 64.3923ZM134.605 62.8014L135.572 62.4457L128.041 41.9758L127.074 42.3314L126.108 42.6871L133.638 63.1571L134.605 62.8014ZM127.074 42.3314L127.074 43.3616L130.468 43.3616L130.468 42.3314L130.468 41.3012L127.074 41.3012L127.074 42.3314ZM130.468 42.3314L129.495 42.6686L135.116 58.8961L136.09 58.5589L137.063 58.2217L131.442 41.9942L130.468 42.3314ZM136.09 58.5589L136.09 59.5891L136.302 59.5891L136.302 58.5589L136.302 57.5287L136.09 57.5287L136.09 58.5589ZM136.302 58.5589L137.275 58.8961L142.897 42.6686L141.923 42.3314L140.95 41.9942L135.328 58.2217L136.302 58.5589ZM141.923 42.3314L141.923 43.3616L145.317 43.3616L145.317 42.3314L145.317 41.3012L141.923 41.3012L141.923 42.3314ZM145.317 42.3314L144.351 41.9736L135.707 65.3072L136.673 65.665L137.639 66.0229L146.283 42.6893L145.317 42.3314ZM136.673 65.665L135.707 65.3078C135.349 66.2759 134.92 67.0373 134.437 67.6173L135.228 68.2768L136.019 68.9363C136.685 68.1376 137.219 67.1577 137.639 66.0223L136.673 65.665ZM135.228 68.2768L134.432 67.6223C133.951 68.2075 133.41 68.6204 132.81 68.8857L133.226 69.828L133.642 70.7703C134.562 70.3638 135.356 69.7427 136.023 68.9314L135.228 68.2768ZM133.226 69.828L132.806 68.8875C132.205 69.156 131.503 69.3016 130.681 69.3016L130.681 70.3318L130.681 71.362C131.75 71.362 132.745 71.1716 133.646 70.7685L133.226 69.828ZM154.061 62.6953L153.075 62.9956L153.297 63.7255L154.061 63.7255L154.061 62.6953ZM147.856 42.3314L147.856 41.3012L146.465 41.3012L146.87 42.6317L147.856 42.3314ZM151.144 42.3314L152.135 42.0515L151.923 41.3012L151.144 41.3012L151.144 42.3314ZM155.545 57.9225L154.554 58.2024L154.766 58.9527L155.545 58.9527L155.545 57.9225ZM155.758 57.9225L155.758 58.9527L156.54 58.9527L156.75 58.1993L155.758 57.9225ZM160.106 42.3314L160.106 41.3012L159.324 41.3012L159.114 42.0547L160.106 42.3314ZM163.447 42.3314L164.44 42.0569L164.231 41.3012L163.447 41.3012L163.447 42.3314ZM167.743 57.8695L166.75 58.144L166.958 58.8997L167.743 58.8997L167.743 57.8695ZM167.955 57.8695L167.955 58.8997L168.734 58.8997L168.946 58.1503L167.955 57.8695ZM172.356 42.3314L172.356 41.3012L171.577 41.3012L171.365 42.0507L172.356 42.3314ZM175.644 42.3314L176.63 42.6317L177.035 41.3012L175.644 41.3012L175.644 42.3314ZM169.44 62.6953L169.44 63.7255L170.203 63.7255L170.425 62.9956L169.44 62.6953ZM166.364 62.6953L165.373 62.9774L165.586 63.7255L166.364 63.7255L166.364 62.6953ZM161.909 47.0512L162.9 46.7691L162.687 46.021L161.909 46.021L161.909 47.0512ZM161.591 47.0512L161.591 46.021L160.813 46.021L160.6 46.7691L161.591 47.0512ZM157.136 62.6953L157.136 63.7255L157.914 63.7255L158.127 62.9774L157.136 62.6953ZM154.061 62.6953L155.046 62.3951L148.841 42.0312L147.856 42.3314L146.87 42.6317L153.075 62.9956L154.061 62.6953ZM147.856 42.3314L147.856 43.3616L151.144 43.3616L151.144 42.3314L151.144 41.3012L147.856 41.3012L147.856 42.3314ZM151.144 42.3314L150.152 42.6113L154.554 58.2024L155.545 57.9225L156.537 57.6426L152.135 42.0515L151.144 42.3314ZM155.545 57.9225L155.545 58.9527L155.758 58.9527L155.758 57.9225L155.758 56.8923L155.545 56.8923L155.545 57.9225ZM155.758 57.9225L156.75 58.1993L161.098 42.6082L160.106 42.3314L159.114 42.0547L154.765 57.6458L155.758 57.9225ZM160.106 42.3314L160.106 43.3616L163.447 43.3616L163.447 42.3314L163.447 41.3012L160.106 41.3012L160.106 42.3314ZM163.447 42.3314L162.454 42.6059L166.75 58.144L167.743 57.8695L168.735 57.595L164.44 42.0569L163.447 42.3314ZM167.743 57.8695L167.743 58.8997L167.955 58.8997L167.955 57.8695L167.955 56.8393L167.743 56.8393L167.743 57.8695ZM167.955 57.8695L168.946 58.1503L173.347 42.6122L172.356 42.3314L171.365 42.0507L166.963 57.5887L167.955 57.8695ZM172.356 42.3314L172.356 43.3616L175.644 43.3616L175.644 42.3314L175.644 41.3012L172.356 41.3012L172.356 42.3314ZM175.644 42.3314L174.659 42.0312L168.454 62.3951L169.44 62.6953L170.425 62.9956L176.63 42.6317L175.644 42.3314ZM169.44 62.6953L169.44 61.6651L166.364 61.6651L166.364 62.6953L166.364 63.7255L169.44 63.7255L169.44 62.6953ZM166.364 62.6953L167.355 62.4132L162.9 46.7691L161.909 47.0512L160.918 47.3333L165.373 62.9774L166.364 62.6953ZM161.909 47.0512L161.909 46.021L161.591 46.021L161.591 47.0512L161.591 48.0814L161.909 48.0814L161.909 47.0512ZM161.591 47.0512L160.6 46.7691L156.146 62.4132L157.136 62.6953L158.127 62.9774L162.582 47.3333L161.591 47.0512ZM157.136 62.6953L157.136 61.6651L154.061 61.6651L154.061 62.6953L154.061 63.7255L157.136 63.7255L157.136 62.6953ZM201.563 56.5437L200.64 56.0861L200.64 56.0861L201.563 56.5437ZM197.307 61.3695L197.855 62.2422L197.855 62.2422L197.307 61.3695ZM184.951 61.3695L184.404 62.2422L184.404 62.2422L184.951 61.3695ZM180.695 56.5437L181.618 56.0861L181.618 56.0861L180.695 56.5437ZM180.695 41.6951L179.772 41.2375L180.695 41.6951ZM197.307 36.8692L197.855 35.9966L197.855 35.9966L197.307 36.8692ZM201.563 41.6951L200.64 42.1526L200.64 42.1526L201.563 41.6951ZM198.752 43.1667L197.824 43.6131L197.826 43.6172L198.752 43.1667ZM195.584 39.4943L195.037 40.3672L195.039 40.3688L195.584 39.4943ZM186.661 39.4943L186.117 38.6197L186.114 38.6213L186.661 39.4943ZM183.493 43.1667L182.566 42.7161L182.564 42.7202L183.493 43.1667ZM183.493 55.0721L182.564 55.5186L182.566 55.5227L183.493 55.0721ZM186.661 58.7445L186.114 59.6175L186.117 59.6191L186.661 58.7445ZM195.584 58.7445L195.039 57.8699L195.037 57.8716L195.584 58.7445ZM198.752 55.0721L197.826 54.6216L197.824 54.6257L198.752 55.0721ZM203.114 49.1194L202.084 49.1194C202.084 51.8602 201.589 54.1714 200.64 56.0861L201.563 56.5437L202.486 57.0013C203.605 54.7442 204.144 52.106 204.144 49.1194L203.114 49.1194ZM201.563 56.5437L200.64 56.0861C199.682 58.0182 198.387 59.476 196.76 60.4969L197.307 61.3695L197.855 62.2422C199.834 61.0004 201.376 59.241 202.486 57.0013L201.563 56.5437ZM197.307 61.3695L196.76 60.4969C195.135 61.5163 193.269 62.0363 191.129 62.0363L191.129 63.0665L191.129 64.0967C193.621 64.0967 195.873 63.4855 197.855 62.2422L197.307 61.3695ZM191.129 63.0665L191.129 62.0363C188.99 62.0363 187.123 61.5163 185.499 60.4969L184.951 61.3695L184.404 62.2422C186.385 63.4855 188.637 64.0967 191.129 64.0967L191.129 63.0665ZM184.951 61.3695L185.499 60.4969C183.872 59.476 182.576 58.0182 181.618 56.0861L180.695 56.5437L179.772 57.0013C180.883 59.241 182.424 61.0004 184.404 62.2422L184.951 61.3695ZM180.695 56.5437L181.618 56.0861C180.669 54.1714 180.174 51.8602 180.174 49.1194L179.144 49.1194L178.114 49.1194C178.114 52.106 178.653 54.7442 179.772 57.0013L180.695 56.5437ZM179.144 49.1194L180.174 49.1194C180.174 46.3786 180.669 44.0673 181.618 42.1526L180.695 41.6951L179.772 41.2375C178.653 43.4946 178.114 46.1328 178.114 49.1194L179.144 49.1194ZM180.695 41.6951L181.618 42.1526C182.576 40.2206 183.872 38.7628 185.499 37.7419L184.951 36.8692L184.404 35.9966C182.424 37.2384 180.883 38.9978 179.772 41.2375L180.695 41.6951ZM184.951 36.8692L185.499 37.7419C187.123 36.7225 188.99 36.2024 191.129 36.2024L191.129 35.1723L191.129 34.1421C188.637 34.1421 186.385 34.7533 184.404 35.9966L184.951 36.8692ZM191.129 35.1723L191.129 36.2024C193.269 36.2024 195.135 36.7225 196.76 37.7419L197.307 36.8692L197.855 35.9966C195.873 34.7533 193.621 34.1421 191.129 34.1421L191.129 35.1723ZM197.307 36.8692L196.76 37.7419C198.387 38.7628 199.682 40.2206 200.64 42.1526L201.563 41.6951L202.486 41.2375C201.376 38.9978 199.834 37.2384 197.855 35.9966L197.307 36.8692ZM201.563 41.6951L200.64 42.1526C201.589 44.0673 202.084 46.3786 202.084 49.1194L203.114 49.1194L204.144 49.1194C204.144 46.1328 203.605 43.4946 202.486 41.2375L201.563 41.6951ZM199.932 49.1194L200.962 49.1194C200.962 46.6583 200.551 44.5102 199.679 42.7161L198.752 43.1667L197.826 43.6172C198.527 45.058 198.902 46.8784 198.902 49.1194L199.932 49.1194ZM198.752 43.1667L199.681 42.7202C198.831 40.9521 197.651 39.5679 196.128 38.6197L195.584 39.4943L195.039 40.3688C196.185 41.0823 197.119 42.1463 197.824 43.6131L198.752 43.1667ZM195.584 39.4943L196.131 38.6213C194.633 37.6824 192.956 37.2179 191.129 37.2179L191.129 38.248L191.129 39.2782C192.59 39.2782 193.883 39.6445 195.037 40.3672L195.584 39.4943ZM191.129 38.248L191.129 37.2179C189.302 37.2179 187.623 37.6824 186.117 38.6197L186.661 39.4943L187.206 40.3688C188.369 39.6445 189.668 39.2782 191.129 39.2782L191.129 38.248ZM186.661 39.4943L186.114 38.6213C184.602 39.5692 183.424 40.9516 182.566 42.7161L183.493 43.1667L184.419 43.6172C185.134 42.1468 186.069 41.081 187.208 40.3672L186.661 39.4943ZM183.493 43.1667L182.564 42.7202C181.702 44.5132 181.296 46.6597 181.296 49.1194L182.326 49.1194L183.356 49.1194C183.356 46.877 183.728 45.0551 184.421 43.6131L183.493 43.1667ZM182.326 49.1194L181.296 49.1194C181.296 51.579 181.702 53.7256 182.564 55.5186L183.493 55.0721L184.421 54.6257C183.728 53.1837 183.356 51.3618 183.356 49.1194L182.326 49.1194ZM183.493 55.0721L182.566 55.5227C183.424 57.2872 184.602 58.6695 186.114 59.6174L186.661 58.7445L187.208 57.8716C186.069 57.1578 185.134 56.092 184.419 54.6216L183.493 55.0721ZM186.661 58.7445L186.117 59.6191C187.623 60.5564 189.302 61.0209 191.129 61.0209L191.129 59.9907L191.129 58.9605C189.668 58.9605 188.369 58.5943 187.206 57.8699L186.661 58.7445ZM191.129 59.9907L191.129 61.0209C192.956 61.0209 194.633 60.5563 196.131 59.6174L195.584 58.7445L195.037 57.8716C193.883 58.5943 192.59 58.9605 191.129 58.9605L191.129 59.9907ZM195.584 58.7445L196.128 59.6191C197.651 58.6708 198.831 57.2867 199.681 55.5186L198.752 55.0721L197.824 54.6257C197.119 56.0924 196.185 57.1565 195.039 57.8699L195.584 58.7445ZM198.752 55.0721L199.679 55.5227C200.551 53.7286 200.962 51.5805 200.962 49.1194L199.932 49.1194L198.902 49.1194C198.902 51.3604 198.527 53.1808 197.826 54.6216L198.752 55.0721ZM208.643 62.6953L207.612 62.6953L207.612 63.7255L208.643 63.7255L208.643 62.6953ZM208.643 35.5435L208.643 34.5133L207.612 34.5133L207.612 35.5435L208.643 35.5435ZM211.931 35.5435L212.961 35.5435L212.961 34.5133L211.931 34.5133L211.931 35.5435ZM211.931 49.0133L210.9 49.0133L210.9 50.0435L211.931 50.0435L211.931 49.0133ZM212.249 49.0133L212.249 50.0435L212.706 50.0435L213.012 49.7048L212.249 49.0133ZM224.446 35.5435L224.446 34.5133L223.989 34.5133L223.682 34.852L224.446 35.5435ZM228.741 35.5435L229.495 36.2453L231.108 34.5133L228.741 34.5133L228.741 35.5435ZM217.34 47.7936L216.586 47.0918L215.993 47.7286L216.522 48.4196L217.34 47.7936ZM228.741 62.6953L228.741 63.7255L230.827 63.7255L229.56 62.0693L228.741 62.6953ZM224.764 62.6953L223.939 63.3123L224.248 63.7255L224.764 63.7255L224.764 62.6953ZM215.325 50.0739L216.15 49.4569L215.393 48.4459L214.555 49.3895L215.325 50.0739ZM211.931 53.8922L211.161 53.2078L210.9 53.5005L210.9 53.8922L211.931 53.8922ZM211.931 62.6953L211.931 63.7255L212.961 63.7255L212.961 62.6953L211.931 62.6953ZM208.643 62.6953L209.673 62.6953L209.673 35.5435L208.643 35.5435L207.612 35.5435L207.612 62.6953L208.643 62.6953ZM208.643 35.5435L208.643 36.5737L211.931 36.5737L211.931 35.5435L211.931 34.5133L208.643 34.5133L208.643 35.5435ZM211.931 35.5435L210.9 35.5435L210.9 49.0133L211.931 49.0133L212.961 49.0133L212.961 35.5435L211.931 35.5435ZM211.931 49.0133L211.931 50.0435L212.249 50.0435L212.249 49.0133L212.249 47.9831L211.931 47.9831L211.931 49.0133ZM212.249 49.0133L213.012 49.7048L225.209 36.2349L224.446 35.5435L223.682 34.852L211.485 48.3219L212.249 49.0133ZM224.446 35.5435L224.446 36.5737L228.741 36.5737L228.741 35.5435L228.741 34.5133L224.446 34.5133L224.446 35.5435ZM228.741 35.5435L227.987 34.8416L216.586 47.0918L217.34 47.7936L218.094 48.4955L229.495 36.2453L228.741 35.5435ZM217.34 47.7936L216.522 48.4196L227.923 63.3213L228.741 62.6953L229.56 62.0693L218.158 47.1676L217.34 47.7936ZM228.741 62.6953L228.741 61.6651L224.764 61.6651L224.764 62.6953L224.764 63.7255L228.741 63.7255L228.741 62.6953ZM224.764 62.6953L225.589 62.0783L216.15 49.4569L215.325 50.0739L214.5 50.6909L223.939 63.3123L224.764 62.6953ZM215.325 50.0739L214.555 49.3895L211.161 53.2078L211.931 53.8922L212.701 54.5766L216.095 50.7584L215.325 50.0739ZM211.931 53.8922L210.9 53.8922L210.9 62.6953L211.931 62.6953L212.961 62.6953L212.961 53.8922L211.931 53.8922ZM211.931 62.6953L211.931 61.6651L208.643 61.6651L208.643 62.6953L208.643 63.7255L211.931 63.7255L211.931 62.6953ZM234.538 61.8203L233.996 62.6964L234.003 62.7003L234.538 61.8203ZM231.264 58.1612L230.336 58.6093L230.339 58.6156L231.264 58.1612ZM231.264 47.1572L230.335 46.711L230.334 46.7131L231.264 47.1572ZM234.472 43.4186L235.034 44.2817L235.036 44.2808L234.472 43.4186ZM242.44 42.5966L242.773 41.6218L242.773 41.6218L242.44 42.5966ZM245.264 44.3201L244.559 45.0717L244.563 45.0756L245.264 44.3201ZM247.292 47.4489L248.253 47.0765L248.253 47.0765L247.292 47.4489ZM248.048 53.574L248.048 54.6042L249.078 54.6042L249.078 53.574L248.048 53.574ZM232.351 53.574L231.321 53.574L231.321 54.6042L232.351 54.6042L232.351 53.574ZM232.351 50.8694L232.351 49.8392L231.321 49.8392L231.321 50.8694L232.351 50.8694ZM244.866 50.8694L244.866 51.8996L245.896 51.8996L245.896 50.8694L244.866 50.8694ZM244.177 47.7936L243.255 48.2543L243.259 48.2615L244.177 47.7936ZM242.241 45.6591L241.693 46.5317L241.698 46.5343L242.241 45.6591ZM236.063 45.805L236.64 46.6582L236.642 46.657L236.063 45.805ZM233.981 48.1913L233.058 47.734L233.058 47.734L233.981 48.1913ZM234.048 57.0608L233.125 57.5185L233.129 57.5276L234.048 57.0608ZM236.288 59.4869L235.769 60.3768L235.775 60.3804L236.288 59.4869ZM241.843 59.9642L242.181 60.9376L242.188 60.935L241.843 59.9642ZM243.58 58.9036L244.295 59.6454L244.302 59.6387L243.58 58.9036ZM244.707 57.1271L244.985 56.1352L244.075 55.8795L243.742 56.7653L244.707 57.1271ZM247.73 57.9756L248.714 58.2809L249.027 57.2698L248.008 56.9837L247.73 57.9756ZM246.126 60.6801L246.862 61.4001L246.867 61.3958L246.126 60.6801ZM243.341 62.4832L243.711 63.4449L243.717 63.4423L243.341 62.4832ZM239.616 63.1196L239.616 62.0894C237.809 62.0894 236.309 61.692 235.074 60.9403L234.538 61.8203L234.003 62.7003C235.614 63.681 237.499 64.1497 239.616 64.1497L239.616 63.1196ZM234.538 61.8203L235.08 60.9443C233.839 60.1761 232.876 59.1063 232.188 57.7067L231.264 58.1612L230.339 58.6156C231.189 60.3449 232.409 61.7145 233.996 62.6963L234.538 61.8203ZM231.264 58.1612L232.191 57.713C231.511 56.304 231.154 54.6329 231.154 52.6725L230.123 52.6725L229.093 52.6725C229.093 54.8838 229.497 56.8718 230.336 58.6093L231.264 58.1612ZM230.123 52.6725L231.154 52.6725C231.154 50.7124 231.51 49.0305 232.193 47.6014L231.264 47.1572L230.334 46.7131C229.497 48.4659 229.093 50.4608 229.093 52.6725L230.123 52.6725ZM231.264 47.1572L232.192 47.6035C232.887 46.1585 233.836 45.0628 235.034 44.2817L234.472 43.4186L233.91 42.5555C232.368 43.5597 231.178 44.9564 230.335 46.711L231.264 47.1572ZM234.472 43.4186L235.036 44.2808C236.228 43.5013 237.636 43.0965 239.298 43.0965L239.298 42.0663L239.298 41.0361C237.283 41.0361 235.474 41.5328 233.908 42.5563L234.472 43.4186ZM239.298 42.0663L239.298 43.0965C240.242 43.0965 241.177 43.2534 242.107 43.5714L242.44 42.5966L242.773 41.6218C241.635 41.2327 240.475 41.0361 239.298 41.0361L239.298 42.0663ZM242.44 42.5966L242.107 43.5714C242.994 43.8747 243.81 44.3695 244.559 45.0716L245.264 44.3201L245.968 43.5685C245.02 42.6797 243.954 42.0256 242.773 41.6218L242.44 42.5966ZM245.264 44.3201L244.563 45.0756C245.276 45.7364 245.873 46.6385 246.332 47.8214L247.292 47.4489L248.253 47.0765C247.704 45.6609 246.948 44.4771 245.964 43.5646L245.264 44.3201ZM247.292 47.4489L246.332 47.8214C246.776 48.9672 247.018 50.432 247.018 52.2482L248.048 52.2482L249.078 52.2482C249.078 50.2639 248.816 48.5291 248.253 47.0765L247.292 47.4489ZM248.048 52.2482L247.018 52.2482L247.018 53.574L248.048 53.574L249.078 53.574L249.078 52.2482L248.048 52.2482ZM248.048 53.574L248.048 52.5438L232.351 52.5438L232.351 53.574L232.351 54.6042L248.048 54.6042L248.048 53.574ZM232.351 53.574L233.381 53.574L233.381 50.8694L232.351 50.8694L231.321 50.8694L231.321 53.574L232.351 53.574ZM232.351 50.8694L232.351 51.8996L244.866 51.8996L244.866 50.8694L244.866 49.8392L232.351 49.8392L232.351 50.8694ZM244.866 50.8694L245.896 50.8694C245.896 49.58 245.637 48.3907 245.094 47.3257L244.177 47.7936L243.259 48.2615C243.635 48.9996 243.836 49.8609 243.836 50.8694L244.866 50.8694ZM244.177 47.7936L245.098 47.3329C244.564 46.2645 243.789 45.4081 242.785 44.784L242.241 45.6591L241.698 46.5343C242.372 46.9531 242.888 47.5197 243.255 48.2543L244.177 47.7936ZM242.241 45.6591L242.789 44.7866C241.77 44.1471 240.593 43.8467 239.298 43.8467L239.298 44.8769L239.298 45.9071C240.266 45.9071 241.051 46.1282 241.693 46.5317L242.241 45.6591ZM239.298 44.8769L239.298 43.8467C237.873 43.8467 236.587 44.2032 235.484 44.9529L236.063 45.805L236.642 46.657C237.36 46.1693 238.23 45.9071 239.298 45.9071L239.298 44.8769ZM236.063 45.805L235.486 44.9517C234.436 45.662 233.623 46.5942 233.058 47.734L233.981 48.1913L234.905 48.6487C235.312 47.8263 235.887 47.1676 236.64 46.6582L236.063 45.805ZM233.981 48.1913L233.058 47.734C232.5 48.8609 232.222 50.0697 232.222 51.3467L233.252 51.3467L234.282 51.3467C234.282 50.3787 234.491 49.484 234.905 48.6487L233.981 48.1913ZM233.252 51.3467L232.222 51.3467L232.222 53.1497L233.252 53.1497L234.282 53.1497L234.282 51.3467L233.252 51.3467ZM233.252 53.1497L232.222 53.1497C232.222 54.8022 232.507 56.2718 233.125 57.5184L234.048 57.0608L234.971 56.6031C234.528 55.7109 234.282 54.5731 234.282 53.1497L233.252 53.1497ZM234.048 57.0608L233.129 57.5276C233.751 58.7505 234.631 59.7125 235.769 60.3768L236.288 59.4869L236.807 58.5971C236.037 58.1477 235.423 57.4923 234.966 56.594L234.048 57.0608ZM236.288 59.4869L235.775 60.3804C236.908 61.0305 238.199 61.3391 239.616 61.3391L239.616 60.3089L239.616 59.2787C238.505 59.2787 237.578 59.0393 236.801 58.5935L236.288 59.4869ZM239.616 60.3089L239.616 61.3391C240.534 61.3391 241.393 61.2108 242.181 60.9376L241.843 59.9642L241.506 58.9909C240.968 59.1772 240.342 59.2787 239.616 59.2787L239.616 60.3089ZM241.843 59.9642L242.188 60.935C242.99 60.65 243.697 60.2213 244.295 59.6454L243.58 58.9036L242.865 58.1618C242.491 58.5228 242.04 58.8011 241.498 58.9935L241.843 59.9642ZM243.58 58.9036L244.302 59.6387C244.906 59.0452 245.359 58.3212 245.672 57.4888L244.707 57.1271L243.742 56.7653C243.524 57.3471 243.226 57.8074 242.858 58.1685L243.58 58.9036ZM244.707 57.1271L244.429 58.1189L247.451 58.9674L247.73 57.9756L248.008 56.9837L244.985 56.1352L244.707 57.1271ZM247.73 57.9756L246.746 57.6702C246.476 58.5404 246.025 59.3017 245.385 59.9644L246.126 60.6801L246.867 61.3958C247.729 60.503 248.347 59.4612 248.714 58.2809L247.73 57.9756ZM246.126 60.6801L245.389 59.9602C244.75 60.6144 243.949 61.1387 242.965 61.5241L243.341 62.4832L243.717 63.4423C244.944 62.9615 245.999 62.2838 246.862 61.4001L246.126 60.6801ZM243.341 62.4832L242.972 61.5215C242.003 61.8937 240.889 62.0894 239.616 62.0894L239.616 63.1196L239.616 64.1497C241.101 64.1497 242.47 63.9212 243.711 63.4449L243.341 62.4832Z" fill="url(#paint0_linear_562_1897)" mask="url(#path-5-outside-1_562_1897)"/>
<path d="M80.7626 78.9742L79.4808 86.6953L78.576 86.6953L75.379 80.6331L75.3036 80.6331L74.2932 86.6953L73.3582 86.6953L74.64 78.9742L75.5448 78.9742L78.7569 85.0516L78.8323 85.0516L79.8427 78.9742L80.7626 78.9742ZM83.6212 86.816C83.0884 86.816 82.6423 86.689 82.2829 86.4352C81.9235 86.1813 81.6696 85.8257 81.5213 85.3683C81.3755 84.9108 81.3517 84.378 81.4497 83.7698C81.5452 83.1766 81.735 82.6601 82.019 82.2203C82.3055 81.7779 82.6611 81.4361 83.0859 81.1948C83.5132 80.951 83.9832 80.8291 84.4959 80.8291C85.0287 80.8291 85.4736 80.9573 85.8305 81.2137C86.1899 81.4675 86.4438 81.8244 86.592 82.2843C86.7403 82.7418 86.7655 83.2771 86.6674 83.8904C86.5719 84.4785 86.3797 84.9925 86.0906 85.4323C85.8041 85.8697 85.4485 86.2102 85.0237 86.454C84.6015 86.6953 84.134 86.816 83.6212 86.816ZM83.6363 86.0167C84.0435 86.0167 84.3966 85.9124 84.6957 85.7038C84.9973 85.4952 85.2411 85.22 85.4271 84.8781C85.6156 84.5363 85.7425 84.1669 85.8079 83.7698C85.8682 83.3927 85.8657 83.0421 85.8003 82.7179C85.735 82.3912 85.5955 82.1285 85.3819 81.93C85.1682 81.7289 84.8679 81.6284 84.4808 81.6284C84.0736 81.6284 83.718 81.7339 83.4139 81.945C83.1123 82.1562 82.8685 82.4339 82.6825 82.7782C82.4965 83.1226 82.3721 83.4933 82.3093 83.8904C82.2489 84.2674 82.2502 84.618 82.313 84.9422C82.3784 85.2639 82.5179 85.5241 82.7315 85.7226C82.9477 85.9187 83.2493 86.0167 83.6363 86.0167ZM95.8447 80.9648C95.8447 80.5501 95.7077 80.236 95.4338 80.0223C95.1598 79.8062 94.7891 79.6981 94.3216 79.6981C93.9798 79.6981 93.6719 79.7534 93.3979 79.864C93.124 79.9746 92.9003 80.1266 92.7269 80.3202C92.5534 80.5137 92.4466 80.7336 92.4064 80.9799C92.3737 81.186 92.3951 81.3632 92.4705 81.5115C92.5459 81.6573 92.6527 81.7792 92.7909 81.8772C92.9317 81.9727 93.0825 82.0519 93.2434 82.1147C93.4042 82.175 93.5525 82.224 93.6882 82.2617L94.4422 82.4729C94.6307 82.5256 94.8406 82.5985 95.0718 82.6915C95.3031 82.7845 95.5192 82.9114 95.7203 83.0723C95.9214 83.2306 96.0747 83.4342 96.1802 83.683C96.2883 83.9319 96.3122 84.2372 96.2519 84.5992C96.1815 85.0164 96.0093 85.3934 95.7354 85.7302C95.4639 86.067 95.1045 86.3346 94.6571 86.5332C94.2123 86.7318 93.6932 86.831 93.1001 86.831C92.5472 86.831 92.0822 86.7418 91.7052 86.5634C91.3307 86.3849 91.0542 86.1361 90.8758 85.8169C90.6998 85.4977 90.632 85.127 90.6722 84.7047L91.6373 84.7047C91.6122 84.9963 91.67 85.2376 91.8107 85.4286C91.9515 85.6171 92.1475 85.7578 92.3989 85.8508C92.6502 85.9413 92.9292 85.9865 93.2358 85.9865C93.5927 85.9865 93.922 85.9287 94.2236 85.8131C94.5277 85.695 94.779 85.5316 94.9776 85.323C95.1787 85.1119 95.3018 84.8656 95.347 84.5841C95.3923 84.3277 95.3571 84.1191 95.2415 83.9583C95.1259 83.7974 94.9587 83.6667 94.7401 83.5662C94.5214 83.4656 94.2814 83.3777 94.02 83.3023L93.1152 83.0308C92.5421 82.8574 92.1061 82.6098 91.807 82.2881C91.5104 81.9664 91.4036 81.5454 91.4865 81.0252C91.5619 80.5929 91.7441 80.2158 92.0332 79.8941C92.3222 79.5699 92.6804 79.3186 93.1076 79.1401C93.5349 78.9592 93.9949 78.8687 94.4875 78.8687C94.9851 78.8687 95.4111 78.9592 95.7655 79.1401C96.1199 79.3186 96.3838 79.5661 96.5572 79.8828C96.7307 80.197 96.7947 80.5577 96.7495 80.9648L95.8447 80.9648ZM99.4932 78.9742L98.2113 86.6953L97.3216 86.6953L98.6034 78.9742L99.4932 78.9742ZM102.254 86.816C101.698 86.816 101.24 86.6928 100.878 86.4465C100.516 86.1977 100.263 85.8508 100.12 85.406C99.9767 84.9586 99.9541 84.4383 100.052 83.8452C100.15 83.252 100.345 82.7292 100.636 82.2768C100.928 81.8219 101.291 81.4675 101.726 81.2137C102.161 80.9573 102.638 80.8291 103.159 80.8291C103.46 80.8291 103.75 80.8794 104.029 80.9799C104.308 81.0804 104.55 81.2438 104.753 81.47C104.957 81.6937 105.099 81.9903 105.179 82.3598C105.26 82.7292 105.255 83.1841 105.164 83.7245L105.104 84.1015L100.64 84.1015L100.761 83.3324L104.32 83.3324C104.378 83.0057 104.363 82.7141 104.275 82.4578C104.189 82.2014 104.04 81.9991 103.826 81.8508C103.615 81.7025 103.347 81.6284 103.023 81.6284C102.689 81.6284 102.377 81.7188 102.088 81.8998C101.799 82.0783 101.558 82.3045 101.364 82.5784C101.171 82.8499 101.05 83.1263 101.002 83.4078L100.897 84.0714C100.821 84.5514 100.832 84.9334 100.93 85.2175C101.031 85.5015 101.206 85.7063 101.455 85.832C101.703 85.9551 102.015 86.0167 102.39 86.0167C102.628 86.0167 102.848 85.984 103.049 85.9187C103.25 85.8508 103.43 85.7503 103.588 85.6171C103.747 85.4814 103.88 85.313 103.988 85.1119L104.802 85.3532C104.664 85.6447 104.469 85.9011 104.218 86.1223C103.969 86.3409 103.678 86.5118 103.343 86.635C103.012 86.7556 102.648 86.816 102.254 86.816ZM108.454 86.816C107.898 86.816 107.439 86.6928 107.078 86.4465C106.716 86.1977 106.463 85.8508 106.32 85.406C106.177 84.9586 106.154 84.4383 106.252 83.8452C106.35 83.252 106.545 82.7292 106.836 82.2768C107.128 81.8219 107.491 81.4675 107.926 81.2137C108.361 80.9573 108.838 80.8291 109.358 80.8291C109.66 80.8291 109.95 80.8794 110.229 80.9799C110.508 81.0804 110.75 81.2438 110.953 81.47C111.157 81.6937 111.299 81.9903 111.379 82.3598C111.46 82.7292 111.455 83.1841 111.364 83.7245L111.304 84.1015L106.84 84.1015L106.961 83.3324L110.52 83.3324C110.577 83.0057 110.562 82.7141 110.474 82.4578C110.389 82.2014 110.239 81.9991 110.026 81.8508C109.815 81.7025 109.547 81.6284 109.223 81.6284C108.888 81.6284 108.577 81.7188 108.288 81.8998C107.999 82.0783 107.757 82.3045 107.564 82.5784C107.37 82.8499 107.25 83.1263 107.202 83.4078L107.096 84.0714C107.021 84.5514 107.032 84.9334 107.13 85.2175C107.231 85.5015 107.406 85.7063 107.654 85.832C107.903 85.9551 108.215 86.0167 108.589 86.0167C108.828 86.0167 109.048 85.984 109.249 85.9187C109.45 85.8508 109.63 85.7503 109.788 85.6171C109.947 85.4814 110.08 85.313 110.188 85.1119L111.002 85.3532C110.864 85.6447 110.669 85.9011 110.418 86.1223C110.169 86.3409 109.877 86.5118 109.543 86.635C109.211 86.7556 108.848 86.816 108.454 86.816ZM111.879 88.8669L113.213 80.9045L114.073 80.9045L113.922 81.8244L114.028 81.8244C114.108 81.7239 114.219 81.5957 114.359 81.4399C114.503 81.2815 114.695 81.1408 114.936 81.0176C115.18 80.8919 115.49 80.8291 115.867 80.8291C116.355 80.8291 116.763 80.951 117.093 81.1948C117.422 81.4386 117.654 81.7842 117.79 82.2316C117.926 82.6789 117.943 83.2068 117.843 83.815C117.742 84.4283 117.55 84.9598 117.266 85.4097C116.982 85.8571 116.635 86.2039 116.226 86.4503C115.816 86.6941 115.37 86.816 114.887 86.816C114.515 86.816 114.227 86.7544 114.024 86.6312C113.82 86.5056 113.672 86.3635 113.579 86.2052C113.486 86.0443 113.414 85.9111 113.364 85.8056L113.289 85.8056L112.776 88.8669L111.879 88.8669ZM113.605 83.7999C113.535 84.2372 113.535 84.623 113.605 84.9573C113.678 85.2891 113.823 85.5492 114.039 85.7377C114.258 85.9237 114.545 86.0167 114.902 86.0167C115.274 86.0167 115.6 85.9187 115.879 85.7226C116.16 85.5241 116.391 85.2577 116.572 84.9234C116.756 84.5866 116.883 84.2121 116.953 83.7999C117.019 83.3927 117.016 83.0258 116.946 82.6991C116.875 82.3698 116.732 82.1097 116.516 81.9187C116.3 81.7251 116.003 81.6284 115.626 81.6284C115.264 81.6284 114.944 81.7201 114.665 81.9036C114.388 82.0845 114.16 82.3384 113.979 82.6651C113.8 82.9893 113.676 83.3676 113.605 83.7999ZM118.72 86.6953L119.686 80.9045L120.575 80.9045L119.61 86.6953L118.72 86.6953ZM120.402 79.9243C120.228 79.9243 120.079 79.8652 119.953 79.7471C119.83 79.629 119.769 79.487 119.769 79.3211C119.769 79.1552 119.83 79.0132 119.953 78.8951C120.079 78.7769 120.228 78.7179 120.402 78.7179C120.575 78.7179 120.724 78.7769 120.847 78.8951C120.972 79.0132 121.035 79.1552 121.035 79.3211C121.035 79.487 120.972 79.629 120.847 79.7471C120.724 79.8652 120.575 79.9243 120.402 79.9243ZM122.703 83.2118L122.13 86.6953L121.24 86.6953L122.205 80.9045L123.064 80.9045L122.914 81.8093L122.989 81.8093C123.17 81.5153 123.415 81.279 123.724 81.1006C124.033 80.9196 124.407 80.8291 124.844 80.8291C125.231 80.8291 125.558 80.9095 125.824 81.0704C126.093 81.2287 126.283 81.47 126.393 81.7942C126.507 82.116 126.523 82.5231 126.442 83.0157L125.824 86.6953L124.934 86.6953L125.538 83.0761C125.613 82.6237 125.554 82.2693 125.36 82.0129C125.169 81.7565 124.867 81.6284 124.452 81.6284C124.165 81.6284 123.9 81.6899 123.656 81.8131C123.415 81.9362 123.21 82.116 123.042 82.3522C122.876 82.5885 122.763 82.875 122.703 83.2118ZM129.516 78.9742L129.41 79.6529C129.378 79.8589 129.304 80.0789 129.188 80.3126C129.075 80.5438 128.929 80.7688 128.751 80.9875C128.572 81.2036 128.37 81.3921 128.144 81.553L127.721 81.1609C127.917 80.9347 128.092 80.6997 128.245 80.4559C128.401 80.2096 128.503 79.9469 128.551 79.6679L128.671 78.9742L129.516 78.9742ZM129.87 85.6397L129.735 86.0469C129.644 86.3334 129.529 86.64 129.388 86.9668C129.247 87.2935 129.108 87.6014 128.969 87.8904C128.831 88.1795 128.719 88.4094 128.634 88.5803L127.955 88.5803C128.01 88.4195 128.086 88.2071 128.181 87.9432C128.277 87.6793 128.379 87.3852 128.487 87.061C128.595 86.7368 128.694 86.4038 128.785 86.0619L128.905 85.6397L129.87 85.6397ZM138.682 78.9742L139.617 78.9742L138.697 84.5238C138.617 85.0164 138.463 85.4323 138.237 85.7716C138.013 86.1084 137.727 86.3648 137.377 86.5407C137.031 86.7142 136.631 86.8009 136.179 86.8009C135.746 86.8009 135.374 86.723 135.063 86.5671C134.751 86.4113 134.522 86.1901 134.377 85.9036C134.231 85.6171 134.188 85.2778 134.248 84.8857L135.138 84.8857C135.108 85.1119 135.132 85.3067 135.21 85.47C135.288 85.6309 135.411 85.7553 135.579 85.8433C135.75 85.9287 135.955 85.9715 136.194 85.9715C136.47 85.9715 136.716 85.9137 136.933 85.798C137.151 85.6799 137.332 85.509 137.476 85.2853C137.621 85.0591 137.722 84.7852 137.777 84.4634L138.682 78.9742ZM144.13 84.3277L144.703 80.9045L145.592 80.9045L144.627 86.6953L143.738 86.6953L143.903 85.7151L143.843 85.7151C143.662 86.0092 143.41 86.2592 143.085 86.4653C142.761 86.6689 142.38 86.7707 141.943 86.7707C141.581 86.7707 141.272 86.6915 141.016 86.5332C140.762 86.3723 140.581 86.1311 140.473 85.8093C140.367 85.4851 140.355 85.0767 140.435 84.5841L141.053 80.9045L141.943 80.9045L141.34 84.5238C141.272 84.946 141.336 85.2828 141.532 85.5341C141.728 85.7855 142.011 85.9111 142.38 85.9111C142.602 85.9111 142.835 85.8546 143.082 85.7415C143.33 85.6284 143.552 85.455 143.745 85.2212C143.941 84.9875 144.069 84.6896 144.13 84.3277ZM151.113 82.2014L150.268 82.4276C150.238 82.2919 150.185 82.1612 150.11 82.0355C150.037 81.9073 149.924 81.803 149.771 81.7226C149.62 81.6397 149.414 81.5982 149.152 81.5982C148.798 81.5982 148.49 81.6799 148.229 81.8433C147.967 82.0041 147.818 82.2089 147.78 82.4578C147.742 82.6764 147.793 82.8511 147.931 82.9818C148.069 83.1125 148.3 83.2193 148.625 83.3023L149.454 83.5134C149.952 83.6416 150.306 83.8338 150.517 84.0902C150.731 84.3441 150.804 84.6746 150.736 85.0817C150.68 85.4135 150.536 85.7101 150.302 85.9715C150.068 86.2329 149.769 86.4389 149.405 86.5898C149.04 86.7406 148.635 86.816 148.187 86.816C147.592 86.816 147.122 86.6878 146.777 86.4314C146.433 86.1725 146.249 85.798 146.227 85.3079L147.116 85.0968C147.139 85.406 147.25 85.6397 147.448 85.798C147.649 85.9539 147.931 86.0318 148.293 86.0318C148.707 86.0318 149.053 85.9438 149.33 85.7679C149.606 85.5894 149.763 85.3758 149.801 85.127C149.838 84.9234 149.798 84.7537 149.68 84.618C149.565 84.4823 149.363 84.3805 149.077 84.3126L148.157 84.0864C147.644 83.9583 147.285 83.7622 147.079 83.4983C146.875 83.2344 146.807 82.9026 146.875 82.503C146.93 82.1763 147.071 81.8872 147.297 81.6359C147.526 81.3846 147.813 81.1873 148.157 81.044C148.504 80.9007 148.881 80.8291 149.288 80.8291C149.861 80.8291 150.29 80.9548 150.574 81.2061C150.858 81.4549 151.037 81.7867 151.113 82.2014ZM155.287 80.9045L155.166 81.6585L152.166 81.6585L152.286 80.9045L155.287 80.9045ZM153.387 79.5171L154.277 79.5171L153.357 85.0365C153.317 85.2878 153.323 85.4763 153.376 85.602C153.431 85.7252 153.514 85.8081 153.625 85.8508C153.738 85.891 153.86 85.9111 153.99 85.9111C154.088 85.9111 154.169 85.9061 154.232 85.8961C154.294 85.8835 154.345 85.8734 154.382 85.8659L154.443 86.6652C154.375 86.6878 154.283 86.7104 154.167 86.733C154.054 86.7581 153.915 86.7707 153.749 86.7707C153.498 86.7707 153.261 86.7167 153.04 86.6086C152.819 86.5005 152.649 86.3359 152.531 86.1147C152.413 85.8935 152.382 85.6146 152.437 85.2778L153.387 79.5171ZM161.18 86.6953L158.767 86.6953L160.049 78.9742L162.507 78.9742C163.256 78.9742 163.873 79.1313 164.358 79.4455C164.845 79.7597 165.185 80.2083 165.376 80.7914C165.569 81.3745 165.598 82.0707 165.463 82.88C165.332 83.6742 165.078 84.3566 164.701 84.9272C164.326 85.4952 163.841 85.9325 163.246 86.2391C162.653 86.5433 161.964 86.6953 161.18 86.6953ZM159.841 85.8659L161.21 85.8659C161.848 85.8659 162.399 85.7402 162.861 85.4889C163.326 85.2376 163.701 84.8794 163.985 84.4144C164.271 83.9495 164.467 83.3978 164.573 82.7594C164.678 82.1461 164.668 81.6196 164.543 81.1797C164.419 80.7374 164.177 80.3981 163.815 80.1618C163.456 79.923 162.974 79.8037 162.371 79.8037L160.844 79.8037L159.841 85.8659ZM166.277 86.6953L167.242 80.9045L168.102 80.9045L167.951 81.7792L168.011 81.7792C168.162 81.4926 168.392 81.2602 168.701 81.0817C169.01 80.9033 169.338 80.814 169.685 80.814C169.753 80.814 169.835 80.8153 169.93 80.8178C170.026 80.8178 170.1 80.8216 170.152 80.8291L170.002 81.7339C169.971 81.7264 169.904 81.7151 169.798 81.7C169.693 81.6824 169.579 81.6736 169.459 81.6736C169.177 81.6736 168.917 81.7327 168.678 81.8508C168.44 81.9664 168.24 82.1273 168.079 82.3334C167.918 82.5369 167.815 82.7694 167.77 83.0308L167.167 86.6953L166.277 86.6953ZM170.248 86.6953L171.213 80.9045L172.103 80.9045L171.137 86.6953L170.248 86.6953ZM171.929 79.9243C171.756 79.9243 171.606 79.8652 171.48 79.7471C171.357 79.629 171.296 79.487 171.296 79.3211C171.296 79.1552 171.357 79.0132 171.48 78.8951C171.606 78.7769 171.756 78.7179 171.929 78.7179C172.103 78.7179 172.251 78.7769 172.374 78.8951C172.5 79.0132 172.562 79.1552 172.562 79.3211C172.562 79.487 172.5 79.629 172.374 79.7471C172.251 79.8652 172.103 79.9243 171.929 79.9243ZM172.405 88.8669L173.74 80.9045L174.599 80.9045L174.448 81.8244L174.554 81.8244C174.634 81.7239 174.745 81.5957 174.886 81.4399C175.029 81.2815 175.221 81.1408 175.463 81.0176C175.706 80.8919 176.017 80.8291 176.394 80.8291C176.881 80.8291 177.29 80.951 177.619 81.1948C177.948 81.4386 178.181 81.7842 178.317 82.2316C178.452 82.6789 178.47 83.2068 178.369 83.815C178.269 84.4283 178.076 84.9598 177.792 85.4097C177.508 85.8571 177.162 86.2039 176.752 86.4503C176.342 86.6941 175.896 86.816 175.414 86.816C175.042 86.816 174.754 86.7544 174.55 86.6312C174.347 86.5056 174.198 86.3635 174.105 86.2052C174.012 86.0443 173.941 85.9111 173.89 85.8056L173.815 85.8056L173.302 88.8669L172.405 88.8669ZM174.132 83.7999C174.061 84.2372 174.061 84.623 174.132 84.9573C174.205 85.2891 174.349 85.5492 174.565 85.7377C174.784 85.9237 175.072 86.0167 175.429 86.0167C175.801 86.0167 176.126 85.9187 176.405 85.7226C176.687 85.5241 176.918 85.2577 177.099 84.9234C177.282 84.5866 177.409 84.2121 177.48 83.7999C177.545 83.3927 177.542 83.0258 177.472 82.6991C177.402 82.3698 177.258 82.1097 177.042 81.9187C176.826 81.7251 176.53 81.6284 176.152 81.6284C175.791 81.6284 175.47 81.7201 175.191 81.9036C174.915 82.0845 174.686 82.3384 174.505 82.6651C174.327 82.9893 174.202 83.3676 174.132 83.7999ZM178.885 88.8669L180.219 80.9045L181.079 80.9045L180.928 81.8244L181.034 81.8244C181.114 81.7239 181.225 81.5957 181.366 81.4399C181.509 81.2815 181.701 81.1408 181.942 81.0176C182.186 80.8919 182.497 80.8291 182.874 80.8291C183.361 80.8291 183.77 80.951 184.099 81.1948C184.428 81.4386 184.661 81.7842 184.796 82.2316C184.932 82.6789 184.95 83.2068 184.849 83.815C184.749 84.4283 184.556 84.9598 184.272 85.4097C183.988 85.8571 183.641 86.2039 183.232 86.4503C182.822 86.6941 182.376 86.816 181.893 86.816C181.521 86.816 181.234 86.7544 181.03 86.6312C180.826 86.5056 180.678 86.3635 180.585 86.2052C180.492 86.0443 180.421 85.9111 180.37 85.8056L180.295 85.8056L179.782 88.8669L178.885 88.8669ZM180.612 83.7999C180.541 84.2372 180.541 84.623 180.612 84.9573C180.684 85.2891 180.829 85.5492 181.045 85.7377C181.264 85.9237 181.552 86.0167 181.908 86.0167C182.28 86.0167 182.606 85.9187 182.885 85.7226C183.166 85.5241 183.398 85.2577 183.579 84.9234C183.762 84.5866 183.889 84.2121 183.959 83.7999C184.025 83.3927 184.022 83.0258 183.952 82.6991C183.881 82.3698 183.738 82.1097 183.522 81.9187C183.306 81.7251 183.009 81.6284 182.632 81.6284C182.27 81.6284 181.95 81.7201 181.671 81.9036C181.394 82.0845 181.166 82.3384 180.985 82.6651C180.806 82.9893 180.682 83.3676 180.612 83.7999ZM185.727 86.6953L186.692 80.9045L187.581 80.9045L186.616 86.6953L185.727 86.6953ZM187.408 79.9243C187.235 79.9243 187.085 79.8652 186.959 79.7471C186.836 79.629 186.775 79.487 186.775 79.3211C186.775 79.1552 186.836 79.0132 186.959 78.8951C187.085 78.7769 187.235 78.7179 187.408 78.7179C187.581 78.7179 187.73 78.7769 187.853 78.8951C187.979 79.0132 188.041 79.1552 188.041 79.3211C188.041 79.487 187.979 79.629 187.853 79.7471C187.73 79.8652 187.581 79.9243 187.408 79.9243ZM189.709 83.2118L189.136 86.6953L188.246 86.6953L189.211 80.9045L190.071 80.9045L189.92 81.8093L189.995 81.8093C190.176 81.5153 190.421 81.279 190.73 81.1006C191.039 80.9196 191.413 80.8291 191.85 80.8291C192.237 80.8291 192.564 80.9095 192.83 81.0704C193.099 81.2287 193.289 81.47 193.4 81.7942C193.513 82.116 193.529 82.5231 193.449 83.0157L192.83 86.6953L191.941 86.6953L192.544 83.0761C192.619 82.6237 192.56 82.2693 192.367 82.0129C192.176 81.7565 191.873 81.6284 191.458 81.6284C191.171 81.6284 190.906 81.6899 190.662 81.8131C190.421 81.9362 190.216 82.116 190.048 82.3522C189.882 82.5885 189.769 82.875 189.709 83.2118ZM196.522 78.9742L196.417 79.6529C196.384 79.8589 196.31 80.0789 196.194 80.3126C196.081 80.5438 195.935 80.7688 195.757 80.9875C195.578 81.2036 195.376 81.3921 195.15 81.553L194.728 81.1609C194.924 80.9347 195.098 80.6997 195.252 80.4559C195.407 80.2096 195.509 79.9469 195.557 79.6679L195.678 78.9742L196.522 78.9742Z" fill="white"/>
<defs>
<linearGradient id="paint0_linear_562_1897" x1="70" y1="49.1953" x2="250" y2="49.1953" gradientUnits="userSpaceOnUse">
<stop stop-color="#1762A8"/>
<stop offset="1" stop-color="#BE0E0E"/>
</linearGradient>
</defs>
</svg>
