<svg width="207" height="89" viewBox="0 0 207 89" fill="none" xmlns="http://www.w3.org/2000/svg">
<g filter="url(#filter0_d_23253_6629)">
<rect x="10" y="13" width="177" height="58.5" rx="6.73652" fill="#CB1313" fill-opacity="0.01" shape-rendering="crispEdges"/>
<path d="M37.5163 49.1852C37.5163 49.6705 37.5664 50.1416 37.629 50.6126H29.374C27.495 50.6126 25.854 49.8989 24.5012 48.3715C23.1608 46.8727 22.4844 45.0313 22.4844 42.8758C22.4844 41.0202 22.9729 39.3643 23.95 37.9083C25.4156 35.7243 26.2424 35.5245 27.8082 35.1248C28.3343 32.9408 29.374 31.1708 30.9398 29.8147C32.5056 28.4586 34.2844 27.7734 36.2636 27.7734C38.7063 27.7734 40.7732 28.7441 42.4768 30.6854C44.1804 32.6268 45.0322 34.9821 45.0322 37.7656C46.4728 37.9511 47.6628 38.6649 48.6148 39.9068C49.2537 40.7204 49.6671 41.634 49.8675 42.6475C48.5213 41.3328 46.8052 40.6134 45.0322 40.6205H42.5269V37.7656C42.5269 35.7957 41.9006 34.1113 40.698 32.7124C39.4704 31.3421 37.9923 30.6283 36.2636 30.6283C34.535 30.6283 33.0568 31.3421 31.8292 32.7124C30.6267 34.1113 30.0003 35.7957 30.0003 37.7656H29.374C28.1589 37.7656 27.1317 38.2509 26.2799 39.2359C25.4156 40.2065 24.9897 41.377 24.9897 42.7616C24.9897 44.1463 25.4156 45.3168 26.2799 46.3303C27.1317 47.2724 28.1589 47.7577 29.374 47.7577H37.629C37.5664 48.2288 37.5163 48.6998 37.5163 49.1852ZM40.0216 47.7577V50.6126H50.0429V47.7577H40.0216Z" fill="#1A1A40"/>
<path d="M63.4244 37.7986L61.4877 38.3467C61.3659 38.0239 61.1863 37.7103 60.9488 37.4058C60.7174 37.0952 60.4007 36.8394 59.9987 36.6385C59.5968 36.4375 59.0822 36.337 58.4549 36.337C57.5962 36.337 56.8807 36.5349 56.3082 36.9308C55.7418 37.3205 55.4587 37.8169 55.4587 38.4198C55.4587 38.9557 55.6535 39.379 56.0433 39.6895C56.4331 40.0001 57.0421 40.259 57.8703 40.466L59.9531 40.9776C61.2076 41.2821 62.1424 41.748 62.7575 42.3752C63.3726 42.9964 63.6801 43.7972 63.6801 44.7777C63.6801 45.5816 63.4487 46.3002 62.9859 46.9336C62.5291 47.5669 61.8897 48.0663 61.0675 48.4317C60.2454 48.7971 59.2893 48.9798 58.1992 48.9798C56.768 48.9798 55.5835 48.6692 54.6456 48.0481C53.7078 47.4269 53.114 46.5195 52.8643 45.3258L54.9106 44.8143C55.1054 45.5694 55.4739 46.1358 56.0159 46.5134C56.564 46.891 57.2796 47.0797 58.1626 47.0797C59.1675 47.0797 59.9652 46.8666 60.556 46.4403C61.1528 46.0079 61.4512 45.4903 61.4512 44.8873C61.4512 44.4001 61.2807 43.9921 60.9396 43.6633C60.5986 43.3283 60.0749 43.0786 59.3684 42.9142L57.0299 42.3661C55.7449 42.0616 54.8009 41.5896 54.198 40.9502C53.6012 40.3046 53.3028 39.4977 53.3028 38.5294C53.3028 37.7377 53.5251 37.0374 53.9697 36.4284C54.4203 35.8194 55.0324 35.3413 55.8058 34.9942C56.5853 34.647 57.4684 34.4735 58.4549 34.4735C59.8434 34.4735 60.9336 34.778 61.7253 35.387C62.523 35.996 63.0894 36.7998 63.4244 37.7986ZM73.0275 34.6562V36.4832H65.7561V34.6562H73.0275ZM67.8754 31.2945H70.0312V44.6681C70.0312 45.2771 70.1195 45.7339 70.2961 46.0384C70.4788 46.3368 70.7103 46.5377 70.9904 46.6413C71.2766 46.7387 71.5781 46.7874 71.8948 46.7874C72.1323 46.7874 72.3272 46.7752 72.4794 46.7509C72.6317 46.7204 72.7535 46.6961 72.8448 46.6778L73.2833 48.6144C73.1371 48.6692 72.9331 48.724 72.6712 48.7788C72.4094 48.8397 72.0775 48.8702 71.6755 48.8702C71.0665 48.8702 70.4697 48.7393 69.8851 48.4774C69.3065 48.2155 68.8254 47.8166 68.4417 47.2807C68.0642 46.7448 67.8754 46.0688 67.8754 45.2527V31.2945ZM77.3301 48.6875H74.955L81.8245 29.9791H84.163L91.0325 48.6875H88.6575L83.0668 32.9388H82.9207L77.3301 48.6875ZM78.207 41.3795H87.7805V43.3892H78.207V41.3795ZM93.2843 53.9492C92.9189 53.9492 92.5931 53.9188 92.3069 53.8579C92.0206 53.8031 91.8227 53.7483 91.7131 53.6935L92.2612 51.7934C92.7849 51.9274 93.2478 51.9761 93.6497 51.9396C94.0517 51.903 94.4079 51.7234 94.7185 51.4006C95.0352 51.0839 95.3245 50.5693 95.5863 49.8568L95.9883 48.7606L90.7996 34.6562H93.1382L97.0114 45.8374H97.1576L101.031 34.6562H103.369L97.4133 50.7337C97.1454 51.4584 96.8135 52.0583 96.4176 52.5333C96.0218 53.0144 95.562 53.3707 95.0382 53.6021C94.5206 53.8335 93.936 53.9492 93.2843 53.9492ZM109.394 48.6875L105.119 34.6562H107.384L110.417 45.3989H110.563L113.559 34.6562H115.861L118.821 45.3624H118.967L122 34.6562H124.266L119.99 48.6875H117.871L114.802 37.9082H114.583L111.513 48.6875H109.394ZM143.193 39.3333C143.193 41.3064 142.837 43.0116 142.124 44.4489C141.412 45.8861 140.435 46.9945 139.192 47.774C137.95 48.5535 136.531 48.9433 134.935 48.9433C133.34 48.9433 131.921 48.5535 130.678 47.774C129.436 46.9945 128.459 45.8861 127.746 44.4489C127.034 43.0116 126.677 41.3064 126.677 39.3333C126.677 37.3601 127.034 35.6549 127.746 34.2177C128.459 32.7805 129.436 31.6721 130.678 30.8926C131.921 30.113 133.34 29.7233 134.935 29.7233C136.531 29.7233 137.95 30.113 139.192 30.8926C140.435 31.6721 141.412 32.7805 142.124 34.2177C142.837 35.6549 143.193 37.3601 143.193 39.3333ZM141.001 39.3333C141.001 37.7133 140.73 36.3461 140.188 35.2317C139.652 34.1172 138.924 33.2737 138.005 32.7013C137.091 32.1288 136.068 31.8426 134.935 31.8426C133.803 31.8426 132.776 32.1288 131.857 32.7013C130.943 33.2737 130.216 34.1172 129.674 35.2317C129.138 36.3461 128.87 37.7133 128.87 39.3333C128.87 40.9532 129.138 42.3204 129.674 43.4349C130.216 44.5494 130.943 45.3928 131.857 45.9653C132.776 46.5377 133.803 46.824 134.935 46.824C136.068 46.824 137.091 46.5377 138.005 45.9653C138.924 45.3928 139.652 44.5494 140.188 43.4349C140.73 42.3204 141.001 40.9532 141.001 39.3333ZM147.003 48.6875V29.9791H149.268V39.2602H149.487L157.891 29.9791H160.851L152.995 38.4198L160.851 48.6875H158.111L151.607 39.991L149.268 42.6219V48.6875H147.003ZM168.344 48.9798C166.992 48.9798 165.826 48.6814 164.845 48.0846C163.871 47.4817 163.119 46.6413 162.589 45.5633C162.065 44.4793 161.804 43.2187 161.804 41.7815C161.804 40.3442 162.065 39.0775 162.589 37.9813C163.119 36.879 163.856 36.0203 164.8 35.4052C165.75 34.7841 166.858 34.4735 168.125 34.4735C168.856 34.4735 169.577 34.5953 170.29 34.8389C171.002 35.0825 171.651 35.4783 172.236 36.0264C172.82 36.5684 173.286 37.287 173.633 38.1823C173.98 39.0775 174.154 40.1798 174.154 41.4891V42.4026H163.338V40.5391H171.962C171.962 39.7474 171.803 39.041 171.487 38.4198C171.176 37.7986 170.731 37.3084 170.153 36.9491C169.58 36.5897 168.904 36.4101 168.125 36.4101C167.266 36.4101 166.523 36.6232 165.896 37.0495C165.275 37.4697 164.797 38.0178 164.462 38.6938C164.127 39.3698 163.959 40.0945 163.959 40.868V42.1103C163.959 43.17 164.142 44.0682 164.507 44.8051C164.879 45.5359 165.394 46.0932 166.051 46.4768C166.709 46.8544 167.473 47.0432 168.344 47.0432C168.911 47.0432 169.422 46.964 169.879 46.8057C170.342 46.6413 170.741 46.3977 171.076 46.0749C171.41 45.746 171.669 45.338 171.852 44.8508L173.935 45.4354C173.716 46.1419 173.347 46.7631 172.829 47.299C172.312 47.8288 171.672 48.2429 170.911 48.5413C170.15 48.8337 169.294 48.9798 168.344 48.9798Z" fill="#0B1D51"/>
</g>
<defs>
<filter id="filter0_d_23253_6629" x="0.0750008" y="0.325001" width="206.85" height="88.35" filterUnits="userSpaceOnUse" color-interpolation-filters="sRGB">
<feFlood flood-opacity="0" result="BackgroundImageFix"/>
<feColorMatrix in="SourceAlpha" type="matrix" values="0 0 0 0 0 0 0 0 0 0 0 0 0 0 0 0 0 0 127 0" result="hardAlpha"/>
<feOffset dx="5" dy="2.25"/>
<feGaussianBlur stdDeviation="7.4625"/>
<feComposite in2="hardAlpha" operator="out"/>
<feColorMatrix type="matrix" values="0 0 0 0 0 0 0 0 0 0 0 0 0 0 0 0 0 0 0.25 0"/>
<feBlend mode="normal" in2="BackgroundImageFix" result="effect1_dropShadow_23253_6629"/>
<feBlend mode="normal" in="BackgroundImageFix" in2="effect1_dropShadow_23253_6629" result="BackgroundImageFix"/>
<feBlend mode="normal" in="SourceGraphic" in2="BackgroundImageFix" result="shape"/>
</filter>
</defs>
</svg>
